<?xml version="1.0" encoding="UTF-8"?>
<svg xmlns="http://www.w3.org/2000/svg" xmlns:xlink="http://www.w3.org/1999/xlink" width="100px" height="100px" viewBox="0 0 100 100" version="1.1">
<defs>
<filter id="alpha" filterUnits="objectBoundingBox" x="0%" y="0%" width="100%" height="100%">
  <feColorMatrix type="matrix" in="SourceGraphic" values="0 0 0 0 1 0 0 0 0 1 0 0 0 0 1 0 0 0 1 0"/>
</filter>
<mask id="mask0">
  <g filter="url(#alpha)">
<rect x="0" y="0" width="100" height="100" style="fill:rgb(0%,0%,0%);fill-opacity:0.576471;stroke:none;"/>
  </g>
</mask>
<clipPath id="clip1">
  <rect x="0" y="0" width="100" height="100"/>
</clipPath>
<g id="surface5" clip-path="url(#clip1)">
<path style=" stroke:none;fill-rule:evenodd;fill:rgb(38.431373%,55.294118%,58.823529%);fill-opacity:1;" d="M 47.34375 21.40625 C 46.59375 21.800781 45.757812 22.011719 44.84375 22.03125 C 45.574219 21.550781 46.40625 21.34375 47.34375 21.40625 Z M 47.34375 21.40625 "/>
</g>
<mask id="mask1">
  <g filter="url(#alpha)">
<rect x="0" y="0" width="100" height="100" style="fill:rgb(0%,0%,0%);fill-opacity:0.0627451;stroke:none;"/>
  </g>
</mask>
<clipPath id="clip2">
  <rect x="0" y="0" width="100" height="100"/>
</clipPath>
<g id="surface8" clip-path="url(#clip2)">
<path style=" stroke:none;fill-rule:evenodd;fill:rgb(43.921569%,48.235294%,61.568627%);fill-opacity:1;" d="M 59.84375 21.71875 C 60.671875 21.691406 61.402344 21.898438 62.03125 22.34375 C 61.203125 22.371094 60.472656 22.164062 59.84375 21.71875 Z M 59.84375 21.71875 "/>
</g>
<mask id="mask2">
  <g filter="url(#alpha)">
<rect x="0" y="0" width="100" height="100" style="fill:rgb(0%,0%,0%);fill-opacity:0.996078;stroke:none;"/>
  </g>
</mask>
<clipPath id="clip3">
  <rect x="0" y="0" width="100" height="100"/>
</clipPath>
<g id="surface11" clip-path="url(#clip3)">
<path style=" stroke:none;fill-rule:evenodd;fill:rgb(17.254902%,80.392157%,48.235294%);fill-opacity:1;" d="M 50.15625 21.09375 C 49.570312 21.300781 48.945312 21.511719 48.28125 21.71875 C 47.179688 25.390625 48.015625 28.566406 50.78125 31.25 C 57.519531 36.179688 64.394531 36.390625 71.40625 31.875 C 72.351562 31.195312 72.976562 30.308594 73.28125 29.21875 C 73.386719 29.21875 73.488281 29.21875 73.59375 29.21875 C 73.667969 29.8125 73.980469 30.230469 74.53125 30.46875 C 74.714844 31.445312 74.402344 32.175781 73.59375 32.65625 C 73.042969 32.894531 72.730469 33.3125 72.65625 33.90625 C 72.136719 34.636719 71.511719 35.261719 70.78125 35.78125 C 70.1875 35.855469 69.769531 36.167969 69.53125 36.71875 C 68.90625 37.550781 68.175781 38.28125 67.34375 38.90625 C 66.867188 38.882812 66.554688 39.09375 66.40625 39.53125 C 66.09375 40.050781 65.675781 40.46875 65.15625 40.78125 C 64.679688 40.757812 64.367188 40.96875 64.21875 41.40625 C 64.011719 41.824219 63.699219 42.136719 63.28125 42.34375 C 62.6875 42.417969 62.269531 42.730469 62.03125 43.28125 C 61.824219 43.28125 61.613281 43.28125 61.40625 43.28125 C 52.964844 43.253906 45.933594 40.128906 40.3125 33.90625 C 38.453125 31.511719 37.359375 28.804688 37.03125 25.78125 C 37.03125 25.675781 37.03125 25.574219 37.03125 25.46875 C 37.136719 25.207031 37.347656 25.101562 37.65625 25.15625 C 38.132812 25.179688 38.445312 24.972656 38.59375 24.53125 C 39.609375 23.761719 40.753906 23.242188 42.03125 22.96875 C 43.078125 22.910156 44.015625 22.597656 44.84375 22.03125 C 45.757812 22.011719 46.59375 21.800781 47.34375 21.40625 C 48.246094 21.125 49.183594 21.019531 50.15625 21.09375 Z M 50.15625 21.09375 "/>
</g>
<mask id="mask3">
  <g filter="url(#alpha)">
<rect x="0" y="0" width="100" height="100" style="fill:rgb(0%,0%,0%);fill-opacity:0.568627;stroke:none;"/>
  </g>
</mask>
<clipPath id="clip4">
  <rect x="0" y="0" width="100" height="100"/>
</clipPath>
<g id="surface14" clip-path="url(#clip4)">
<path style=" stroke:none;fill-rule:evenodd;fill:rgb(38.431373%,57.254902%,58.039216%);fill-opacity:1;" d="M 44.84375 22.03125 C 44.015625 22.597656 43.078125 22.910156 42.03125 22.96875 C 42.839844 22.351562 43.777344 22.039062 44.84375 22.03125 Z M 44.84375 22.03125 "/>
</g>
<mask id="mask4">
  <g filter="url(#alpha)">
<rect x="0" y="0" width="100" height="100" style="fill:rgb(0%,0%,0%);fill-opacity:0.533333;stroke:none;"/>
  </g>
</mask>
<clipPath id="clip5">
  <rect x="0" y="0" width="100" height="100"/>
</clipPath>
<g id="surface17" clip-path="url(#clip5)">
<path style=" stroke:none;fill-rule:evenodd;fill:rgb(39.607843%,52.54902%,58.823529%);fill-opacity:1;" d="M 38.59375 24.53125 C 38.445312 24.972656 38.132812 25.179688 37.65625 25.15625 C 37.804688 24.714844 38.117188 24.507812 38.59375 24.53125 Z M 38.59375 24.53125 "/>
</g>
<mask id="mask5">
  <g filter="url(#alpha)">
<rect x="0" y="0" width="100" height="100" style="fill:rgb(0%,0%,0%);fill-opacity:0.729412;stroke:none;"/>
  </g>
</mask>
<clipPath id="clip6">
  <rect x="0" y="0" width="100" height="100"/>
</clipPath>
<g id="surface20" clip-path="url(#clip6)">
<path style=" stroke:none;fill-rule:evenodd;fill:rgb(34.901961%,60.784314%,54.901961%);fill-opacity:1;" d="M 37.03125 25.46875 C 37.03125 25.574219 37.03125 25.675781 37.03125 25.78125 C 36.585938 26.226562 36.066406 26.539062 35.46875 26.71875 C 35.808594 26.066406 36.328125 25.648438 37.03125 25.46875 Z M 37.03125 25.46875 "/>
</g>
<mask id="mask6">
  <g filter="url(#alpha)">
<rect x="0" y="0" width="100" height="100" style="fill:rgb(0%,0%,0%);fill-opacity:0.0941176;stroke:none;"/>
  </g>
</mask>
<clipPath id="clip7">
  <rect x="0" y="0" width="100" height="100"/>
</clipPath>
<g id="surface23" clip-path="url(#clip7)">
<path style=" stroke:none;fill-rule:evenodd;fill:rgb(43.529412%,47.843137%,61.568627%);fill-opacity:1;" d="M 72.65625 28.59375 C 73.132812 28.570312 73.445312 28.777344 73.59375 29.21875 C 73.488281 29.21875 73.386719 29.21875 73.28125 29.21875 C 72.96875 29.113281 72.761719 28.90625 72.65625 28.59375 Z M 72.65625 28.59375 "/>
</g>
<mask id="mask7">
  <g filter="url(#alpha)">
<rect x="0" y="0" width="100" height="100" style="fill:rgb(0%,0%,0%);fill-opacity:0.666667;stroke:none;"/>
  </g>
</mask>
<clipPath id="clip8">
  <rect x="0" y="0" width="100" height="100"/>
</clipPath>
<g id="surface26" clip-path="url(#clip8)">
<path style=" stroke:none;fill-rule:evenodd;fill:rgb(34.901961%,58.823529%,54.117647%);fill-opacity:1;" d="M 34.21875 27.65625 C 33.488281 28.59375 32.65625 29.425781 31.71875 30.15625 C 31.613281 30.15625 31.511719 30.15625 31.40625 30.15625 C 32.15625 29.09375 33.09375 28.257812 34.21875 27.65625 Z M 34.21875 27.65625 "/>
</g>
<mask id="mask8">
  <g filter="url(#alpha)">
<rect x="0" y="0" width="100" height="100" style="fill:rgb(0%,0%,0%);fill-opacity:0.568627;stroke:none;"/>
  </g>
</mask>
<clipPath id="clip9">
  <rect x="0" y="0" width="100" height="100"/>
</clipPath>
<g id="surface29" clip-path="url(#clip9)">
<path style=" stroke:none;fill-rule:evenodd;fill:rgb(40.392157%,53.72549%,59.215686%);fill-opacity:1;" d="M 73.59375 29.21875 C 74.144531 29.457031 74.457031 29.875 74.53125 30.46875 C 73.980469 30.230469 73.667969 29.8125 73.59375 29.21875 Z M 73.59375 29.21875 "/>
</g>
<mask id="mask9">
  <g filter="url(#alpha)">
<rect x="0" y="0" width="100" height="100" style="fill:rgb(0%,0%,0%);fill-opacity:0.462745;stroke:none;"/>
  </g>
</mask>
<clipPath id="clip10">
  <rect x="0" y="0" width="100" height="100"/>
</clipPath>
<g id="surface32" clip-path="url(#clip10)">
<path style=" stroke:none;fill-rule:evenodd;fill:rgb(40%,49.803922%,58.431373%);fill-opacity:1;" d="M 29.84375 32.03125 C 29.769531 32.625 29.457031 33.042969 28.90625 33.28125 C 28.980469 32.6875 29.292969 32.269531 29.84375 32.03125 Z M 29.84375 32.03125 "/>
</g>
<mask id="mask10">
  <g filter="url(#alpha)">
<rect x="0" y="0" width="100" height="100" style="fill:rgb(0%,0%,0%);fill-opacity:0.113725;stroke:none;"/>
  </g>
</mask>
<clipPath id="clip11">
  <rect x="0" y="0" width="100" height="100"/>
</clipPath>
<g id="surface35" clip-path="url(#clip11)">
<path style=" stroke:none;fill-rule:evenodd;fill:rgb(44.705882%,44.705882%,62.352941%);fill-opacity:1;" d="M 73.59375 32.65625 C 73.519531 33.25 73.207031 33.667969 72.65625 33.90625 C 72.730469 33.3125 73.042969 32.894531 73.59375 32.65625 Z M 73.59375 32.65625 "/>
</g>
<mask id="mask11">
  <g filter="url(#alpha)">
<rect x="0" y="0" width="100" height="100" style="fill:rgb(0%,0%,0%);fill-opacity:0.329412;stroke:none;"/>
  </g>
</mask>
<clipPath id="clip12">
  <rect x="0" y="0" width="100" height="100"/>
</clipPath>
<g id="surface38" clip-path="url(#clip12)">
<path style=" stroke:none;fill-rule:evenodd;fill:rgb(39.607843%,48.235294%,57.647059%);fill-opacity:1;" d="M 27.96875 34.84375 C 27.992188 35.320312 27.785156 35.632812 27.34375 35.78125 C 27.320312 35.304688 27.527344 34.992188 27.96875 34.84375 Z M 27.96875 34.84375 "/>
</g>
<mask id="mask12">
  <g filter="url(#alpha)">
<rect x="0" y="0" width="100" height="100" style="fill:rgb(0%,0%,0%);fill-opacity:0.117647;stroke:none;"/>
  </g>
</mask>
<clipPath id="clip13">
  <rect x="0" y="0" width="100" height="100"/>
</clipPath>
<g id="surface41" clip-path="url(#clip13)">
<path style=" stroke:none;fill-rule:evenodd;fill:rgb(44.313725%,45.490196%,61.960784%);fill-opacity:1;" d="M 70.78125 35.78125 C 70.542969 36.332031 70.125 36.644531 69.53125 36.71875 C 69.769531 36.167969 70.1875 35.855469 70.78125 35.78125 Z M 70.78125 35.78125 "/>
</g>
<mask id="mask13">
  <g filter="url(#alpha)">
<rect x="0" y="0" width="100" height="100" style="fill:rgb(0%,0%,0%);fill-opacity:0.0705882;stroke:none;"/>
  </g>
</mask>
<clipPath id="clip14">
  <rect x="0" y="0" width="100" height="100"/>
</clipPath>
<g id="surface44" clip-path="url(#clip14)">
<path style=" stroke:none;fill-rule:evenodd;fill:rgb(45.098039%,43.921569%,61.960784%);fill-opacity:1;" d="M 67.34375 38.90625 C 67.195312 39.34375 66.882812 39.554688 66.40625 39.53125 C 66.554688 39.09375 66.867188 38.882812 67.34375 38.90625 Z M 67.34375 38.90625 "/>
</g>
<mask id="mask14">
  <g filter="url(#alpha)">
<rect x="0" y="0" width="100" height="100" style="fill:rgb(0%,0%,0%);fill-opacity:0.639216;stroke:none;"/>
  </g>
</mask>
<clipPath id="clip15">
  <rect x="0" y="0" width="100" height="100"/>
</clipPath>
<g id="surface47" clip-path="url(#clip15)">
<path style=" stroke:none;fill-rule:evenodd;fill:rgb(35.294118%,51.764706%,53.333333%);fill-opacity:1;" d="M 25.46875 39.84375 C 25.496094 40.671875 25.289062 41.402344 24.84375 42.03125 C 24.816406 41.203125 25.023438 40.472656 25.46875 39.84375 Z M 25.46875 39.84375 "/>
</g>
<mask id="mask15">
  <g filter="url(#alpha)">
<rect x="0" y="0" width="100" height="100" style="fill:rgb(0%,0%,0%);fill-opacity:0.996078;stroke:none;"/>
  </g>
</mask>
<clipPath id="clip16">
  <rect x="0" y="0" width="100" height="100"/>
</clipPath>
<g id="surface50" clip-path="url(#clip16)">
<path style=" stroke:none;fill-rule:evenodd;fill:rgb(12.54902%,68.235294%,39.607843%);fill-opacity:1;" d="M 27.03125 36.40625 C 26.984375 36.734375 27.035156 37.046875 27.1875 37.34375 C 33.050781 45.042969 40.707031 50.042969 50.15625 52.34375 C 48.488281 53.699219 46.824219 55.050781 45.15625 56.40625 C 44.929688 56.535156 44.773438 56.746094 44.6875 57.03125 C 36.753906 54.554688 29.929688 50.386719 24.21875 44.53125 C 24.21875 44.425781 24.21875 44.324219 24.21875 44.21875 C 24.664062 43.589844 24.871094 42.859375 24.84375 42.03125 C 25.289062 41.402344 25.496094 40.671875 25.46875 39.84375 C 25.8125 38.59375 26.335938 37.449219 27.03125 36.40625 Z M 27.03125 36.40625 "/>
</g>
<mask id="mask16">
  <g filter="url(#alpha)">
<rect x="0" y="0" width="100" height="100" style="fill:rgb(0%,0%,0%);fill-opacity:0.0705882;stroke:none;"/>
  </g>
</mask>
<clipPath id="clip17">
  <rect x="0" y="0" width="100" height="100"/>
</clipPath>
<g id="surface53" clip-path="url(#clip17)">
<path style=" stroke:none;fill-rule:evenodd;fill:rgb(45.098039%,43.921569%,61.960784%);fill-opacity:1;" d="M 65.15625 40.78125 C 65.007812 41.21875 64.695312 41.429688 64.21875 41.40625 C 64.367188 40.96875 64.679688 40.757812 65.15625 40.78125 Z M 65.15625 40.78125 "/>
</g>
<mask id="mask17">
  <g filter="url(#alpha)">
<rect x="0" y="0" width="100" height="100" style="fill:rgb(0%,0%,0%);fill-opacity:0.121569;stroke:none;"/>
  </g>
</mask>
<clipPath id="clip18">
  <rect x="0" y="0" width="100" height="100"/>
</clipPath>
<g id="surface56" clip-path="url(#clip18)">
<path style=" stroke:none;fill-rule:evenodd;fill:rgb(46.27451%,43.137255%,60.784314%);fill-opacity:1;" d="M 63.28125 42.34375 C 62.832031 42.757812 62.621094 43.277344 62.65625 43.90625 C 62.34375 43.800781 62.136719 43.59375 62.03125 43.28125 C 62.269531 42.730469 62.6875 42.417969 63.28125 42.34375 Z M 63.28125 42.34375 "/>
</g>
<mask id="mask18">
  <g filter="url(#alpha)">
<rect x="0" y="0" width="100" height="100" style="fill:rgb(0%,0%,0%);fill-opacity:0.317647;stroke:none;"/>
  </g>
</mask>
<clipPath id="clip19">
  <rect x="0" y="0" width="100" height="100"/>
</clipPath>
<g id="surface59" clip-path="url(#clip19)">
<path style=" stroke:none;fill-rule:evenodd;fill:rgb(36.470588%,49.411765%,54.509804%);fill-opacity:1;" d="M 24.84375 42.03125 C 24.871094 42.859375 24.664062 43.589844 24.21875 44.21875 C 24.191406 43.390625 24.398438 42.660156 24.84375 42.03125 Z M 24.84375 42.03125 "/>
</g>
<mask id="mask19">
  <g filter="url(#alpha)">
<rect x="0" y="0" width="100" height="100" style="fill:rgb(0%,0%,0%);fill-opacity:0.490196;stroke:none;"/>
  </g>
</mask>
<clipPath id="clip20">
  <rect x="0" y="0" width="100" height="100"/>
</clipPath>
<g id="surface62" clip-path="url(#clip20)">
<path style=" stroke:none;fill-rule:evenodd;fill:rgb(54.117647%,40.784314%,54.117647%);fill-opacity:1;" d="M 62.65625 43.90625 C 63.511719 44.449219 64.136719 45.179688 64.53125 46.09375 C 63.675781 45.550781 63.050781 44.820312 62.65625 43.90625 Z M 62.65625 43.90625 "/>
</g>
<mask id="mask20">
  <g filter="url(#alpha)">
<rect x="0" y="0" width="100" height="100" style="fill:rgb(0%,0%,0%);fill-opacity:0.168627;stroke:none;"/>
  </g>
</mask>
<clipPath id="clip21">
  <rect x="0" y="0" width="100" height="100"/>
</clipPath>
<g id="surface65" clip-path="url(#clip21)">
<path style=" stroke:none;fill-rule:evenodd;fill:rgb(50.588235%,40.784314%,58.431373%);fill-opacity:1;" d="M 64.53125 46.09375 C 65.183594 46.433594 65.601562 46.953125 65.78125 47.65625 C 65.128906 47.316406 64.710938 46.796875 64.53125 46.09375 Z M 64.53125 46.09375 "/>
</g>
<mask id="mask21">
  <g filter="url(#alpha)">
<rect x="0" y="0" width="100" height="100" style="fill:rgb(0%,0%,0%);fill-opacity:0.447059;stroke:none;"/>
  </g>
</mask>
<clipPath id="clip22">
  <rect x="0" y="0" width="100" height="100"/>
</clipPath>
<g id="surface68" clip-path="url(#clip22)">
<path style=" stroke:none;fill-rule:evenodd;fill:rgb(51.372549%,41.568627%,56.078431%);fill-opacity:1;" d="M 65.78125 47.65625 C 66.332031 47.894531 66.644531 48.3125 66.71875 48.90625 C 66.167969 48.667969 65.855469 48.25 65.78125 47.65625 Z M 65.78125 47.65625 "/>
</g>
<mask id="mask22">
  <g filter="url(#alpha)">
<rect x="0" y="0" width="100" height="100" style="fill:rgb(0%,0%,0%);fill-opacity:0.345098;stroke:none;"/>
  </g>
</mask>
<clipPath id="clip23">
  <rect x="0" y="0" width="100" height="100"/>
</clipPath>
<g id="surface71" clip-path="url(#clip23)">
<path style=" stroke:none;fill-rule:evenodd;fill:rgb(50.196078%,41.176471%,58.039216%);fill-opacity:1;" d="M 66.71875 48.90625 C 67.15625 49.054688 67.367188 49.367188 67.34375 49.84375 C 66.90625 49.695312 66.695312 49.382812 66.71875 48.90625 Z M 66.71875 48.90625 "/>
</g>
<mask id="mask23">
  <g filter="url(#alpha)">
<rect x="0" y="0" width="100" height="100" style="fill:rgb(0%,0%,0%);fill-opacity:0.160784;stroke:none;"/>
  </g>
</mask>
<clipPath id="clip24">
  <rect x="0" y="0" width="100" height="100"/>
</clipPath>
<g id="surface74" clip-path="url(#clip24)">
<path style=" stroke:none;fill-rule:evenodd;fill:rgb(51.372549%,40.784314%,57.647059%);fill-opacity:1;" d="M 67.34375 49.84375 C 68.484375 50.875 69.320312 52.125 69.84375 53.59375 C 69.425781 53.175781 69.011719 52.761719 68.59375 52.34375 C 68.175781 51.511719 67.761719 50.675781 67.34375 49.84375 Z M 67.34375 49.84375 "/>
</g>
<mask id="mask24">
  <g filter="url(#alpha)">
<rect x="0" y="0" width="100" height="100" style="fill:rgb(0%,0%,0%);fill-opacity:0.329412;stroke:none;"/>
  </g>
</mask>
<clipPath id="clip25">
  <rect x="0" y="0" width="100" height="100"/>
</clipPath>
<g id="surface77" clip-path="url(#clip25)">
<path style=" stroke:none;fill-rule:evenodd;fill:rgb(50.980392%,41.176471%,56.862745%);fill-opacity:1;" d="M 70.15625 54.21875 C 70.59375 54.367188 70.804688 54.679688 70.78125 55.15625 C 70.34375 55.007812 70.132812 54.695312 70.15625 54.21875 Z M 70.15625 54.21875 "/>
</g>
<mask id="mask25">
  <g filter="url(#alpha)">
<rect x="0" y="0" width="100" height="100" style="fill:rgb(0%,0%,0%);fill-opacity:0.027451;stroke:none;"/>
  </g>
</mask>
<clipPath id="clip26">
  <rect x="0" y="0" width="100" height="100"/>
</clipPath>
<g id="surface80" clip-path="url(#clip26)">
<path style=" stroke:none;fill-rule:evenodd;fill:rgb(42.352941%,42.745098%,59.215686%);fill-opacity:1;" d="M 24.21875 56.09375 C 24.71875 57.261719 25.03125 58.511719 25.15625 59.84375 C 24.558594 58.699219 24.246094 57.449219 24.21875 56.09375 Z M 24.21875 56.09375 "/>
</g>
<mask id="mask26">
  <g filter="url(#alpha)">
<rect x="0" y="0" width="100" height="100" style="fill:rgb(0%,0%,0%);fill-opacity:0.101961;stroke:none;"/>
  </g>
</mask>
<clipPath id="clip27">
  <rect x="0" y="0" width="100" height="100"/>
</clipPath>
<g id="surface83" clip-path="url(#clip27)">
<path style=" stroke:none;fill-rule:evenodd;fill:rgb(51.764706%,41.176471%,56.862745%);fill-opacity:1;" d="M 71.71875 57.03125 C 72.21875 57.277344 72.429688 57.695312 72.34375 58.28125 C 71.976562 57.964844 71.769531 57.546875 71.71875 57.03125 Z M 71.71875 57.03125 "/>
</g>
<mask id="mask27">
  <g filter="url(#alpha)">
<rect x="0" y="0" width="100" height="100" style="fill:rgb(0%,0%,0%);fill-opacity:0.0784314;stroke:none;"/>
  </g>
</mask>
<clipPath id="clip28">
  <rect x="0" y="0" width="100" height="100"/>
</clipPath>
<g id="surface86" clip-path="url(#clip28)">
<path style=" stroke:none;fill-rule:evenodd;fill:rgb(49.803922%,40.784314%,59.607843%);fill-opacity:1;" d="M 72.96875 59.53125 C 73.414062 59.929688 73.625 60.453125 73.59375 61.09375 C 73.148438 60.695312 72.9375 60.171875 72.96875 59.53125 Z M 72.96875 59.53125 "/>
</g>
<mask id="mask28">
  <g filter="url(#alpha)">
<rect x="0" y="0" width="100" height="100" style="fill:rgb(0%,0%,0%);fill-opacity:0.231373;stroke:none;"/>
  </g>
</mask>
<clipPath id="clip29">
  <rect x="0" y="0" width="100" height="100"/>
</clipPath>
<g id="surface89" clip-path="url(#clip29)">
<path style=" stroke:none;fill-rule:evenodd;fill:rgb(42.745098%,41.568627%,59.215686%);fill-opacity:1;" d="M 25.15625 59.84375 C 25.605469 60.242188 25.8125 60.765625 25.78125 61.40625 C 25.332031 61.007812 25.125 60.484375 25.15625 59.84375 Z M 25.15625 59.84375 "/>
</g>
<mask id="mask29">
  <g filter="url(#alpha)">
<rect x="0" y="0" width="100" height="100" style="fill:rgb(0%,0%,0%);fill-opacity:0.65098;stroke:none;"/>
  </g>
</mask>
<clipPath id="clip30">
  <rect x="0" y="0" width="100" height="100"/>
</clipPath>
<g id="surface92" clip-path="url(#clip30)">
<path style=" stroke:none;fill-rule:evenodd;fill:rgb(57.647059%,41.960784%,51.372549%);fill-opacity:1;" d="M 73.59375 61.09375 C 74.214844 62.125 74.527344 63.269531 74.53125 64.53125 C 74.039062 63.464844 73.726562 62.320312 73.59375 61.09375 Z M 73.59375 61.09375 "/>
</g>
<mask id="mask30">
  <g filter="url(#alpha)">
<rect x="0" y="0" width="100" height="100" style="fill:rgb(0%,0%,0%);fill-opacity:0.705882;stroke:none;"/>
  </g>
</mask>
<clipPath id="clip31">
  <rect x="0" y="0" width="100" height="100"/>
</clipPath>
<g id="surface95" clip-path="url(#clip31)">
<path style=" stroke:none;fill-rule:evenodd;fill:rgb(35.686275%,46.27451%,51.372549%);fill-opacity:1;" d="M 27.03125 64.21875 C 27.75 64.605469 28.164062 65.230469 28.28125 66.09375 C 27.714844 65.589844 27.296875 64.964844 27.03125 64.21875 Z M 27.03125 64.21875 "/>
</g>
<mask id="mask31">
  <g filter="url(#alpha)">
<rect x="0" y="0" width="100" height="100" style="fill:rgb(0%,0%,0%);fill-opacity:0.65098;stroke:none;"/>
  </g>
</mask>
<clipPath id="clip32">
  <rect x="0" y="0" width="100" height="100"/>
</clipPath>
<g id="surface98" clip-path="url(#clip32)">
<path style=" stroke:none;fill-rule:evenodd;fill:rgb(57.647059%,43.137255%,48.627451%);fill-opacity:1;" d="M 74.53125 64.53125 C 74.890625 66.140625 74.941406 67.808594 74.6875 69.53125 C 74.601562 69.816406 74.445312 70.027344 74.21875 70.15625 C 74.488281 68.296875 74.59375 66.421875 74.53125 64.53125 Z M 74.53125 64.53125 "/>
</g>
<mask id="mask32">
  <g filter="url(#alpha)">
<rect x="0" y="0" width="100" height="100" style="fill:rgb(0%,0%,0%);fill-opacity:0.0745098;stroke:none;"/>
  </g>
</mask>
<clipPath id="clip33">
  <rect x="0" y="0" width="100" height="100"/>
</clipPath>
<g id="surface101" clip-path="url(#clip33)">
<path style=" stroke:none;fill-rule:evenodd;fill:rgb(42.352941%,41.568627%,58.823529%);fill-opacity:1;" d="M 29.84375 68.28125 C 30.285156 68.429688 30.492188 68.742188 30.46875 69.21875 C 30.027344 69.070312 29.820312 68.757812 29.84375 68.28125 Z M 29.84375 68.28125 "/>
</g>
<mask id="mask33">
  <g filter="url(#alpha)">
<rect x="0" y="0" width="100" height="100" style="fill:rgb(0%,0%,0%);fill-opacity:0.0823529;stroke:none;"/>
  </g>
</mask>
<clipPath id="clip34">
  <rect x="0" y="0" width="100" height="100"/>
</clipPath>
<g id="surface104" clip-path="url(#clip34)">
<path style=" stroke:none;fill-rule:evenodd;fill:rgb(52.156863%,41.176471%,57.647059%);fill-opacity:1;" d="M 74.21875 70.15625 C 74.242188 70.632812 74.03125 70.945312 73.59375 71.09375 C 73.570312 70.617188 73.78125 70.304688 74.21875 70.15625 Z M 74.21875 70.15625 "/>
</g>
<mask id="mask34">
  <g filter="url(#alpha)">
<rect x="0" y="0" width="100" height="100" style="fill:rgb(0%,0%,0%);fill-opacity:0.647059;stroke:none;"/>
  </g>
</mask>
<clipPath id="clip35">
  <rect x="0" y="0" width="100" height="100"/>
</clipPath>
<g id="surface107" clip-path="url(#clip35)">
<path style=" stroke:none;fill-rule:evenodd;fill:rgb(34.117647%,45.098039%,49.803922%);fill-opacity:1;" d="M 32.96875 71.71875 C 33.671875 71.898438 34.191406 72.316406 34.53125 72.96875 C 33.828125 72.789062 33.308594 72.371094 32.96875 71.71875 Z M 32.96875 71.71875 "/>
</g>
<mask id="mask35">
  <g filter="url(#alpha)">
<rect x="0" y="0" width="100" height="100" style="fill:rgb(0%,0%,0%);fill-opacity:0.345098;stroke:none;"/>
  </g>
</mask>
<clipPath id="clip36">
  <rect x="0" y="0" width="100" height="100"/>
</clipPath>
<g id="surface110" clip-path="url(#clip36)">
<path style=" stroke:none;fill-rule:evenodd;fill:rgb(38.823529%,42.352941%,55.686275%);fill-opacity:1;" d="M 35.15625 73.59375 C 35.632812 73.570312 35.945312 73.78125 36.09375 74.21875 C 35.617188 74.242188 35.304688 74.03125 35.15625 73.59375 Z M 35.15625 73.59375 "/>
</g>
<mask id="mask36">
  <g filter="url(#alpha)">
<rect x="0" y="0" width="100" height="100" style="fill:rgb(0%,0%,0%);fill-opacity:0.0392157;stroke:none;"/>
  </g>
</mask>
<clipPath id="clip37">
  <rect x="0" y="0" width="100" height="100"/>
</clipPath>
<g id="surface113" clip-path="url(#clip37)">
<path style=" stroke:none;fill-rule:evenodd;fill:rgb(45.882353%,40.392157%,62.352941%);fill-opacity:1;" d="M 70.78125 73.59375 C 70.632812 74.03125 70.320312 74.242188 69.84375 74.21875 C 69.992188 73.78125 70.304688 73.570312 70.78125 73.59375 Z M 70.78125 73.59375 "/>
</g>
<mask id="mask37">
  <g filter="url(#alpha)">
<rect x="0" y="0" width="100" height="100" style="fill:rgb(0%,0%,0%);fill-opacity:0.992157;stroke:none;"/>
  </g>
</mask>
<clipPath id="clip38">
  <rect x="0" y="0" width="100" height="100"/>
</clipPath>
<g id="surface116" clip-path="url(#clip38)">
<path style=" stroke:none;fill-rule:evenodd;fill:rgb(14.117647%,49.803922%,30.588235%);fill-opacity:1;" d="M 34.53125 72.96875 C 39.6875 74.257812 44.894531 75.351562 50.15625 76.25 C 54.71875 76.886719 59.300781 77.148438 63.90625 77.03125 C 63.699219 77.238281 63.488281 77.449219 63.28125 77.65625 C 58.007812 79.585938 52.59375 80.003906 47.03125 78.90625 C 46.300781 78.425781 45.46875 78.21875 44.53125 78.28125 C 43.035156 78.0625 41.679688 77.539062 40.46875 76.71875 C 40.152344 76.351562 39.734375 76.144531 39.21875 76.09375 C 38.703125 76.042969 38.285156 75.835938 37.96875 75.46875 C 37.820312 75.03125 37.507812 74.820312 37.03125 74.84375 C 36.882812 74.40625 36.570312 74.195312 36.09375 74.21875 C 35.945312 73.78125 35.632812 73.570312 35.15625 73.59375 C 34.84375 73.488281 34.636719 73.28125 34.53125 72.96875 Z M 34.53125 72.96875 "/>
</g>
<mask id="mask38">
  <g filter="url(#alpha)">
<rect x="0" y="0" width="100" height="100" style="fill:rgb(0%,0%,0%);fill-opacity:0.34902;stroke:none;"/>
  </g>
</mask>
<clipPath id="clip39">
  <rect x="0" y="0" width="100" height="100"/>
</clipPath>
<g id="surface119" clip-path="url(#clip39)">
<path style=" stroke:none;fill-rule:evenodd;fill:rgb(38.431373%,42.745098%,54.901961%);fill-opacity:1;" d="M 36.09375 74.21875 C 36.570312 74.195312 36.882812 74.40625 37.03125 74.84375 C 36.554688 74.867188 36.242188 74.65625 36.09375 74.21875 Z M 36.09375 74.21875 "/>
</g>
<mask id="mask39">
  <g filter="url(#alpha)">
<rect x="0" y="0" width="100" height="100" style="fill:rgb(0%,0%,0%);fill-opacity:0.0509804;stroke:none;"/>
  </g>
</mask>
<clipPath id="clip40">
  <rect x="0" y="0" width="100" height="100"/>
</clipPath>
<g id="surface122" clip-path="url(#clip40)">
<path style=" stroke:none;fill-rule:evenodd;fill:rgb(45.098039%,40.784314%,61.176471%);fill-opacity:1;" d="M 69.84375 74.21875 C 69.695312 74.65625 69.382812 74.867188 68.90625 74.84375 C 69.054688 74.40625 69.367188 74.195312 69.84375 74.21875 Z M 69.84375 74.21875 "/>
</g>
<mask id="mask40">
  <g filter="url(#alpha)">
<rect x="0" y="0" width="100" height="100" style="fill:rgb(0%,0%,0%);fill-opacity:0.290196;stroke:none;"/>
  </g>
</mask>
<clipPath id="clip41">
  <rect x="0" y="0" width="100" height="100"/>
</clipPath>
<g id="surface125" clip-path="url(#clip41)">
<path style=" stroke:none;fill-rule:evenodd;fill:rgb(40.784314%,41.960784%,57.254902%);fill-opacity:1;" d="M 37.03125 74.84375 C 37.507812 74.820312 37.820312 75.03125 37.96875 75.46875 C 37.492188 75.492188 37.179688 75.28125 37.03125 74.84375 Z M 37.03125 74.84375 "/>
</g>
<mask id="mask41">
  <g filter="url(#alpha)">
<rect x="0" y="0" width="100" height="100" style="fill:rgb(0%,0%,0%);fill-opacity:0.0784314;stroke:none;"/>
  </g>
</mask>
<clipPath id="clip42">
  <rect x="0" y="0" width="100" height="100"/>
</clipPath>
<g id="surface128" clip-path="url(#clip42)">
<path style=" stroke:none;fill-rule:evenodd;fill:rgb(41.568627%,41.960784%,57.647059%);fill-opacity:1;" d="M 39.21875 76.09375 C 39.734375 76.144531 40.152344 76.351562 40.46875 76.71875 C 39.882812 76.804688 39.464844 76.59375 39.21875 76.09375 Z M 39.21875 76.09375 "/>
</g>
<mask id="mask42">
  <g filter="url(#alpha)">
<rect x="0" y="0" width="100" height="100" style="fill:rgb(0%,0%,0%);fill-opacity:0.0666667;stroke:none;"/>
  </g>
</mask>
<clipPath id="clip43">
  <rect x="0" y="0" width="100" height="100"/>
</clipPath>
<g id="surface131" clip-path="url(#clip43)">
<path style=" stroke:none;fill-rule:evenodd;fill:rgb(43.529412%,41.176471%,60%);fill-opacity:1;" d="M 63.90625 77.03125 C 64.21875 77.03125 64.53125 77.03125 64.84375 77.03125 C 64.445312 77.476562 63.921875 77.6875 63.28125 77.65625 C 63.488281 77.449219 63.699219 77.238281 63.90625 77.03125 Z M 63.90625 77.03125 "/>
</g>
<mask id="mask43">
  <g filter="url(#alpha)">
<rect x="0" y="0" width="100" height="100" style="fill:rgb(0%,0%,0%);fill-opacity:0.376471;stroke:none;"/>
  </g>
</mask>
<clipPath id="clip44">
  <rect x="0" y="0" width="100" height="100"/>
</clipPath>
<g id="surface134" clip-path="url(#clip44)">
<path style=" stroke:none;fill-rule:evenodd;fill:rgb(36.078431%,43.921569%,52.156863%);fill-opacity:1;" d="M 44.53125 78.28125 C 45.46875 78.21875 46.300781 78.425781 47.03125 78.90625 C 46.117188 78.886719 45.28125 78.675781 44.53125 78.28125 Z M 44.53125 78.28125 "/>
</g>
</defs>
<g id="surface1">
<path style=" stroke:none;fill-rule:evenodd;fill:rgb(18.823529%,83.921569%,50.980392%);fill-opacity:1;" d="M 59.84375 21.71875 C 60.472656 22.164062 61.203125 22.371094 62.03125 22.34375 C 66.160156 23.46875 69.699219 25.550781 72.65625 28.59375 C 72.761719 28.90625 72.96875 29.113281 73.28125 29.21875 C 72.976562 30.308594 72.351562 31.195312 71.40625 31.875 C 64.394531 36.390625 57.519531 36.179688 50.78125 31.25 C 48.015625 28.566406 47.179688 25.390625 48.28125 21.71875 C 48.945312 21.511719 49.570312 21.300781 50.15625 21.09375 C 53.449219 20.667969 56.679688 20.875 59.84375 21.71875 Z M 59.84375 21.71875 "/>
<use xlink:href="#surface5" mask="url(#mask0)"/>
<use xlink:href="#surface8" mask="url(#mask1)"/>
<use xlink:href="#surface11" mask="url(#mask2)"/>
<use xlink:href="#surface14" mask="url(#mask3)"/>
<use xlink:href="#surface17" mask="url(#mask4)"/>
<path style=" stroke:none;fill-rule:evenodd;fill:rgb(14.509804%,76.078431%,45.098039%);fill-opacity:1;" d="M 37.03125 25.78125 C 37.359375 28.804688 38.453125 31.511719 40.3125 33.90625 C 45.933594 40.128906 52.964844 43.253906 61.40625 43.28125 C 59.929688 44.863281 58.261719 46.21875 56.40625 47.34375 C 46.398438 46.277344 38.640625 41.589844 33.125 33.28125 C 32.625 32.242188 32.15625 31.203125 31.71875 30.15625 C 32.65625 29.425781 33.488281 28.59375 34.21875 27.65625 C 34.457031 27.105469 34.875 26.792969 35.46875 26.71875 C 36.066406 26.539062 36.585938 26.226562 37.03125 25.78125 Z M 37.03125 25.78125 "/>
<use xlink:href="#surface20" mask="url(#mask5)"/>
<use xlink:href="#surface23" mask="url(#mask6)"/>
<use xlink:href="#surface26" mask="url(#mask7)"/>
<use xlink:href="#surface29" mask="url(#mask8)"/>
<path style=" stroke:none;fill-rule:evenodd;fill:rgb(14.117647%,72.156863%,42.745098%);fill-opacity:1;" d="M 31.40625 30.15625 C 31.511719 30.15625 31.613281 30.15625 31.71875 30.15625 C 32.15625 31.203125 32.625 32.242188 33.125 33.28125 C 38.640625 41.589844 46.398438 46.277344 56.40625 47.34375 C 54.421875 49.121094 52.335938 50.785156 50.15625 52.34375 C 40.707031 50.042969 33.050781 45.042969 27.1875 37.34375 C 27.035156 37.046875 26.984375 36.734375 27.03125 36.40625 C 26.976562 36.097656 27.082031 35.886719 27.34375 35.78125 C 27.785156 35.632812 27.992188 35.320312 27.96875 34.84375 C 28.160156 34.238281 28.472656 33.71875 28.90625 33.28125 C 29.457031 33.042969 29.769531 32.625 29.84375 32.03125 C 30.21875 31.277344 30.738281 30.652344 31.40625 30.15625 Z M 31.40625 30.15625 "/>
<use xlink:href="#surface32" mask="url(#mask9)"/>
<use xlink:href="#surface35" mask="url(#mask10)"/>
<use xlink:href="#surface38" mask="url(#mask11)"/>
<use xlink:href="#surface41" mask="url(#mask12)"/>
<use xlink:href="#surface44" mask="url(#mask13)"/>
<use xlink:href="#surface47" mask="url(#mask14)"/>
<use xlink:href="#surface50" mask="url(#mask15)"/>
<use xlink:href="#surface53" mask="url(#mask16)"/>
<use xlink:href="#surface56" mask="url(#mask17)"/>
<use xlink:href="#surface59" mask="url(#mask18)"/>
<use xlink:href="#surface62" mask="url(#mask19)"/>
<use xlink:href="#surface65" mask="url(#mask20)"/>
<use xlink:href="#surface68" mask="url(#mask21)"/>
<path style=" stroke:none;fill-rule:evenodd;fill:rgb(95.686275%,27.843137%,19.607843%);fill-opacity:1;" d="M 61.40625 43.28125 C 61.613281 43.28125 61.824219 43.28125 62.03125 43.28125 C 62.136719 43.59375 62.34375 43.800781 62.65625 43.90625 C 63.050781 44.820312 63.675781 45.550781 64.53125 46.09375 C 64.710938 46.796875 65.128906 47.316406 65.78125 47.65625 C 65.855469 48.25 66.167969 48.667969 66.71875 48.90625 C 66.695312 49.382812 66.90625 49.695312 67.34375 49.84375 C 67.761719 50.675781 68.175781 51.511719 68.59375 52.34375 C 62.515625 55.695312 56.265625 58.714844 49.84375 61.40625 C 48.371094 60.019531 46.863281 58.664062 45.3125 57.34375 C 45.160156 57.046875 45.109375 56.734375 45.15625 56.40625 C 46.824219 55.050781 48.488281 53.699219 50.15625 52.34375 C 52.335938 50.785156 54.421875 49.121094 56.40625 47.34375 C 58.261719 46.21875 59.929688 44.863281 61.40625 43.28125 Z M 61.40625 43.28125 "/>
<path style=" stroke:none;fill-rule:evenodd;fill:rgb(12.156863%,62.745098%,36.470588%);fill-opacity:1;" d="M 24.21875 44.53125 C 29.929688 50.386719 36.753906 54.554688 44.6875 57.03125 C 44.773438 56.746094 44.929688 56.535156 45.15625 56.40625 C 45.109375 56.734375 45.160156 57.046875 45.3125 57.34375 C 46.863281 58.664062 48.371094 60.019531 49.84375 61.40625 C 50.988281 62.449219 52.136719 63.488281 53.28125 64.53125 C 44.789062 63.734375 36.769531 61.179688 29.21875 56.875 C 27.476562 55.703125 25.707031 54.609375 23.90625 53.59375 C 23.699219 52.503906 23.59375 51.359375 23.59375 50.15625 C 23.554688 48.207031 23.765625 46.332031 24.21875 44.53125 Z M 24.21875 44.53125 "/>
<use xlink:href="#surface71" mask="url(#mask22)"/>
<use xlink:href="#surface74" mask="url(#mask23)"/>
<use xlink:href="#surface77" mask="url(#mask24)"/>
<path style=" stroke:none;fill-rule:evenodd;fill:rgb(96.078431%,32.54902%,24.705882%);fill-opacity:1;" d="M 68.59375 52.34375 C 69.011719 52.761719 69.425781 53.175781 69.84375 53.59375 C 70.105469 53.699219 70.210938 53.910156 70.15625 54.21875 C 70.132812 54.695312 70.34375 55.007812 70.78125 55.15625 C 71.253906 55.679688 71.566406 56.304688 71.71875 57.03125 C 71.769531 57.546875 71.976562 57.964844 72.34375 58.28125 C 72.605469 58.386719 72.710938 58.597656 72.65625 58.90625 C 72.65625 59.21875 72.65625 59.53125 72.65625 59.84375 C 67.449219 62.238281 62.238281 64.636719 57.03125 67.03125 C 55.695312 66.320312 54.445312 65.488281 53.28125 64.53125 C 52.136719 63.488281 50.988281 62.449219 49.84375 61.40625 C 56.265625 58.714844 62.515625 55.695312 68.59375 52.34375 Z M 68.59375 52.34375 "/>
<use xlink:href="#surface80" mask="url(#mask25)"/>
<use xlink:href="#surface83" mask="url(#mask26)"/>
<path style=" stroke:none;fill-rule:evenodd;fill:rgb(10.196078%,58.039216%,32.941176%);fill-opacity:1;" d="M 23.90625 53.59375 C 25.707031 54.609375 27.476562 55.703125 29.21875 56.875 C 36.769531 61.179688 44.789062 63.734375 53.28125 64.53125 C 54.445312 65.488281 55.695312 66.320312 57.03125 67.03125 C 59.546875 68.8125 62.257812 70.269531 65.15625 71.40625 C 51.53125 72.0625 38.613281 69.25 26.40625 62.96875 C 26.113281 62.484375 25.902344 61.964844 25.78125 61.40625 C 25.8125 60.765625 25.605469 60.242188 25.15625 59.84375 C 25.03125 58.511719 24.71875 57.261719 24.21875 56.09375 C 23.914062 55.328125 23.808594 54.496094 23.90625 53.59375 Z M 23.90625 53.59375 "/>
<use xlink:href="#surface86" mask="url(#mask27)"/>
<use xlink:href="#surface89" mask="url(#mask28)"/>
<use xlink:href="#surface92" mask="url(#mask29)"/>
<path style=" stroke:none;fill-rule:evenodd;fill:rgb(97.254902%,37.647059%,30.588235%);fill-opacity:1;" d="M 72.65625 58.90625 C 72.917969 59.011719 73.023438 59.222656 72.96875 59.53125 C 72.9375 60.171875 73.148438 60.695312 73.59375 61.09375 C 73.726562 62.320312 74.039062 63.464844 74.53125 64.53125 C 74.59375 66.421875 74.488281 68.296875 74.21875 70.15625 C 73.78125 70.304688 73.570312 70.617188 73.59375 71.09375 C 73.59375 71.300781 73.488281 71.40625 73.28125 71.40625 C 70.574219 72.636719 67.867188 72.636719 65.15625 71.40625 C 62.257812 70.269531 59.546875 68.8125 57.03125 67.03125 C 62.238281 64.636719 67.449219 62.238281 72.65625 59.84375 C 72.65625 59.53125 72.65625 59.21875 72.65625 58.90625 Z M 72.65625 58.90625 "/>
<path style=" stroke:none;fill-rule:evenodd;fill:rgb(10.196078%,54.117647%,30.588235%);fill-opacity:1;" d="M 26.40625 62.96875 C 38.613281 69.25 51.53125 72.0625 65.15625 71.40625 C 67.867188 72.636719 70.574219 72.636719 73.28125 71.40625 C 72.457031 72.125 71.621094 72.855469 70.78125 73.59375 C 70.304688 73.570312 69.992188 73.78125 69.84375 74.21875 C 69.367188 74.195312 69.054688 74.40625 68.90625 74.84375 C 67.703125 75.808594 66.351562 76.539062 64.84375 77.03125 C 64.53125 77.03125 64.21875 77.03125 63.90625 77.03125 C 59.300781 77.148438 54.71875 76.886719 50.15625 76.25 C 44.894531 75.351562 39.6875 74.257812 34.53125 72.96875 C 34.191406 72.316406 33.671875 71.898438 32.96875 71.71875 C 32.03125 70.988281 31.199219 70.15625 30.46875 69.21875 C 30.492188 68.742188 30.285156 68.429688 29.84375 68.28125 C 29.09375 67.71875 28.574219 66.992188 28.28125 66.09375 C 28.164062 65.230469 27.75 64.605469 27.03125 64.21875 C 26.664062 63.902344 26.457031 63.484375 26.40625 62.96875 Z M 26.40625 62.96875 "/>
<use xlink:href="#surface95" mask="url(#mask30)"/>
<use xlink:href="#surface98" mask="url(#mask31)"/>
<use xlink:href="#surface101" mask="url(#mask32)"/>
<use xlink:href="#surface104" mask="url(#mask33)"/>
<use xlink:href="#surface107" mask="url(#mask34)"/>
<use xlink:href="#surface110" mask="url(#mask35)"/>
<use xlink:href="#surface113" mask="url(#mask36)"/>
<use xlink:href="#surface116" mask="url(#mask37)"/>
<use xlink:href="#surface119" mask="url(#mask38)"/>
<use xlink:href="#surface122" mask="url(#mask39)"/>
<use xlink:href="#surface125" mask="url(#mask40)"/>
<use xlink:href="#surface128" mask="url(#mask41)"/>
<use xlink:href="#surface131" mask="url(#mask42)"/>
<use xlink:href="#surface134" mask="url(#mask43)"/>
</g>
</svg>
