<svg xmlns="http://www.w3.org/2000/svg" xmlns:xlink="http://www.w3.org/1999/xlink" width="30" height="30"><defs><clipPath id="b"><path d="M0 0h30v30H0z"/></clipPath><clipPath id="c"><path d="M0 0h30v30H0z"/></clipPath><clipPath id="d"><path d="M0 0h30v30H0z"/></clipPath><clipPath id="e"><path d="M0 0h30v30H0z"/></clipPath><clipPath id="f"><path d="M0 0h30v30H0z"/></clipPath><clipPath id="g"><path d="M0 0h30v30H0z"/></clipPath><clipPath id="h"><path d="M0 0h30v30H0z"/></clipPath><clipPath id="i"><path d="M0 0h30v30H0z"/></clipPath><clipPath id="j"><path d="M0 0h30v30H0z"/></clipPath><clipPath id="k"><path d="M0 0h30v30H0z"/></clipPath><clipPath id="l"><path d="M0 0h30v30H0z"/></clipPath><clipPath id="m"><path d="M0 0h30v30H0z"/></clipPath><clipPath id="n"><path d="M0 0h30v30H0z"/></clipPath><clipPath id="o"><path d="M0 0h30v30H0z"/></clipPath><clipPath id="p"><path d="M0 0h30v30H0z"/></clipPath><clipPath id="q"><path d="M0 0h30v30H0z"/></clipPath><clipPath id="r"><path d="M0 0h30v30H0z"/></clipPath><clipPath id="s"><path d="M0 0h30v30H0z"/></clipPath><clipPath id="t"><path d="M0 0h30v30H0z"/></clipPath><clipPath id="u"><path d="M0 0h30v30H0z"/></clipPath><clipPath id="v"><path d="M0 0h30v30H0z"/></clipPath><clipPath id="w"><path d="M0 0h30v30H0z"/></clipPath><clipPath id="x"><path d="M0 0h30v30H0z"/></clipPath><clipPath id="y"><path d="M0 0h30v30H0z"/></clipPath><clipPath id="z"><path d="M0 0h30v30H0z"/></clipPath><clipPath id="A"><path d="M0 0h30v30H0z"/></clipPath><clipPath id="B"><path d="M0 0h30v30H0z"/></clipPath><clipPath id="C"><path d="M0 0h30v30H0z"/></clipPath><clipPath id="D"><path d="M0 0h30v30H0z"/></clipPath><clipPath id="E"><path d="M0 0h30v30H0z"/></clipPath><clipPath id="F"><path d="M0 0h30v30H0z"/></clipPath><clipPath id="G"><path d="M0 0h30v30H0z"/></clipPath><clipPath id="H"><path d="M0 0h30v30H0z"/></clipPath><clipPath id="I"><path d="M0 0h30v30H0z"/></clipPath><clipPath id="J"><path d="M0 0h30v30H0z"/></clipPath><clipPath id="K"><path d="M0 0h30v30H0z"/></clipPath><clipPath id="L"><path d="M0 0h30v30H0z"/></clipPath><clipPath id="M"><path d="M0 0h30v30H0z"/></clipPath><clipPath id="N"><path d="M0 0h30v30H0z"/></clipPath><clipPath id="O"><path d="M0 0h30v30H0z"/></clipPath><clipPath id="P"><path d="M0 0h30v30H0z"/></clipPath><clipPath id="Q"><path d="M0 0h30v30H0z"/></clipPath><clipPath id="R"><path d="M0 0h30v30H0z"/></clipPath><clipPath id="S"><path d="M0 0h30v30H0z"/></clipPath><mask id="U"><g filter="url(#a)"><path style="fill:#000;fill-opacity:.576471;stroke:none" d="M0 0h30v30H0z"/></g></mask><mask id="W"><g filter="url(#a)"><path style="fill:#000;fill-opacity:.0627451;stroke:none" d="M0 0h30v30H0z"/></g></mask><mask id="Y"><g filter="url(#a)"><path style="fill:#000;fill-opacity:.996078;stroke:none" d="M0 0h30v30H0z"/></g></mask><mask id="aa"><g filter="url(#a)"><path style="fill:#000;fill-opacity:.568627;stroke:none" d="M0 0h30v30H0z"/></g></mask><mask id="ac"><g filter="url(#a)"><path style="fill:#000;fill-opacity:.533333;stroke:none" d="M0 0h30v30H0z"/></g></mask><mask id="ae"><g filter="url(#a)"><path style="fill:#000;fill-opacity:.729412;stroke:none" d="M0 0h30v30H0z"/></g></mask><mask id="ag"><g filter="url(#a)"><path style="fill:#000;fill-opacity:.0941176;stroke:none" d="M0 0h30v30H0z"/></g></mask><mask id="ai"><g filter="url(#a)"><path style="fill:#000;fill-opacity:.666667;stroke:none" d="M0 0h30v30H0z"/></g></mask><mask id="ak"><g filter="url(#a)"><path style="fill:#000;fill-opacity:.568627;stroke:none" d="M0 0h30v30H0z"/></g></mask><mask id="am"><g filter="url(#a)"><path style="fill:#000;fill-opacity:.462745;stroke:none" d="M0 0h30v30H0z"/></g></mask><mask id="ao"><g filter="url(#a)"><path style="fill:#000;fill-opacity:.113725;stroke:none" d="M0 0h30v30H0z"/></g></mask><mask id="aq"><g filter="url(#a)"><path style="fill:#000;fill-opacity:.329412;stroke:none" d="M0 0h30v30H0z"/></g></mask><mask id="as"><g filter="url(#a)"><path style="fill:#000;fill-opacity:.117647;stroke:none" d="M0 0h30v30H0z"/></g></mask><mask id="au"><g filter="url(#a)"><path style="fill:#000;fill-opacity:.0705882;stroke:none" d="M0 0h30v30H0z"/></g></mask><mask id="aw"><g filter="url(#a)"><path style="fill:#000;fill-opacity:.639216;stroke:none" d="M0 0h30v30H0z"/></g></mask><mask id="ay"><g filter="url(#a)"><path style="fill:#000;fill-opacity:.996078;stroke:none" d="M0 0h30v30H0z"/></g></mask><mask id="aA"><g filter="url(#a)"><path style="fill:#000;fill-opacity:.0705882;stroke:none" d="M0 0h30v30H0z"/></g></mask><mask id="aC"><g filter="url(#a)"><path style="fill:#000;fill-opacity:.121569;stroke:none" d="M0 0h30v30H0z"/></g></mask><mask id="aE"><g filter="url(#a)"><path style="fill:#000;fill-opacity:.317647;stroke:none" d="M0 0h30v30H0z"/></g></mask><mask id="aG"><g filter="url(#a)"><path style="fill:#000;fill-opacity:.490196;stroke:none" d="M0 0h30v30H0z"/></g></mask><mask id="aI"><g filter="url(#a)"><path style="fill:#000;fill-opacity:.168627;stroke:none" d="M0 0h30v30H0z"/></g></mask><mask id="aK"><g filter="url(#a)"><path style="fill:#000;fill-opacity:.447059;stroke:none" d="M0 0h30v30H0z"/></g></mask><mask id="aM"><g filter="url(#a)"><path style="fill:#000;fill-opacity:.345098;stroke:none" d="M0 0h30v30H0z"/></g></mask><mask id="aO"><g filter="url(#a)"><path style="fill:#000;fill-opacity:.160784;stroke:none" d="M0 0h30v30H0z"/></g></mask><mask id="aQ"><g filter="url(#a)"><path style="fill:#000;fill-opacity:.329412;stroke:none" d="M0 0h30v30H0z"/></g></mask><mask id="aS"><g filter="url(#a)"><path style="fill:#000;fill-opacity:.027451;stroke:none" d="M0 0h30v30H0z"/></g></mask><mask id="aU"><g filter="url(#a)"><path style="fill:#000;fill-opacity:.101961;stroke:none" d="M0 0h30v30H0z"/></g></mask><mask id="aW"><g filter="url(#a)"><path style="fill:#000;fill-opacity:.0784314;stroke:none" d="M0 0h30v30H0z"/></g></mask><mask id="aY"><g filter="url(#a)"><path style="fill:#000;fill-opacity:.231373;stroke:none" d="M0 0h30v30H0z"/></g></mask><mask id="ba"><g filter="url(#a)"><path style="fill:#000;fill-opacity:.65098;stroke:none" d="M0 0h30v30H0z"/></g></mask><mask id="bc"><g filter="url(#a)"><path style="fill:#000;fill-opacity:.705882;stroke:none" d="M0 0h30v30H0z"/></g></mask><mask id="be"><g filter="url(#a)"><path style="fill:#000;fill-opacity:.65098;stroke:none" d="M0 0h30v30H0z"/></g></mask><mask id="bg"><g filter="url(#a)"><path style="fill:#000;fill-opacity:.0745098;stroke:none" d="M0 0h30v30H0z"/></g></mask><mask id="bi"><g filter="url(#a)"><path style="fill:#000;fill-opacity:.0823529;stroke:none" d="M0 0h30v30H0z"/></g></mask><mask id="bk"><g filter="url(#a)"><path style="fill:#000;fill-opacity:.647059;stroke:none" d="M0 0h30v30H0z"/></g></mask><mask id="bm"><g filter="url(#a)"><path style="fill:#000;fill-opacity:.345098;stroke:none" d="M0 0h30v30H0z"/></g></mask><mask id="bo"><g filter="url(#a)"><path style="fill:#000;fill-opacity:.0392157;stroke:none" d="M0 0h30v30H0z"/></g></mask><mask id="bq"><g filter="url(#a)"><path style="fill:#000;fill-opacity:.992157;stroke:none" d="M0 0h30v30H0z"/></g></mask><mask id="bs"><g filter="url(#a)"><path style="fill:#000;fill-opacity:.34902;stroke:none" d="M0 0h30v30H0z"/></g></mask><mask id="bu"><g filter="url(#a)"><path style="fill:#000;fill-opacity:.0509804;stroke:none" d="M0 0h30v30H0z"/></g></mask><mask id="bw"><g filter="url(#a)"><path style="fill:#000;fill-opacity:.290196;stroke:none" d="M0 0h30v30H0z"/></g></mask><mask id="by"><g filter="url(#a)"><path style="fill:#000;fill-opacity:.0784314;stroke:none" d="M0 0h30v30H0z"/></g></mask><mask id="bA"><g filter="url(#a)"><path style="fill:#000;fill-opacity:.0666667;stroke:none" d="M0 0h30v30H0z"/></g></mask><mask id="bC"><g filter="url(#a)"><path style="fill:#000;fill-opacity:.376471;stroke:none" d="M0 0h30v30H0z"/></g></mask><g id="T" clip-path="url(#b)"><path style="stroke:none;fill-rule:evenodd;fill:#628d96;fill-opacity:1" d="M14.203 6.422c-.226.117-.476.18-.75.187.219-.144.469-.207.75-.187Zm0 0"/></g><g id="V" clip-path="url(#c)"><path style="stroke:none;fill-rule:evenodd;fill:#707b9d;fill-opacity:1" d="M17.953 6.516c.25-.008.469.054.656.187a1.047 1.047 0 0 1-.656-.187Zm0 0"/></g><g id="X" clip-path="url(#d)"><path style="stroke:none;fill-rule:evenodd;fill:#2ccd7b;fill-opacity:1" d="M15.047 6.328a15.8 15.8 0 0 1-.563.188c-.332 1.101-.082 2.054.75 2.859 2.02 1.48 4.082 1.543 6.188.188.285-.204.473-.47.562-.797h.094c.024.18.117.304.281.375.055.293-.039.511-.28.656a.445.445 0 0 0-.282.375 2.403 2.403 0 0 1-.563.562.445.445 0 0 0-.375.282c-.187.25-.406.468-.656.656-.144-.008-.238.055-.281.187a1.077 1.077 0 0 1-.375.375c-.145-.007-.238.055-.281.188a.613.613 0 0 1-.282.281.445.445 0 0 0-.375.281h-.187c-2.531-.007-4.64-.945-6.328-2.812a4.722 4.722 0 0 1-.985-2.438v-.093c.032-.079.094-.11.188-.094.144.008.238-.055.281-.188.305-.23.649-.386 1.031-.468.317-.02.598-.114.844-.282.274-.007.524-.07.75-.187.27-.086.55-.117.844-.094Zm0 0"/></g><g id="Z" clip-path="url(#e)"><path style="stroke:none;fill-rule:evenodd;fill:#629294;fill-opacity:1" d="M13.453 6.61a1.647 1.647 0 0 1-.844.28c.243-.183.524-.277.844-.28Zm0 0"/></g><g id="ab" clip-path="url(#f)"><path style="stroke:none;fill-rule:evenodd;fill:#658696;fill-opacity:1" d="M11.578 7.36c-.043.132-.137.195-.281.187.043-.133.137-.195.281-.188Zm0 0"/></g><g id="ad" clip-path="url(#g)"><path style="stroke:none;fill-rule:evenodd;fill:#599b8c;fill-opacity:1" d="M11.11 7.64v.094a1.11 1.11 0 0 1-.47.282.708.708 0 0 1 .47-.375Zm0 0"/></g><g id="af" clip-path="url(#h)"><path style="stroke:none;fill-rule:evenodd;fill:#6f7a9d;fill-opacity:1" d="M21.797 8.578c.144-.008.238.055.281.188h-.094a.282.282 0 0 1-.187-.188Zm0 0"/></g><g id="ah" clip-path="url(#i)"><path style="stroke:none;fill-rule:evenodd;fill:#59968a;fill-opacity:1" d="M10.266 8.297a4.26 4.26 0 0 1-.75.75h-.094c.226-.32.508-.57.844-.75Zm0 0"/></g><g id="aj" clip-path="url(#j)"><path style="stroke:none;fill-rule:evenodd;fill:#678997;fill-opacity:1" d="M22.078 8.766c.164.07.258.195.281.375a.445.445 0 0 1-.28-.375Zm0 0"/></g><g id="al" clip-path="url(#k)"><path style="stroke:none;fill-rule:evenodd;fill:#667f95;fill-opacity:1" d="M8.953 9.61a.445.445 0 0 1-.281.374.445.445 0 0 1 .281-.375Zm0 0"/></g><g id="an" clip-path="url(#l)"><path style="stroke:none;fill-rule:evenodd;fill:#72729f;fill-opacity:1" d="M22.078 9.797a.445.445 0 0 1-.281.375.445.445 0 0 1 .281-.375Zm0 0"/></g><g id="ap" clip-path="url(#m)"><path style="stroke:none;fill-rule:evenodd;fill:#657b93;fill-opacity:1" d="M8.39 10.453c.008.145-.054.238-.187.281-.008-.144.055-.238.188-.28Zm0 0"/></g><g id="ar" clip-path="url(#n)"><path style="stroke:none;fill-rule:evenodd;fill:#71749e;fill-opacity:1" d="M21.234 10.734a.445.445 0 0 1-.375.282.445.445 0 0 1 .375-.282Zm0 0"/></g><g id="at" clip-path="url(#o)"><path style="stroke:none;fill-rule:evenodd;fill:#73709e;fill-opacity:1" d="M20.203 11.672c-.043.133-.137.195-.281.187.043-.132.137-.195.281-.187Zm0 0"/></g><g id="av" clip-path="url(#p)"><path style="stroke:none;fill-rule:evenodd;fill:#5a8488;fill-opacity:1" d="M7.64 11.953c.008.25-.054.469-.187.656-.008-.25.055-.468.188-.656Zm0 0"/></g><g id="ax" clip-path="url(#q)"><path style="stroke:none;fill-rule:evenodd;fill:#20ae65;fill-opacity:1" d="M8.11 10.922a.442.442 0 0 0 .046.281c1.758 2.309 4.055 3.809 6.89 4.5l-1.5 1.219a.319.319 0 0 0-.14.187c-2.379-.742-4.426-1.992-6.14-3.75v-.093c.132-.188.195-.407.187-.657.133-.187.195-.406.188-.656.101-.375.257-.719.468-1.031Zm0 0"/></g><g id="az" clip-path="url(#r)"><path style="stroke:none;fill-rule:evenodd;fill:#73709e;fill-opacity:1" d="M19.547 12.234c-.043.133-.137.196-.281.188.043-.133.136-.195.28-.188Zm0 0"/></g><g id="aB" clip-path="url(#s)"><path style="stroke:none;fill-rule:evenodd;fill:#766e9b;fill-opacity:1" d="M18.984 12.703a.558.558 0 0 0-.187.469.282.282 0 0 1-.188-.188.445.445 0 0 1 .375-.28Zm0 0"/></g><g id="aD" clip-path="url(#t)"><path style="stroke:none;fill-rule:evenodd;fill:#5d7e8b;fill-opacity:1" d="M7.453 12.61c.008.25-.055.468-.187.656-.008-.25.054-.47.187-.657Zm0 0"/></g><g id="aF" clip-path="url(#u)"><path style="stroke:none;fill-rule:evenodd;fill:#8a688a;fill-opacity:1" d="M18.797 13.172c.258.164.445.383.562.656a1.433 1.433 0 0 1-.562-.656Zm0 0"/></g><g id="aH" clip-path="url(#v)"><path style="stroke:none;fill-rule:evenodd;fill:#816895;fill-opacity:1" d="M19.36 13.828c.195.102.32.258.374.469a.708.708 0 0 1-.375-.469Zm0 0"/></g><g id="aJ" clip-path="url(#w)"><path style="stroke:none;fill-rule:evenodd;fill:#836a8f;fill-opacity:1" d="M19.734 14.297c.164.07.258.195.282.375a.445.445 0 0 1-.282-.375Zm0 0"/></g><g id="aL" clip-path="url(#x)"><path style="stroke:none;fill-rule:evenodd;fill:#806994;fill-opacity:1" d="M20.016 14.672c.132.043.195.137.187.281-.133-.043-.195-.137-.187-.281Zm0 0"/></g><g id="aN" clip-path="url(#y)"><path style="stroke:none;fill-rule:evenodd;fill:#836893;fill-opacity:1" d="M20.203 14.953c.344.309.594.684.75 1.125l-.375-.375-.375-.75Zm0 0"/></g><g id="aP" clip-path="url(#z)"><path style="stroke:none;fill-rule:evenodd;fill:#826991;fill-opacity:1" d="M21.047 16.266c.133.043.195.136.187.28-.132-.042-.195-.136-.187-.28Zm0 0"/></g><g id="aR" clip-path="url(#A)"><path style="stroke:none;fill-rule:evenodd;fill:#6c6d97;fill-opacity:1" d="M7.266 16.828c.148.352.242.727.28 1.125a2.498 2.498 0 0 1-.28-1.125Zm0 0"/></g><g id="aT" clip-path="url(#B)"><path style="stroke:none;fill-rule:evenodd;fill:#846991;fill-opacity:1" d="M21.516 17.11c.148.074.214.199.187.374a.545.545 0 0 1-.187-.375Zm0 0"/></g><g id="aV" clip-path="url(#C)"><path style="stroke:none;fill-rule:evenodd;fill:#7f6898;fill-opacity:1" d="M21.89 17.86a.571.571 0 0 1 .188.468.571.571 0 0 1-.187-.469Zm0 0"/></g><g id="aX" clip-path="url(#D)"><path style="stroke:none;fill-rule:evenodd;fill:#6d6a97;fill-opacity:1" d="M7.547 17.953a.571.571 0 0 1 .187.469.571.571 0 0 1-.187-.469Zm0 0"/></g><g id="aZ" clip-path="url(#E)"><path style="stroke:none;fill-rule:evenodd;fill:#936b83;fill-opacity:1" d="M22.078 18.328c.188.309.281.652.281 1.031a3.253 3.253 0 0 1-.28-1.03Zm0 0"/></g><g id="bb" clip-path="url(#F)"><path style="stroke:none;fill-rule:evenodd;fill:#5b7683;fill-opacity:1" d="M8.11 19.266c.214.117.34.304.374.562a1.324 1.324 0 0 1-.375-.562Zm0 0"/></g><g id="bd" clip-path="url(#G)"><path style="stroke:none;fill-rule:evenodd;fill:#936e7c;fill-opacity:1" d="M22.36 19.36c.109.484.124.984.046 1.5a.319.319 0 0 1-.14.187 9.369 9.369 0 0 0 .093-1.688Zm0 0"/></g><g id="bf" clip-path="url(#H)"><path style="stroke:none;fill-rule:evenodd;fill:#6c6a96;fill-opacity:1" d="M8.953 20.484c.133.043.195.137.188.282-.133-.043-.196-.137-.188-.282Zm0 0"/></g><g id="bh" clip-path="url(#I)"><path style="stroke:none;fill-rule:evenodd;fill:#856993;fill-opacity:1" d="M22.266 21.047c.007.144-.055.238-.188.281-.008-.144.055-.238.188-.281Zm0 0"/></g><g id="bj" clip-path="url(#J)"><path style="stroke:none;fill-rule:evenodd;fill:#57737f;fill-opacity:1" d="M9.89 21.516c.212.054.368.18.47.375a.708.708 0 0 1-.47-.375Zm0 0"/></g><g id="bl" clip-path="url(#K)"><path style="stroke:none;fill-rule:evenodd;fill:#636c8e;fill-opacity:1" d="M10.547 22.078c.144-.008.238.055.281.188-.144.007-.238-.055-.281-.188Zm0 0"/></g><g id="bn" clip-path="url(#L)"><path style="stroke:none;fill-rule:evenodd;fill:#75679f;fill-opacity:1" d="M21.234 22.078c-.043.133-.136.195-.28.188.042-.133.136-.196.28-.188Zm0 0"/></g><g id="bp" clip-path="url(#M)"><path style="stroke:none;fill-rule:evenodd;fill:#247f4e;fill-opacity:1" d="M10.36 21.89c1.546.387 3.109.715 4.687.985a25.1 25.1 0 0 0 4.125.234l-.188.188a8.926 8.926 0 0 1-4.875.375 1.175 1.175 0 0 0-.75-.188 2.9 2.9 0 0 1-1.218-.468.545.545 0 0 0-.375-.188.545.545 0 0 1-.375-.187c-.043-.133-.137-.196-.282-.188-.043-.133-.136-.195-.28-.187-.044-.133-.138-.196-.282-.188a.282.282 0 0 1-.188-.187Zm0 0"/></g><g id="br" clip-path="url(#N)"><path style="stroke:none;fill-rule:evenodd;fill:#626d8c;fill-opacity:1" d="M10.828 22.266c.145-.008.238.054.281.187-.144.008-.238-.055-.28-.187Zm0 0"/></g><g id="bt" clip-path="url(#O)"><path style="stroke:none;fill-rule:evenodd;fill:#73689c;fill-opacity:1" d="M20.953 22.266c-.043.132-.137.195-.281.187.043-.133.137-.195.281-.187Zm0 0"/></g><g id="bv" clip-path="url(#P)"><path style="stroke:none;fill-rule:evenodd;fill:#686b92;fill-opacity:1" d="M11.11 22.453c.144-.008.238.055.28.188-.144.007-.238-.055-.28-.188Zm0 0"/></g><g id="bx" clip-path="url(#Q)"><path style="stroke:none;fill-rule:evenodd;fill:#6a6b93;fill-opacity:1" d="M11.766 22.828a.545.545 0 0 1 .375.188c-.176.027-.301-.04-.375-.188Zm0 0"/></g><g id="bz" clip-path="url(#R)"><path style="stroke:none;fill-rule:evenodd;fill:#6f6999;fill-opacity:1" d="M19.172 23.11h.281a.571.571 0 0 1-.469.187l.188-.188Zm0 0"/></g><g id="bB" clip-path="url(#S)"><path style="stroke:none;fill-rule:evenodd;fill:#5c7085;fill-opacity:1" d="M13.36 23.484c.28-.02.53.043.75.188a1.717 1.717 0 0 1-.75-.188Zm0 0"/></g><filter id="a" filterUnits="objectBoundingBox" x="0%" y="0%" width="100%" height="100%"><feColorMatrix in="SourceGraphic" values="0 0 0 0 1 0 0 0 0 1 0 0 0 0 1 0 0 0 1 0"/></filter></defs><path style="stroke:none;fill-rule:evenodd;fill:#30d682;fill-opacity:1" d="M17.953 6.516c.188.132.406.195.656.187 1.239.336 2.301.961 3.188 1.875a.282.282 0 0 0 .187.188c-.09.328-.277.593-.562.796-2.106 1.356-4.168 1.293-6.188-.187-.832-.805-1.082-1.758-.75-2.86.2-.062.387-.124.563-.187a7.424 7.424 0 0 1 2.906.188Zm0 0"/><use xlink:href="#T" mask="url(#U)"/><use xlink:href="#V" mask="url(#W)"/><use xlink:href="#X" mask="url(#Y)"/><use xlink:href="#Z" mask="url(#aa)"/><use xlink:href="#ab" mask="url(#ac)"/><path style="stroke:none;fill-rule:evenodd;fill:#25c273;fill-opacity:1" d="M11.11 7.734c.097.907.425 1.72.984 2.438 1.687 1.867 3.797 2.805 6.328 2.812a7.069 7.069 0 0 1-1.5 1.22c-3-.321-5.328-1.727-6.985-4.22-.148-.312-.289-.625-.421-.937a4.26 4.26 0 0 0 .75-.75.445.445 0 0 1 .375-.281 1.11 1.11 0 0 0 .468-.282Zm0 0"/><use xlink:href="#ad" mask="url(#ae)"/><use xlink:href="#af" mask="url(#ag)"/><use xlink:href="#ah" mask="url(#ai)"/><use xlink:href="#aj" mask="url(#ak)"/><path style="stroke:none;fill-rule:evenodd;fill:#24b86d;fill-opacity:1" d="M9.422 9.047h.094c.132.312.273.625.421.937 1.657 2.493 3.985 3.899 6.985 4.22a21.894 21.894 0 0 1-1.875 1.5c-2.836-.692-5.133-2.192-6.89-4.5a.442.442 0 0 1-.048-.282c-.015-.094.016-.156.094-.188.133-.043.195-.136.188-.28.058-.18.152-.337.28-.47a.445.445 0 0 0 .282-.375c.113-.226.27-.414.469-.562Zm0 0"/><use xlink:href="#al" mask="url(#am)"/><use xlink:href="#an" mask="url(#ao)"/><use xlink:href="#ap" mask="url(#aq)"/><use xlink:href="#ar" mask="url(#as)"/><use xlink:href="#at" mask="url(#au)"/><use xlink:href="#av" mask="url(#aw)"/><use xlink:href="#ax" mask="url(#ay)"/><use xlink:href="#az" mask="url(#aA)"/><use xlink:href="#aB" mask="url(#aC)"/><use xlink:href="#aD" mask="url(#aE)"/><use xlink:href="#aF" mask="url(#aG)"/><use xlink:href="#aH" mask="url(#aI)"/><use xlink:href="#aJ" mask="url(#aK)"/><path style="stroke:none;fill-rule:evenodd;fill:#f44732;fill-opacity:1" d="M18.422 12.984h.187a.282.282 0 0 0 .188.188c.117.273.305.492.562.656.055.211.18.367.375.469.024.18.118.305.282.375-.008.144.054.238.187.281l.375.75a59.169 59.169 0 0 1-5.625 2.719 33.577 33.577 0 0 0-1.36-1.219.442.442 0 0 1-.046-.281l1.5-1.219a21.894 21.894 0 0 0 1.875-1.5 7.069 7.069 0 0 0 1.5-1.219Zm0 0"/><path style="stroke:none;fill-rule:evenodd;fill:#1fa05d;fill-opacity:1" d="M7.266 13.36c1.714 1.757 3.761 3.007 6.14 3.75a.319.319 0 0 1 .14-.188.442.442 0 0 0 .048.281c.465.395.918.8 1.36 1.219l1.03.937a17.748 17.748 0 0 1-7.218-2.297 24.33 24.33 0 0 0-1.594-.984 5.503 5.503 0 0 1-.094-1.031 6.32 6.32 0 0 1 .188-1.688Zm0 0"/><use xlink:href="#aL" mask="url(#aM)"/><use xlink:href="#aN" mask="url(#aO)"/><use xlink:href="#aP" mask="url(#aQ)"/><path style="stroke:none;fill-rule:evenodd;fill:#f5533f;fill-opacity:1" d="m20.578 15.703.375.375c.078.031.11.094.094.188-.008.144.055.238.187.28a1.2 1.2 0 0 1 .282.563.545.545 0 0 0 .187.375c.078.032.11.094.094.188v.281l-4.688 2.156a6.876 6.876 0 0 1-1.125-.75l-1.03-.937a59.169 59.169 0 0 0 5.624-2.719Zm0 0"/><use xlink:href="#aR" mask="url(#aS)"/><use xlink:href="#aT" mask="url(#aU)"/><path style="stroke:none;fill-rule:evenodd;fill:#1a9454;fill-opacity:1" d="M7.172 16.078c.539.305 1.07.633 1.594.985a17.748 17.748 0 0 0 7.218 2.296c.348.286.723.536 1.125.75a11.27 11.27 0 0 0 2.438 1.313c-4.09.195-7.965-.649-11.625-2.531a1.44 1.44 0 0 1-.188-.47.571.571 0 0 0-.187-.468 3.837 3.837 0 0 0-.281-1.125c-.09-.23-.121-.48-.094-.75Zm0 0"/><use xlink:href="#aV" mask="url(#aW)"/><use xlink:href="#aX" mask="url(#aY)"/><use xlink:href="#aZ" mask="url(#ba)"/><path style="stroke:none;fill-rule:evenodd;fill:#f8604e;fill-opacity:1" d="M21.797 17.672c.078.031.11.094.094.187a.571.571 0 0 0 .187.47c.04.366.133.71.281 1.03a9.369 9.369 0 0 1-.093 1.688c-.133.043-.196.137-.188.281 0 .063-.031.094-.094.094-.812.371-1.625.371-2.437 0a11.27 11.27 0 0 1-2.438-1.313l4.688-2.156v-.281Zm0 0"/><path style="stroke:none;fill-rule:evenodd;fill:#1a8a4e;fill-opacity:1" d="M7.922 18.89c3.66 1.883 7.535 2.727 11.625 2.532.812.371 1.625.371 2.437 0l-.75.656c-.144-.008-.238.055-.28.188-.145-.008-.24.054-.282.187-.36.29-.766.508-1.219.656h-.281a25.1 25.1 0 0 1-4.125-.234 63.166 63.166 0 0 1-4.688-.984.708.708 0 0 0-.468-.375 4.26 4.26 0 0 1-.75-.75c.007-.145-.055-.239-.188-.282a1.282 1.282 0 0 1-.469-.656.712.712 0 0 0-.375-.562.545.545 0 0 1-.187-.375Zm0 0"/><use xlink:href="#bb" mask="url(#bc)"/><use xlink:href="#bd" mask="url(#be)"/><use xlink:href="#bf" mask="url(#bg)"/><use xlink:href="#bh" mask="url(#bi)"/><use xlink:href="#bj" mask="url(#bk)"/><use xlink:href="#bl" mask="url(#bm)"/><use xlink:href="#bn" mask="url(#bo)"/><use xlink:href="#bp" mask="url(#bq)"/><use xlink:href="#br" mask="url(#bs)"/><use xlink:href="#bt" mask="url(#bu)"/><use xlink:href="#bv" mask="url(#bw)"/><use xlink:href="#bx" mask="url(#by)"/><use xlink:href="#bz" mask="url(#bA)"/><use xlink:href="#bB" mask="url(#bC)"/></svg> 21.046875 Z M 22.265625 21.046875 "/>
</g>
<mask id="mask34">
  <g filter="url(#alpha)">
<rect x="0" y="0" width="30" height="30" style="fill:rgb(0%,0%,0%);fill-opacity:0.647059;stroke:none;"/>
  </g>
</mask>
<clipPath id="clip35">
  <rect x="0" y="0" width="30" height="30"/>
</clipPath>
<g id="surface107" clip-path="url(#clip35)">
<path style=" stroke:none;fill-rule:evenodd;fill:rgb(34.117647%,45.098039%,49.803922%);fill-opacity:1;" d="M 9.890625 21.515625 C 10.101562 21.570312 10.257812 21.695312 10.359375 21.890625 C 10.148438 21.835938 9.992188 21.710938 9.890625 21.515625 Z M 9.890625 21.515625 "/>
</g>
<mask id="mask35">
  <g filter="url(#alpha)">
<rect x="0" y="0" width="30" height="30" style="fill:rgb(0%,0%,0%);fill-opacity:0.345098;stroke:none;"/>
  </g>
</mask>
<clipPath id="clip36">
  <rect x="0" y="0" width="30" height="30"/>
</clipPath>
<g id="surface110" clip-path="url(#clip36)">
<path style=" stroke:none;fill-rule:evenodd;fill:rgb(38.823529%,42.352941%,55.686275%);fill-opacity:1;" d="M 10.546875 22.078125 C 10.691406 22.070312 10.785156 22.132812 10.828125 22.265625 C 10.683594 22.273438 10.589844 22.210938 10.546875 22.078125 Z M 10.546875 22.078125 "/>
</g>
<mask id="mask36">
  <g filter="url(#alpha)">
<rect x="0" y="0" width="30" height="30" style="fill:rgb(0%,0%,0%);fill-opacity:0.0392157;stroke:none;"/>
  </g>
</mask>
<clipPath id="clip37">
  <rect x="0" y="0" width="30" height="30"/>
</clipPath>
<g id="surface113" clip-path="url(#clip37)">
<path style=" stroke:none;fill-rule:evenodd;fill:rgb(45.882353%,40.392157%,62.352941%);fill-opacity:1;" d="M 21.234375 22.078125 C 21.191406 22.210938 21.097656 22.273438 20.953125 22.265625 C 20.996094 22.132812 21.089844 22.070312 21.234375 22.078125 Z M 21.234375 22.078125 "/>
</g>
<mask id="mask37">
  <g filter="url(#alpha)">
<rect x="0" y="0" width="30" height="30" style="fill:rgb(0%,0%,0%);fill-opacity:0.992157;stroke:none;"/>
  </g>
</mask>
<clipPath id="clip38">
  <rect x="0" y="0" width="30" height="30"/>
</clipPath>
<g id="surface116" clip-path="url(#clip38)">
<path style=" stroke:none;fill-rule:evenodd;fill:rgb(14.117647%,49.803922%,30.588235%);fill-opacity:1;" d="M 10.359375 21.890625 C 11.90625 22.277344 13.46875 22.605469 15.046875 22.875 C 16.414062 23.066406 17.789062 23.144531 19.171875 23.109375 C 19.109375 23.171875 19.046875 23.234375 18.984375 23.296875 C 17.402344 23.875 15.777344 24 14.109375 23.671875 C 13.890625 23.527344 13.640625 23.464844 13.359375 23.484375 C 12.910156 23.417969 12.503906 23.261719 12.140625 23.015625 C 12.046875 22.90625 11.921875 22.84375 11.765625 22.828125 C 11.609375 22.8125 11.484375 22.75 11.390625 22.640625 C 11.347656 22.507812 11.253906 22.445312 11.109375 22.453125 C 11.066406 22.320312 10.972656 22.257812 10.828125 22.265625 C 10.785156 22.132812 10.691406 22.070312 10.546875 22.078125 C 10.453125 22.046875 10.390625 21.984375 10.359375 21.890625 Z M 10.359375 21.890625 "/>
</g>
<mask id="mask38">
  <g filter="url(#alpha)">
<rect x="0" y="0" width="30" height="30" style="fill:rgb(0%,0%,0%);fill-opacity:0.34902;stroke:none;"/>
  </g>
</mask>
<clipPath id="clip39">
  <rect x="0" y="0" width="30" height="30"/>
</clipPath>
<g id="surface119" clip-path="url(#clip39)">
<path style=" stroke:none;fill-rule:evenodd;fill:rgb(38.431373%,42.745098%,54.901961%);fill-opacity:1;" d="M 10.828125 22.265625 C 10.972656 22.257812 11.066406 22.320312 11.109375 22.453125 C 10.964844 22.460938 10.871094 22.398438 10.828125 22.265625 Z M 10.828125 22.265625 "/>
</g>
<mask id="mask39">
  <g filter="url(#alpha)">
<rect x="0" y="0" width="30" height="30" style="fill:rgb(0%,0%,0%);fill-opacity:0.0509804;stroke:none;"/>
  </g>
</mask>
<clipPath id="clip40">
  <rect x="0" y="0" width="30" height="30"/>
</clipPath>
<g id="surface122" clip-path="url(#clip40)">
<path style=" stroke:none;fill-rule:evenodd;fill:rgb(45.098039%,40.784314%,61.176471%);fill-opacity:1;" d="M 20.953125 22.265625 C 20.910156 22.398438 20.816406 22.460938 20.671875 22.453125 C 20.714844 22.320312 20.808594 22.257812 20.953125 22.265625 Z M 20.953125 22.265625 "/>
</g>
<mask id="mask40">
  <g filter="url(#alpha)">
<rect x="0" y="0" width="30" height="30" style="fill:rgb(0%,0%,0%);fill-opacity:0.290196;stroke:none;"/>
  </g>
</mask>
<clipPath id="clip41">
  <rect x="0" y="0" width="30" height="30"/>
</clipPath>
<g id="surface125" clip-path="url(#clip41)">
<path style=" stroke:none;fill-rule:evenodd;fill:rgb(40.784314%,41.960784%,57.254902%);fill-opacity:1;" d="M 11.109375 22.453125 C 11.253906 22.445312 11.347656 22.507812 11.390625 22.640625 C 11.246094 22.648438 11.152344 22.585938 11.109375 22.453125 Z M 11.109375 22.453125 "/>
</g>
<mask id="mask41">
  <g filter="url(#alpha)">
<rect x="0" y="0" width="30" height="30" style="fill:rgb(0%,0%,0%);fill-opacity:0.0784314;stroke:none;"/>
  </g>
</mask>
<clipPath id="clip42">
  <rect x="0" y="0" width="30" height="30"/>
</clipPath>
<g id="surface128" clip-path="url(#clip42)">
<path style=" stroke:none;fill-rule:evenodd;fill:rgb(41.568627%,41.960784%,57.647059%);fill-opacity:1;" d="M 11.765625 22.828125 C 11.921875 22.84375 12.046875 22.90625 12.140625 23.015625 C 11.964844 23.042969 11.839844 22.976562 11.765625 22.828125 Z M 11.765625 22.828125 "/>
</g>
<mask id="mask42">
  <g filter="url(#alpha)">
<rect x="0" y="0" width="30" height="30" style="fill:rgb(0%,0%,0%);fill-opacity:0.0666667;stroke:none;"/>
  </g>
</mask>
<clipPath id="clip43">
  <rect x="0" y="0" width="30" height="30"/>
</clipPath>
<g id="surface131" clip-path="url(#clip43)">
<path style=" stroke:none;fill-rule:evenodd;fill:rgb(43.529412%,41.176471%,60%);fill-opacity:1;" d="M 19.171875 23.109375 C 19.265625 23.109375 19.359375 23.109375 19.453125 23.109375 C 19.332031 23.242188 19.175781 23.304688 18.984375 23.296875 C 19.046875 23.234375 19.109375 23.171875 19.171875 23.109375 Z M 19.171875 23.109375 "/>
</g>
<mask id="mask43">
  <g filter="url(#alpha)">
<rect x="0" y="0" width="30" height="30" style="fill:rgb(0%,0%,0%);fill-opacity:0.376471;stroke:none;"/>
  </g>
</mask>
<clipPath id="clip44">
  <rect x="0" y="0" width="30" height="30"/>
</clipPath>
<g id="surface134" clip-path="url(#clip44)">
<path style=" stroke:none;fill-rule:evenodd;fill:rgb(36.078431%,43.921569%,52.156863%);fill-opacity:1;" d="M 13.359375 23.484375 C 13.640625 23.464844 13.890625 23.527344 14.109375 23.671875 C 13.835938 23.664062 13.585938 23.601562 13.359375 23.484375 Z M 13.359375 23.484375 "/>
</g>
</defs>
<g id="surface1">
<path style=" stroke:none;fill-rule:evenodd;fill:rgb(18.823529%,83.921569%,50.980392%);fill-opacity:1;" d="M 17.953125 6.515625 C 18.140625 6.648438 18.359375 6.710938 18.609375 6.703125 C 19.847656 7.039062 20.910156 7.664062 21.796875 8.578125 C 21.828125 8.671875 21.890625 8.734375 21.984375 8.765625 C 21.894531 9.09375 21.707031 9.359375 21.421875 9.5625 C 19.316406 10.917969 17.253906 10.855469 15.234375 9.375 C 14.402344 8.570312 14.152344 7.617188 14.484375 6.515625 C 14.683594 6.453125 14.871094 6.390625 15.046875 6.328125 C 16.035156 6.199219 17.003906 6.261719 17.953125 6.515625 Z M 17.953125 6.515625 "/>
<use xlink:href="#surface5" mask="url(#mask0)"/>
<use xlink:href="#surface8" mask="url(#mask1)"/>
<use xlink:href="#surface11" mask="url(#mask2)"/>
<use xlink:href="#surface14" mask="url(#mask3)"/>
<use xlink:href="#surface17" mask="url(#mask4)"/>
<path style=" stroke:none;fill-rule:evenodd;fill:rgb(14.509804%,76.078431%,45.098039%);fill-opacity:1;" d="M 11.109375 7.734375 C 11.207031 8.640625 11.535156 9.453125 12.09375 10.171875 C 13.78125 12.039062 15.890625 12.976562 18.421875 12.984375 C 17.980469 13.457031 17.480469 13.863281 16.921875 14.203125 C 13.921875 13.882812 11.59375 12.476562 9.9375 9.984375 C 9.789062 9.671875 9.648438 9.359375 9.515625 9.046875 C 9.796875 8.828125 10.046875 8.578125 10.265625 8.296875 C 10.335938 8.132812 10.460938 8.039062 10.640625 8.015625 C 10.820312 7.960938 10.976562 7.867188 11.109375 7.734375 Z M 11.109375 7.734375 "/>
<use xlink:href="#surface20" mask="url(#mask5)"/>
<use xlink:href="#surface23" mask="url(#mask6)"/>
<use xlink:href="#surface26" mask="url(#mask7)"/>
<use xlink:href="#surface29" mask="url(#mask8)"/>
<path style=" stroke:none;fill-rule:evenodd;fill:rgb(14.117647%,72.156863%,42.745098%);fill-opacity:1;" d="M 9.421875 9.046875 C 9.453125 9.046875 9.484375 9.046875 9.515625 9.046875 C 9.648438 9.359375 9.789062 9.671875 9.9375 9.984375 C 11.59375 12.476562 13.921875 13.882812 16.921875 14.203125 C 16.328125 14.734375 15.703125 15.234375 15.046875 15.703125 C 12.210938 15.011719 9.914062 13.511719 8.15625 11.203125 C 8.109375 11.113281 8.09375 11.019531 8.109375 10.921875 C 8.09375 10.828125 8.125 10.765625 8.203125 10.734375 C 8.335938 10.691406 8.398438 10.597656 8.390625 10.453125 C 8.449219 10.273438 8.542969 10.117188 8.671875 9.984375 C 8.835938 9.914062 8.929688 9.789062 8.953125 9.609375 C 9.066406 9.382812 9.222656 9.195312 9.421875 9.046875 Z M 9.421875 9.046875 "/>
<use xlink:href="#surface32" mask="url(#mask9)"/>
<use xlink:href="#surface35" mask="url(#mask10)"/>
<use xlink:href="#surface38" mask="url(#mask11)"/>
<use xlink:href="#surface41" mask="url(#mask12)"/>
<use xlink:href="#surface44" mask="url(#mask13)"/>
<use xlink:href="#surface47" mask="url(#mask14)"/>
<use xlink:href="#surface50" mask="url(#mask15)"/>
<use xlink:href="#surface53" mask="url(#mask16)"/>
<use xlink:href="#surface56" mask="url(#mask17)"/>
<use xlink:href="#surface59" mask="url(#mask18)"/>
<use xlink:href="#surface62" mask="url(#mask19)"/>
<use xlink:href="#surface65" mask="url(#mask20)"/>
<use xlink:href="#surface68" mask="url(#mask21)"/>
<path style=" stroke:none;fill-rule:evenodd;fill:rgb(95.686275%,27.843137%,19.607843%);fill-opacity:1;" d="M 18.421875 12.984375 C 18.484375 12.984375 18.546875 12.984375 18.609375 12.984375 C 18.640625 13.078125 18.703125 13.140625 18.796875 13.171875 C 18.914062 13.445312 19.101562 13.664062 19.359375 13.828125 C 19.414062 14.039062 19.539062 14.195312 19.734375 14.296875 C 19.757812 14.476562 19.851562 14.601562 20.015625 14.671875 C 20.007812 14.816406 20.070312 14.910156 20.203125 14.953125 C 20.328125 15.203125 20.453125 15.453125 20.578125 15.703125 C 18.753906 16.707031 16.878906 17.613281 14.953125 18.421875 C 14.511719 18.003906 14.058594 17.597656 13.59375 17.203125 C 13.546875 17.113281 13.53125 17.019531 13.546875 16.921875 C 14.046875 16.515625 14.546875 16.109375 15.046875 15.703125 C 15.703125 15.234375 16.328125 14.734375 16.921875 14.203125 C 17.480469 13.863281 17.980469 13.457031 18.421875 12.984375 Z M 18.421875 12.984375 "/>
<path style=" stroke:none;fill-rule:evenodd;fill:rgb(12.156863%,62.745098%,36.470588%);fill-opacity:1;" d="M 7.265625 13.359375 C 8.980469 15.117188 11.027344 16.367188 13.40625 17.109375 C 13.433594 17.023438 13.480469 16.960938 13.546875 16.921875 C 13.53125 17.019531 13.546875 17.113281 13.59375 17.203125 C 14.058594 17.597656 14.511719 18.003906 14.953125 18.421875 C 15.296875 18.734375 15.640625 19.046875 15.984375 19.359375 C 13.4375 19.121094 11.03125 18.355469 8.765625 17.0625 C 8.242188 16.710938 7.710938 16.382812 7.171875 16.078125 C 7.109375 15.75 7.078125 15.40625 7.078125 15.046875 C 7.066406 14.460938 7.128906 13.898438 7.265625 13.359375 Z M 7.265625 13.359375 "/>
<use xlink:href="#surface71" mask="url(#mask22)"/>
<use xlink:href="#surface74" mask="url(#mask23)"/>
<use xlink:href="#surface77" mask="url(#mask24)"/>
<path style=" stroke:none;fill-rule:evenodd;fill:rgb(96.078431%,32.54902%,24.705882%);fill-opacity:1;" d="M 20.578125 15.703125 C 20.703125 15.828125 20.828125 15.953125 20.953125 16.078125 C 21.03125 16.109375 21.0625 16.171875 21.046875 16.265625 C 21.039062 16.410156 21.101562 16.503906 21.234375 16.546875 C 21.375 16.703125 21.46875 16.890625 21.515625 17.109375 C 21.53125 17.265625 21.59375 17.390625 21.703125 17.484375 C 21.78125 17.515625 21.8125 17.578125 21.796875 17.671875 C 21.796875 17.765625 21.796875 17.859375 21.796875 17.953125 C 20.234375 18.671875 18.671875 19.390625 17.109375 20.109375 C 16.707031 19.894531 16.332031 19.644531 15.984375 19.359375 C 15.640625 19.046875 15.296875 18.734375 14.953125 18.421875 C 16.878906 17.613281 18.753906 16.707031 20.578125 15.703125 Z M 20.578125 15.703125 "/>
<use xlink:href="#surface80" mask="url(#mask25)"/>
<use xlink:href="#surface83" mask="url(#mask26)"/>
<path style=" stroke:none;fill-rule:evenodd;fill:rgb(10.196078%,58.039216%,32.941176%);fill-opacity:1;" d="M 7.171875 16.078125 C 7.710938 16.382812 8.242188 16.710938 8.765625 17.0625 C 11.03125 18.355469 13.4375 19.121094 15.984375 19.359375 C 16.332031 19.644531 16.707031 19.894531 17.109375 20.109375 C 17.863281 20.644531 18.675781 21.082031 19.546875 21.421875 C 15.457031 21.617188 11.582031 20.773438 7.921875 18.890625 C 7.832031 18.746094 7.769531 18.589844 7.734375 18.421875 C 7.742188 18.230469 7.679688 18.074219 7.546875 17.953125 C 7.507812 17.554688 7.414062 17.179688 7.265625 16.828125 C 7.175781 16.597656 7.144531 16.347656 7.171875 16.078125 Z M 7.171875 16.078125 "/>
<use xlink:href="#surface86" mask="url(#mask27)"/>
<use xlink:href="#surface89" mask="url(#mask28)"/>
<use xlink:href="#surface92" mask="url(#mask29)"/>
<path style=" stroke:none;fill-rule:evenodd;fill:rgb(97.254902%,37.647059%,30.588235%);fill-opacity:1;" d="M 21.796875 17.671875 C 21.875 17.703125 21.90625 17.765625 21.890625 17.859375 C 21.882812 18.050781 21.945312 18.207031 22.078125 18.328125 C 22.117188 18.695312 22.210938 19.039062 22.359375 19.359375 C 22.378906 19.925781 22.347656 20.488281 22.265625 21.046875 C 22.132812 21.089844 22.070312 21.183594 22.078125 21.328125 C 22.078125 21.390625 22.046875 21.421875 21.984375 21.421875 C 21.171875 21.792969 20.359375 21.792969 19.546875 21.421875 C 18.675781 21.082031 17.863281 20.644531 17.109375 20.109375 C 18.671875 19.390625 20.234375 18.671875 21.796875 17.953125 C 21.796875 17.859375 21.796875 17.765625 21.796875 17.671875 Z M 21.796875 17.671875 "/>
<path style=" stroke:none;fill-rule:evenodd;fill:rgb(10.196078%,54.117647%,30.588235%);fill-opacity:1;" d="M 7.921875 18.890625 C 11.582031 20.773438 15.457031 21.617188 19.546875 21.421875 C 20.359375 21.792969 21.171875 21.792969 21.984375 21.421875 C 21.738281 21.636719 21.488281 21.855469 21.234375 22.078125 C 21.089844 22.070312 20.996094 22.132812 20.953125 22.265625 C 20.808594 22.257812 20.714844 22.320312 20.671875 22.453125 C 20.3125 22.742188 19.90625 22.960938 19.453125 23.109375 C 19.359375 23.109375 19.265625 23.109375 19.171875 23.109375 C 17.789062 23.144531 16.414062 23.066406 15.046875 22.875 C 13.46875 22.605469 11.90625 22.277344 10.359375 21.890625 C 10.257812 21.695312 10.101562 21.570312 9.890625 21.515625 C 9.609375 21.296875 9.359375 21.046875 9.140625 20.765625 C 9.148438 20.621094 9.085938 20.527344 8.953125 20.484375 C 8.726562 20.316406 8.570312 20.097656 8.484375 19.828125 C 8.449219 19.570312 8.324219 19.382812 8.109375 19.265625 C 8 19.171875 7.9375 19.046875 7.921875 18.890625 Z M 7.921875 18.890625 "/>
<use xlink:href="#surface95" mask="url(#mask30)"/>
<use xlink:href="#surface98" mask="url(#mask31)"/>
<use xlink:href="#surface101" mask="url(#mask32)"/>
<use xlink:href="#surface104" mask="url(#mask33)"/>
<use xlink:href="#surface107" mask="url(#mask34)"/>
<use xlink:href="#surface110" mask="url(#mask35)"/>
<use xlink:href="#surface113" mask="url(#mask36)"/>
<use xlink:href="#surface116" mask="url(#mask37)"/>
<use xlink:href="#surface119" mask="url(#mask38)"/>
<use xlink:href="#surface122" mask="url(#mask39)"/>
<use xlink:href="#surface125" mask="url(#mask40)"/>
<use xlink:href="#surface128" mask="url(#mask41)"/>
<use xlink:href="#surface131" mask="url(#mask42)"/>
<use xlink:href="#surface134" mask="url(#mask43)"/>
</g>
</svg>
