<?xml version="1.0" encoding="UTF-8"?>
<!DOCTYPE svg PUBLIC "-//W3C//DTD SVG 1.1//EN" "http://www.w3.org/Graphics/SVG/1.1/DTD/svg11.dtd">
<svg xmlns="http://www.w3.org/2000/svg" version="1.1" width="320px" height="320px" style="shape-rendering:geometricPrecision; text-rendering:geometricPrecision; image-rendering:optimizeQuality; fill-rule:evenodd; clip-rule:evenodd" xmlns:xlink="http://www.w3.org/1999/xlink">
<g><path style="opacity:0.999" fill="#30d682" d="M 191.5,69.5 C 193.515,70.9238 195.848,71.5905 198.5,71.5C 211.708,75.0997 223.042,81.7664 232.5,91.5C 232.833,92.5 233.5,93.1667 234.5,93.5C 233.523,96.9892 231.523,99.8225 228.5,102C 206.061,116.446 184.061,115.779 162.5,100C 153.645,91.4109 150.978,81.2442 154.5,69.5C 156.631,68.8313 158.631,68.1646 160.5,67.5C 171.036,66.1359 181.37,66.8025 191.5,69.5 Z"/></g>
<g><path style="opacity:0.576" fill="#628d96" d="M 151.5,68.5 C 149.095,69.7682 146.428,70.4349 143.5,70.5C 145.838,68.9605 148.505,68.2938 151.5,68.5 Z"/></g>
<g><path style="opacity:0.063" fill="#707b9d" d="M 191.5,69.5 C 194.152,69.4095 196.485,70.0762 198.5,71.5C 195.848,71.5905 193.515,70.9238 191.5,69.5 Z"/></g>
<g><path style="opacity:0.998" fill="#2ccd7b" d="M 160.5,67.5 C 158.631,68.1646 156.631,68.8313 154.5,69.5C 150.978,81.2442 153.645,91.4109 162.5,100C 184.061,115.779 206.061,116.446 228.5,102C 231.523,99.8225 233.523,96.9892 234.5,93.5C 234.833,93.5 235.167,93.5 235.5,93.5C 235.738,95.4044 236.738,96.7377 238.5,97.5C 239.092,100.631 238.092,102.964 235.5,104.5C 233.738,105.262 232.738,106.596 232.5,108.5C 230.833,110.833 228.833,112.833 226.5,114.5C 224.596,114.738 223.262,115.738 222.5,117.5C 220.5,120.167 218.167,122.5 215.5,124.5C 213.973,124.427 212.973,125.094 212.5,126.5C 211.5,128.167 210.167,129.5 208.5,130.5C 206.973,130.427 205.973,131.094 205.5,132.5C 204.833,133.833 203.833,134.833 202.5,135.5C 200.596,135.738 199.262,136.738 198.5,138.5C 197.833,138.5 197.167,138.5 196.5,138.5C 169.491,138.408 146.991,128.408 129,108.5C 123.056,100.837 119.556,92.17 118.5,82.5C 118.5,82.1667 118.5,81.8333 118.5,81.5C 118.842,80.6618 119.508,80.3284 120.5,80.5C 122.027,80.573 123.027,79.9063 123.5,78.5C 126.751,76.0431 130.418,74.3764 134.5,73.5C 137.855,73.3104 140.855,72.3104 143.5,70.5C 146.428,70.4349 149.095,69.7682 151.5,68.5C 154.391,67.5975 157.391,67.2641 160.5,67.5 Z"/></g>
<g><path style="opacity:0.569" fill="#629294" d="M 143.5,70.5 C 140.855,72.3104 137.855,73.3104 134.5,73.5C 137.084,71.5275 140.084,70.5275 143.5,70.5 Z"/></g>
<g><path style="opacity:0.533" fill="#658696" d="M 123.5,78.5 C 123.027,79.9063 122.027,80.573 120.5,80.5C 120.973,79.0937 121.973,78.427 123.5,78.5 Z"/></g>
<g><path style="opacity:0.999" fill="#25c273" d="M 118.5,82.5 C 119.556,92.17 123.056,100.837 129,108.5C 146.991,128.408 169.491,138.408 196.5,138.5C 191.771,143.561 186.438,147.894 180.5,151.5C 148.48,148.086 123.647,133.086 106,106.5C 104.396,103.179 102.896,99.8458 101.5,96.5C 104.5,94.1667 107.167,91.5 109.5,88.5C 110.262,86.7376 111.596,85.7376 113.5,85.5C 115.411,84.925 117.078,83.925 118.5,82.5 Z"/></g>
<g><path style="opacity:0.729" fill="#599b8c" d="M 118.5,81.5 C 118.5,81.8333 118.5,82.1667 118.5,82.5C 117.078,83.925 115.411,84.925 113.5,85.5C 114.585,83.4131 116.251,82.0798 118.5,81.5 Z"/></g>
<g><path style="opacity:0.094" fill="#6f7a9d" d="M 232.5,91.5 C 234.027,91.427 235.027,92.0937 235.5,93.5C 235.167,93.5 234.833,93.5 234.5,93.5C 233.5,93.1667 232.833,92.5 232.5,91.5 Z"/></g>
<g><path style="opacity:0.667" fill="#59968a" d="M 109.5,88.5 C 107.167,91.5 104.5,94.1667 101.5,96.5C 101.167,96.5 100.833,96.5 100.5,96.5C 102.9,93.0969 105.9,90.4302 109.5,88.5 Z"/></g>
<g><path style="opacity:0.569" fill="#678997" d="M 235.5,93.5 C 237.262,94.2623 238.262,95.5956 238.5,97.5C 236.738,96.7377 235.738,95.4044 235.5,93.5 Z"/></g>
<g><path style="opacity:0.999" fill="#24b86d" d="M 100.5,96.5 C 100.833,96.5 101.167,96.5 101.5,96.5C 102.896,99.8458 104.396,103.179 106,106.5C 123.647,133.086 148.48,148.086 180.5,151.5C 174.146,157.183 167.48,162.516 160.5,167.5C 130.26,160.14 105.76,144.14 87,119.5C 86.5172,118.552 86.3505,117.552 86.5,116.5C 86.3284,115.508 86.6618,114.842 87.5,114.5C 88.9063,114.027 89.573,113.027 89.5,111.5C 90.1103,109.566 91.1103,107.899 92.5,106.5C 94.2624,105.738 95.2624,104.404 95.5,102.5C 96.7007,100.091 98.3674,98.0905 100.5,96.5 Z"/></g>
<g><path style="opacity:0.463" fill="#667f95" d="M 95.5,102.5 C 95.2624,104.404 94.2624,105.738 92.5,106.5C 92.7376,104.596 93.7376,103.262 95.5,102.5 Z"/></g>
<g><path style="opacity:0.114" fill="#72729f" d="M 235.5,104.5 C 235.262,106.404 234.262,107.738 232.5,108.5C 232.738,106.596 233.738,105.262 235.5,104.5 Z"/></g>
<g><path style="opacity:0.329" fill="#657b93" d="M 89.5,111.5 C 89.573,113.027 88.9063,114.027 87.5,114.5C 87.427,112.973 88.0937,111.973 89.5,111.5 Z"/></g>
<g><path style="opacity:0.118" fill="#71749e" d="M 226.5,114.5 C 225.738,116.262 224.404,117.262 222.5,117.5C 223.262,115.738 224.596,114.738 226.5,114.5 Z"/></g>
<g><path style="opacity:0.071" fill="#73709e" d="M 215.5,124.5 C 215.027,125.906 214.027,126.573 212.5,126.5C 212.973,125.094 213.973,124.427 215.5,124.5 Z"/></g>
<g><path style="opacity:0.639" fill="#5a8488" d="M 81.5,127.5 C 81.5905,130.152 80.9238,132.485 79.5,134.5C 79.4095,131.848 80.0762,129.515 81.5,127.5 Z"/></g>
<g><path style="opacity:0.998" fill="#20ae65" d="M 86.5,116.5 C 86.3505,117.552 86.5172,118.552 87,119.5C 105.76,144.14 130.26,160.14 160.5,167.5C 155.167,171.833 149.833,176.167 144.5,180.5C 143.778,180.918 143.278,181.584 143,182.5C 117.614,174.576 95.7803,161.243 77.5,142.5C 77.5,142.167 77.5,141.833 77.5,141.5C 78.9238,139.485 79.5905,137.152 79.5,134.5C 80.9238,132.485 81.5905,130.152 81.5,127.5C 82.6027,123.503 84.2694,119.836 86.5,116.5 Z"/></g>
<g><path style="opacity:0.071" fill="#73709e" d="M 208.5,130.5 C 208.027,131.906 207.027,132.573 205.5,132.5C 205.973,131.094 206.973,130.427 208.5,130.5 Z"/></g>
<g><path style="opacity:0.122" fill="#766e9b" d="M 202.5,135.5 C 201.058,136.82 200.392,138.486 200.5,140.5C 199.5,140.167 198.833,139.5 198.5,138.5C 199.262,136.738 200.596,135.738 202.5,135.5 Z"/></g>
<g><path style="opacity:0.318" fill="#5d7e8b" d="M 79.5,134.5 C 79.5905,137.152 78.9238,139.485 77.5,141.5C 77.4095,138.848 78.0762,136.515 79.5,134.5 Z"/></g>
<g><path style="opacity:0.49" fill="#8a688a" d="M 200.5,140.5 C 203.243,142.239 205.243,144.573 206.5,147.5C 203.757,145.761 201.757,143.427 200.5,140.5 Z"/></g>
<g><path style="opacity:0.167" fill="#816895" d="M 206.5,147.5 C 208.587,148.585 209.92,150.251 210.5,152.5C 208.413,151.415 207.08,149.749 206.5,147.5 Z"/></g>
<g><path style="opacity:0.447" fill="#836a8f" d="M 210.5,152.5 C 212.262,153.262 213.262,154.596 213.5,156.5C 211.738,155.738 210.738,154.404 210.5,152.5 Z"/></g>
<g><path style="opacity:1" fill="#f44732" d="M 196.5,138.5 C 197.167,138.5 197.833,138.5 198.5,138.5C 198.833,139.5 199.5,140.167 200.5,140.5C 201.757,143.427 203.757,145.761 206.5,147.5C 207.08,149.749 208.413,151.415 210.5,152.5C 210.738,154.404 211.738,155.738 213.5,156.5C 213.427,158.027 214.094,159.027 215.5,159.5C 216.833,162.167 218.167,164.833 219.5,167.5C 200.047,178.226 180.047,187.893 159.5,196.5C 154.793,192.057 149.959,187.724 145,183.5C 144.517,182.552 144.351,181.552 144.5,180.5C 149.833,176.167 155.167,171.833 160.5,167.5C 167.48,162.516 174.146,157.183 180.5,151.5C 186.438,147.894 191.771,143.561 196.5,138.5 Z"/></g>
<g><path style="opacity:1" fill="#1fa05d" d="M 77.5,142.5 C 95.7803,161.243 117.614,174.576 143,182.5C 143.278,181.584 143.778,180.918 144.5,180.5C 144.351,181.552 144.517,182.552 145,183.5C 149.959,187.724 154.793,192.057 159.5,196.5C 163.167,199.833 166.833,203.167 170.5,206.5C 143.326,203.946 117.659,195.779 93.5,182C 87.9309,178.248 82.2642,174.748 76.5,171.5C 75.8346,168.016 75.5013,164.349 75.5,160.5C 75.3799,154.267 76.0466,148.267 77.5,142.5 Z"/></g>
<g><path style="opacity:0.345" fill="#806994" d="M 213.5,156.5 C 214.906,156.973 215.573,157.973 215.5,159.5C 214.094,159.027 213.427,158.027 213.5,156.5 Z"/></g>
<g><path style="opacity:0.161" fill="#836893" d="M 215.5,159.5 C 219.156,162.803 221.822,166.803 223.5,171.5C 222.167,170.167 220.833,168.833 219.5,167.5C 218.167,164.833 216.833,162.167 215.5,159.5 Z"/></g>
<g><path style="opacity:0.329" fill="#826991" d="M 224.5,173.5 C 225.906,173.973 226.573,174.973 226.5,176.5C 225.094,176.027 224.427,175.027 224.5,173.5 Z"/></g>
<g><path style="opacity:1" fill="#f5533f" d="M 219.5,167.5 C 220.833,168.833 222.167,170.167 223.5,171.5C 224.338,171.842 224.672,172.508 224.5,173.5C 224.427,175.027 225.094,176.027 226.5,176.5C 228.008,178.181 229.008,180.181 229.5,182.5C 229.66,184.153 230.326,185.486 231.5,186.5C 232.338,186.842 232.672,187.508 232.5,188.5C 232.5,189.5 232.5,190.5 232.5,191.5C 215.833,199.167 199.167,206.833 182.5,214.5C 178.228,212.226 174.228,209.559 170.5,206.5C 166.833,203.167 163.167,199.833 159.5,196.5C 180.047,187.893 200.047,178.226 219.5,167.5 Z"/></g>
<g><path style="opacity:0.027" fill="#6c6d97" d="M 77.5,179.5 C 79.1016,183.239 80.1016,187.239 80.5,191.5C 78.5841,187.837 77.5841,183.837 77.5,179.5 Z"/></g>
<g><path style="opacity:0.102" fill="#846991" d="M 229.5,182.5 C 231.104,183.287 231.771,184.62 231.5,186.5C 230.326,185.486 229.66,184.153 229.5,182.5 Z"/></g>
<g><path style="opacity:0.999" fill="#1a9454" d="M 76.5,171.5 C 82.2642,174.748 87.9309,178.248 93.5,182C 117.659,195.779 143.326,203.946 170.5,206.5C 174.228,209.559 178.228,212.226 182.5,214.5C 190.553,220.195 199.22,224.862 208.5,228.5C 164.895,230.603 123.561,221.603 84.5,201.5C 83.5592,199.95 82.8925,198.284 82.5,196.5C 82.5979,194.447 81.9313,192.78 80.5,191.5C 80.1016,187.239 79.1016,183.239 77.5,179.5C 76.5269,177.052 76.1936,174.385 76.5,171.5 Z"/></g>
<g><path style="opacity:0.08" fill="#7f6898" d="M 233.5,190.5 C 234.931,191.78 235.598,193.447 235.5,195.5C 234.069,194.22 233.402,192.553 233.5,190.5 Z"/></g>
<g><path style="opacity:0.231" fill="#6d6a97" d="M 80.5,191.5 C 81.9313,192.78 82.5979,194.447 82.5,196.5C 81.0687,195.22 80.4021,193.553 80.5,191.5 Z"/></g>
<g><path style="opacity:0.651" fill="#936b83" d="M 235.5,195.5 C 237.483,198.799 238.483,202.466 238.5,206.5C 236.926,203.093 235.926,199.427 235.5,195.5 Z"/></g>
<g><path style="opacity:0.999" fill="#f8604e" d="M 232.5,188.5 C 233.338,188.842 233.672,189.508 233.5,190.5C 233.402,192.553 234.069,194.22 235.5,195.5C 235.926,199.427 236.926,203.093 238.5,206.5C 238.697,212.545 238.363,218.545 237.5,224.5C 236.094,224.973 235.427,225.973 235.5,227.5C 235.5,228.167 235.167,228.5 234.5,228.5C 225.843,232.441 217.176,232.441 208.5,228.5C 199.22,224.862 190.553,220.195 182.5,214.5C 199.167,206.833 215.833,199.167 232.5,191.5C 232.5,190.5 232.5,189.5 232.5,188.5 Z"/></g>
<g><path style="opacity:0.999" fill="#1a8a4e" d="M 84.5,201.5 C 123.561,221.603 164.895,230.603 208.5,228.5C 217.176,232.441 225.843,232.441 234.5,228.5C 231.859,230.804 229.192,233.138 226.5,235.5C 224.973,235.427 223.973,236.094 223.5,237.5C 221.973,237.427 220.973,238.094 220.5,239.5C 216.653,242.593 212.32,244.926 207.5,246.5C 206.5,246.5 205.5,246.5 204.5,246.5C 189.763,246.869 175.096,246.036 160.5,244C 143.668,241.124 127.002,237.624 110.5,233.5C 109.415,231.413 107.749,230.08 105.5,229.5C 102.5,227.167 99.8333,224.5 97.5,221.5C 97.573,219.973 96.9063,218.973 95.5,218.5C 93.1,216.704 91.4333,214.37 90.5,211.5C 90.1298,208.733 88.7964,206.733 86.5,205.5C 85.3263,204.486 84.6596,203.153 84.5,201.5 Z"/></g>
<g><path style="opacity:0.706" fill="#5b7683" d="M 86.5,205.5 C 88.7964,206.733 90.1298,208.733 90.5,211.5C 88.684,209.882 87.3507,207.882 86.5,205.5 Z"/></g>
<g><path style="opacity:0.651" fill="#936e7c" d="M 238.5,206.5 C 239.651,211.65 239.817,216.984 239,222.5C 238.722,223.416 238.222,224.082 237.5,224.5C 238.363,218.545 238.697,212.545 238.5,206.5 Z"/></g>
<g><path style="opacity:0.075" fill="#6c6a96" d="M 95.5,218.5 C 96.9063,218.973 97.573,219.973 97.5,221.5C 96.0937,221.027 95.427,220.027 95.5,218.5 Z"/></g>
<g><path style="opacity:0.082" fill="#856993" d="M 237.5,224.5 C 237.573,226.027 236.906,227.027 235.5,227.5C 235.427,225.973 236.094,224.973 237.5,224.5 Z"/></g>
<g><path style="opacity:0.647" fill="#57737f" d="M 105.5,229.5 C 107.749,230.08 109.415,231.413 110.5,233.5C 108.251,232.92 106.585,231.587 105.5,229.5 Z"/></g>
<g><path style="opacity:0.345" fill="#636c8e" d="M 112.5,235.5 C 114.027,235.427 115.027,236.094 115.5,237.5C 113.973,237.573 112.973,236.906 112.5,235.5 Z"/></g>
<g><path style="opacity:0.039" fill="#75679f" d="M 226.5,235.5 C 226.027,236.906 225.027,237.573 223.5,237.5C 223.973,236.094 224.973,235.427 226.5,235.5 Z"/></g>
<g><path style="opacity:0.994" fill="#247f4e" d="M 110.5,233.5 C 127.002,237.624 143.668,241.124 160.5,244C 175.096,246.036 189.763,246.869 204.5,246.5C 203.833,247.167 203.167,247.833 202.5,248.5C 185.629,254.679 168.295,256.013 150.5,252.5C 148.162,250.96 145.495,250.294 142.5,250.5C 137.71,249.796 133.377,248.129 129.5,245.5C 128.486,244.326 127.153,243.66 125.5,243.5C 123.847,243.34 122.514,242.674 121.5,241.5C 121.027,240.094 120.027,239.427 118.5,239.5C 118.027,238.094 117.027,237.427 115.5,237.5C 115.027,236.094 114.027,235.427 112.5,235.5C 111.5,235.167 110.833,234.5 110.5,233.5 Z"/></g>
<g><path style="opacity:0.349" fill="#626d8c" d="M 115.5,237.5 C 117.027,237.427 118.027,238.094 118.5,239.5C 116.973,239.573 115.973,238.906 115.5,237.5 Z"/></g>
<g><path style="opacity:0.051" fill="#73689c" d="M 223.5,237.5 C 223.027,238.906 222.027,239.573 220.5,239.5C 220.973,238.094 221.973,237.427 223.5,237.5 Z"/></g>
<g><path style="opacity:0.29" fill="#686b92" d="M 118.5,239.5 C 120.027,239.427 121.027,240.094 121.5,241.5C 119.973,241.573 118.973,240.906 118.5,239.5 Z"/></g>
<g><path style="opacity:0.078" fill="#6a6b93" d="M 125.5,243.5 C 127.153,243.66 128.486,244.326 129.5,245.5C 127.62,245.771 126.287,245.104 125.5,243.5 Z"/></g>
<g><path style="opacity:0.065" fill="#6f6999" d="M 204.5,246.5 C 205.5,246.5 206.5,246.5 207.5,246.5C 206.22,247.931 204.553,248.598 202.5,248.5C 203.167,247.833 203.833,247.167 204.5,246.5 Z"/></g>
<g><path style="opacity:0.376" fill="#5c7085" d="M 142.5,250.5 C 145.495,250.294 148.162,250.96 150.5,252.5C 147.572,252.435 144.905,251.768 142.5,250.5 Z"/></g>
</svg>
