<svg version="1.0"
  xmlns="http://www.w3.org/2000/svg" width="320.000000pt" height="320.000000pt" viewBox="0 0 320.000000 320.000000" preserveAspectRatio="xMidYMid meet">

  <g transform="translate(0.000000,320.000000) scale(0.100000,-0.100000)" fill="#000000" stroke="none">
    <path d="M1920 1763 c-30 -25 -136 -108 -235 -185 -99 -76 -196 -152 -215
-168 l-35 -30 94 -91 94 -91 -44 7 c-81 13 -273 73 -381 118 -122 52 -266 134
-364 208 l-66 50 7 -78 c30 -327 238 -620 539 -758 131 -61 222 -80 386 -79
155 0 221 12 343 61 76 31 180 91 227 132 l35 30 -37 -6 c-44 -6 -163 20 -233
51 l-50 22 182 88 c175 85 181 90 188 122 12 65 -98 289 -227 460 -73 98 -142
183 -148 183 -3 0 -30 -21 -60 -46z"/>
  </g>
</svg>
