<?xml version="1.0" encoding="UTF-8"?>
<svg xmlns="http://www.w3.org/2000/svg"
  xmlns:xlink="http://www.w3.org/1999/xlink" width="25px" height="25px" viewBox="0 0 25 25" version="1.1">
  <defs>
    <filter id="alpha" filterUnits="objectBoundingBox" x="0%" y="0%" width="100%" height="100%">
      <feColorMatrix type="matrix" in="SourceGraphic" values="0 0 0 0 1 0 0 0 0 1 0 0 0 0 1 0 0 0 1 0"/>
    </filter>
    <mask id="mask0">
      <g filter="url(#alpha)">
        <rect x="0" y="0" width="25" height="25" style="fill:rgb(0%,0%,0%);fill-opacity:0.576471;stroke:none;"/>
      </g>
    </mask>
    <clipPath id="clip1">
      <rect x="0" y="0" width="25" height="25"/>
    </clipPath>
    <g id="surface5" clip-path="url(#clip1)">
      <path style=" stroke:none;fill-rule:evenodd;fill:rgb(38.431373%,55.294118%,58.823529%);fill-opacity:1;" d="M 11.835938 5.351562 C 11.648438 5.449219 11.441406 5.503906 11.210938 5.507812 C 11.394531 5.386719 11.601562 5.335938 11.835938 5.351562 Z M 11.835938 5.351562 "/>
    </g>
    <mask id="mask1">
      <g filter="url(#alpha)">
        <rect x="0" y="0" width="25" height="25" style="fill:rgb(0%,0%,0%);fill-opacity:0.0627451;stroke:none;"/>
      </g>
    </mask>
    <clipPath id="clip2">
      <rect x="0" y="0" width="25" height="25"/>
    </clipPath>
    <g id="surface8" clip-path="url(#clip2)">
      <path style=" stroke:none;fill-rule:evenodd;fill:rgb(43.921569%,48.235294%,61.568627%);fill-opacity:1;" d="M 14.960938 5.429688 C 15.167969 5.421875 15.351562 5.476562 15.507812 5.585938 C 15.300781 5.59375 15.117188 5.539062 14.960938 5.429688 Z M 14.960938 5.429688 "/>
    </g>
    <mask id="mask2">
      <g filter="url(#alpha)">
        <rect x="0" y="0" width="25" height="25" style="fill:rgb(0%,0%,0%);fill-opacity:0.996078;stroke:none;"/>
      </g>
    </mask>
    <clipPath id="clip3">
      <rect x="0" y="0" width="25" height="25"/>
    </clipPath>
    <g id="surface11" clip-path="url(#clip3)">
      <path style=" stroke:none;fill-rule:evenodd;fill:rgb(17.254902%,80.392157%,48.235294%);fill-opacity:1;" d="M 12.539062 5.273438 C 12.394531 5.324219 12.238281 5.378906 12.070312 5.429688 C 11.796875 6.347656 12.003906 7.140625 12.695312 7.8125 C 14.378906 9.046875 16.097656 9.097656 17.851562 7.96875 C 18.085938 7.796875 18.242188 7.578125 18.320312 7.304688 C 18.347656 7.304688 18.371094 7.304688 18.398438 7.304688 C 18.417969 7.453125 18.496094 7.558594 18.632812 7.617188 C 18.679688 7.863281 18.601562 8.042969 18.398438 8.164062 C 18.261719 8.222656 18.183594 8.328125 18.164062 8.476562 C 18.035156 8.660156 17.878906 8.816406 17.695312 8.945312 C 17.546875 8.964844 17.441406 9.042969 17.382812 9.179688 C 17.226562 9.386719 17.042969 9.570312 16.835938 9.726562 C 16.714844 9.722656 16.636719 9.773438 16.601562 9.882812 C 16.523438 10.011719 16.417969 10.117188 16.289062 10.195312 C 16.167969 10.191406 16.089844 10.242188 16.054688 10.351562 C 16.003906 10.457031 15.925781 10.535156 15.820312 10.585938 C 15.671875 10.605469 15.566406 10.683594 15.507812 10.820312 C 15.457031 10.820312 15.402344 10.820312 15.351562 10.820312 C 13.242188 10.8125 11.484375 10.03125 10.078125 8.476562 C 9.613281 7.878906 9.339844 7.199219 9.257812 6.445312 C 9.257812 6.417969 9.257812 6.394531 9.257812 6.367188 C 9.285156 6.300781 9.335938 6.277344 9.414062 6.289062 C 9.535156 6.292969 9.613281 6.242188 9.648438 6.132812 C 9.902344 5.941406 10.1875 5.8125 10.507812 5.742188 C 10.769531 5.726562 11.003906 5.648438 11.210938 5.507812 C 11.441406 5.503906 11.648438 5.449219 11.835938 5.351562 C 12.0625 5.28125 12.296875 5.253906 12.539062 5.273438 Z M 12.539062 5.273438 "/>
    </g>
    <mask id="mask3">
      <g filter="url(#alpha)">
        <rect x="0" y="0" width="25" height="25" style="fill:rgb(0%,0%,0%);fill-opacity:0.568627;stroke:none;"/>
      </g>
    </mask>
    <clipPath id="clip4">
      <rect x="0" y="0" width="25" height="25"/>
    </clipPath>
    <g id="surface14" clip-path="url(#clip4)">
      <path style=" stroke:none;fill-rule:evenodd;fill:rgb(38.431373%,57.254902%,58.039216%);fill-opacity:1;" d="M 11.210938 5.507812 C 11.003906 5.648438 10.769531 5.726562 10.507812 5.742188 C 10.710938 5.589844 10.945312 5.511719 11.210938 5.507812 Z M 11.210938 5.507812 "/>
    </g>
    <mask id="mask4">
      <g filter="url(#alpha)">
        <rect x="0" y="0" width="25" height="25" style="fill:rgb(0%,0%,0%);fill-opacity:0.533333;stroke:none;"/>
      </g>
    </mask>
    <clipPath id="clip5">
      <rect x="0" y="0" width="25" height="25"/>
    </clipPath>
    <g id="surface17" clip-path="url(#clip5)">
      <path style=" stroke:none;fill-rule:evenodd;fill:rgb(39.607843%,52.54902%,58.823529%);fill-opacity:1;" d="M 9.648438 6.132812 C 9.613281 6.242188 9.535156 6.292969 9.414062 6.289062 C 9.449219 6.179688 9.527344 6.128906 9.648438 6.132812 Z M 9.648438 6.132812 "/>
    </g>
    <mask id="mask5">
      <g filter="url(#alpha)">
        <rect x="0" y="0" width="25" height="25" style="fill:rgb(0%,0%,0%);fill-opacity:0.729412;stroke:none;"/>
      </g>
    </mask>
    <clipPath id="clip6">
      <rect x="0" y="0" width="25" height="25"/>
    </clipPath>
    <g id="surface20" clip-path="url(#clip6)">
      <path style=" stroke:none;fill-rule:evenodd;fill:rgb(34.901961%,60.784314%,54.901961%);fill-opacity:1;" d="M 9.257812 6.367188 C 9.257812 6.394531 9.257812 6.417969 9.257812 6.445312 C 9.148438 6.554688 9.015625 6.632812 8.867188 6.679688 C 8.953125 6.515625 9.082031 6.414062 9.257812 6.367188 Z M 9.257812 6.367188 "/>
    </g>
    <mask id="mask6">
      <g filter="url(#alpha)">
        <rect x="0" y="0" width="25" height="25" style="fill:rgb(0%,0%,0%);fill-opacity:0.0941176;stroke:none;"/>
      </g>
    </mask>
    <clipPath id="clip7">
      <rect x="0" y="0" width="25" height="25"/>
    </clipPath>
    <g id="surface23" clip-path="url(#clip7)">
      <path style=" stroke:none;fill-rule:evenodd;fill:rgb(43.529412%,47.843137%,61.568627%);fill-opacity:1;" d="M 18.164062 7.148438 C 18.285156 7.144531 18.363281 7.195312 18.398438 7.304688 C 18.371094 7.304688 18.347656 7.304688 18.320312 7.304688 C 18.242188 7.277344 18.191406 7.226562 18.164062 7.148438 Z M 18.164062 7.148438 "/>
    </g>
    <mask id="mask7">
      <g filter="url(#alpha)">
        <rect x="0" y="0" width="25" height="25" style="fill:rgb(0%,0%,0%);fill-opacity:0.666667;stroke:none;"/>
      </g>
    </mask>
    <clipPath id="clip8">
      <rect x="0" y="0" width="25" height="25"/>
    </clipPath>
    <g id="surface26" clip-path="url(#clip8)">
      <path style=" stroke:none;fill-rule:evenodd;fill:rgb(34.901961%,58.823529%,54.117647%);fill-opacity:1;" d="M 8.554688 6.914062 C 8.371094 7.148438 8.164062 7.355469 7.929688 7.539062 C 7.902344 7.539062 7.878906 7.539062 7.851562 7.539062 C 8.039062 7.273438 8.273438 7.066406 8.554688 6.914062 Z M 8.554688 6.914062 "/>
    </g>
    <mask id="mask8">
      <g filter="url(#alpha)">
        <rect x="0" y="0" width="25" height="25" style="fill:rgb(0%,0%,0%);fill-opacity:0.568627;stroke:none;"/>
      </g>
    </mask>
    <clipPath id="clip9">
      <rect x="0" y="0" width="25" height="25"/>
    </clipPath>
    <g id="surface29" clip-path="url(#clip9)">
      <path style=" stroke:none;fill-rule:evenodd;fill:rgb(40.392157%,53.72549%,59.215686%);fill-opacity:1;" d="M 18.398438 7.304688 C 18.535156 7.363281 18.613281 7.46875 18.632812 7.617188 C 18.496094 7.558594 18.417969 7.453125 18.398438 7.304688 Z M 18.398438 7.304688 "/>
    </g>
    <mask id="mask9">
      <g filter="url(#alpha)">
        <rect x="0" y="0" width="25" height="25" style="fill:rgb(0%,0%,0%);fill-opacity:0.462745;stroke:none;"/>
      </g>
    </mask>
    <clipPath id="clip10">
      <rect x="0" y="0" width="25" height="25"/>
    </clipPath>
    <g id="surface32" clip-path="url(#clip10)">
      <path style=" stroke:none;fill-rule:evenodd;fill:rgb(40%,49.803922%,58.431373%);fill-opacity:1;" d="M 7.460938 8.007812 C 7.441406 8.15625 7.363281 8.261719 7.226562 8.320312 C 7.246094 8.171875 7.324219 8.066406 7.460938 8.007812 Z M 7.460938 8.007812 "/>
    </g>
    <mask id="mask10">
      <g filter="url(#alpha)">
        <rect x="0" y="0" width="25" height="25" style="fill:rgb(0%,0%,0%);fill-opacity:0.113725;stroke:none;"/>
      </g>
    </mask>
    <clipPath id="clip11">
      <rect x="0" y="0" width="25" height="25"/>
    </clipPath>
    <g id="surface35" clip-path="url(#clip11)">
      <path style=" stroke:none;fill-rule:evenodd;fill:rgb(44.705882%,44.705882%,62.352941%);fill-opacity:1;" d="M 18.398438 8.164062 C 18.378906 8.3125 18.300781 8.417969 18.164062 8.476562 C 18.183594 8.328125 18.261719 8.222656 18.398438 8.164062 Z M 18.398438 8.164062 "/>
    </g>
    <mask id="mask11">
      <g filter="url(#alpha)">
        <rect x="0" y="0" width="25" height="25" style="fill:rgb(0%,0%,0%);fill-opacity:0.329412;stroke:none;"/>
      </g>
    </mask>
    <clipPath id="clip12">
      <rect x="0" y="0" width="25" height="25"/>
    </clipPath>
    <g id="surface38" clip-path="url(#clip12)">
      <path style=" stroke:none;fill-rule:evenodd;fill:rgb(39.607843%,48.235294%,57.647059%);fill-opacity:1;" d="M 6.992188 8.710938 C 6.996094 8.832031 6.945312 8.910156 6.835938 8.945312 C 6.832031 8.824219 6.882812 8.746094 6.992188 8.710938 Z M 6.992188 8.710938 "/>
    </g>
    <mask id="mask12">
      <g filter="url(#alpha)">
        <rect x="0" y="0" width="25" height="25" style="fill:rgb(0%,0%,0%);fill-opacity:0.117647;stroke:none;"/>
      </g>
    </mask>
    <clipPath id="clip13">
      <rect x="0" y="0" width="25" height="25"/>
    </clipPath>
    <g id="surface41" clip-path="url(#clip13)">
      <path style=" stroke:none;fill-rule:evenodd;fill:rgb(44.313725%,45.490196%,61.960784%);fill-opacity:1;" d="M 17.695312 8.945312 C 17.636719 9.082031 17.53125 9.160156 17.382812 9.179688 C 17.441406 9.042969 17.546875 8.964844 17.695312 8.945312 Z M 17.695312 8.945312 "/>
    </g>
    <mask id="mask13">
      <g filter="url(#alpha)">
        <rect x="0" y="0" width="25" height="25" style="fill:rgb(0%,0%,0%);fill-opacity:0.0705882;stroke:none;"/>
      </g>
    </mask>
    <clipPath id="clip14">
      <rect x="0" y="0" width="25" height="25"/>
    </clipPath>
    <g id="surface44" clip-path="url(#clip14)">
      <path style=" stroke:none;fill-rule:evenodd;fill:rgb(45.098039%,43.921569%,61.960784%);fill-opacity:1;" d="M 16.835938 9.726562 C 16.800781 9.835938 16.722656 9.886719 16.601562 9.882812 C 16.636719 9.773438 16.714844 9.722656 16.835938 9.726562 Z M 16.835938 9.726562 "/>
    </g>
    <mask id="mask14">
      <g filter="url(#alpha)">
        <rect x="0" y="0" width="25" height="25" style="fill:rgb(0%,0%,0%);fill-opacity:0.639216;stroke:none;"/>
      </g>
    </mask>
    <clipPath id="clip15">
      <rect x="0" y="0" width="25" height="25"/>
    </clipPath>
    <g id="surface47" clip-path="url(#clip15)">
      <path style=" stroke:none;fill-rule:evenodd;fill:rgb(35.294118%,51.764706%,53.333333%);fill-opacity:1;" d="M 6.367188 9.960938 C 6.375 10.167969 6.320312 10.351562 6.210938 10.507812 C 6.203125 10.300781 6.257812 10.117188 6.367188 9.960938 Z M 6.367188 9.960938 "/>
    </g>
    <mask id="mask15">
      <g filter="url(#alpha)">
        <rect x="0" y="0" width="25" height="25" style="fill:rgb(0%,0%,0%);fill-opacity:0.996078;stroke:none;"/>
      </g>
    </mask>
    <clipPath id="clip16">
      <rect x="0" y="0" width="25" height="25"/>
    </clipPath>
    <g id="surface50" clip-path="url(#clip16)">
      <path style=" stroke:none;fill-rule:evenodd;fill:rgb(12.54902%,68.235294%,39.607843%);fill-opacity:1;" d="M 6.757812 9.101562 C 6.746094 9.183594 6.757812 9.261719 6.796875 9.335938 C 8.261719 11.261719 10.175781 12.511719 12.539062 13.085938 C 12.121094 13.425781 11.707031 13.761719 11.289062 14.101562 C 11.234375 14.132812 11.195312 14.1875 11.171875 14.257812 C 9.1875 13.640625 7.484375 12.597656 6.054688 11.132812 C 6.054688 11.105469 6.054688 11.082031 6.054688 11.054688 C 6.164062 10.898438 6.21875 10.714844 6.210938 10.507812 C 6.320312 10.351562 6.375 10.167969 6.367188 9.960938 C 6.453125 9.648438 6.582031 9.363281 6.757812 9.101562 Z M 6.757812 9.101562 "/>
    </g>
    <mask id="mask16">
      <g filter="url(#alpha)">
        <rect x="0" y="0" width="25" height="25" style="fill:rgb(0%,0%,0%);fill-opacity:0.0705882;stroke:none;"/>
      </g>
    </mask>
    <clipPath id="clip17">
      <rect x="0" y="0" width="25" height="25"/>
    </clipPath>
    <g id="surface53" clip-path="url(#clip17)">
      <path style=" stroke:none;fill-rule:evenodd;fill:rgb(45.098039%,43.921569%,61.960784%);fill-opacity:1;" d="M 16.289062 10.195312 C 16.253906 10.304688 16.175781 10.355469 16.054688 10.351562 C 16.089844 10.242188 16.167969 10.191406 16.289062 10.195312 Z M 16.289062 10.195312 "/>
    </g>
    <mask id="mask17">
      <g filter="url(#alpha)">
        <rect x="0" y="0" width="25" height="25" style="fill:rgb(0%,0%,0%);fill-opacity:0.121569;stroke:none;"/>
      </g>
    </mask>
    <clipPath id="clip18">
      <rect x="0" y="0" width="25" height="25"/>
    </clipPath>
    <g id="surface56" clip-path="url(#clip18)">
      <path style=" stroke:none;fill-rule:evenodd;fill:rgb(46.27451%,43.137255%,60.784314%);fill-opacity:1;" d="M 15.820312 10.585938 C 15.707031 10.6875 15.65625 10.820312 15.664062 10.976562 C 15.585938 10.949219 15.535156 10.898438 15.507812 10.820312 C 15.566406 10.683594 15.671875 10.605469 15.820312 10.585938 Z M 15.820312 10.585938 "/>
    </g>
    <mask id="mask18">
      <g filter="url(#alpha)">
        <rect x="0" y="0" width="25" height="25" style="fill:rgb(0%,0%,0%);fill-opacity:0.317647;stroke:none;"/>
      </g>
    </mask>
    <clipPath id="clip19">
      <rect x="0" y="0" width="25" height="25"/>
    </clipPath>
    <g id="surface59" clip-path="url(#clip19)">
      <path style=" stroke:none;fill-rule:evenodd;fill:rgb(36.470588%,49.411765%,54.509804%);fill-opacity:1;" d="M 6.210938 10.507812 C 6.21875 10.714844 6.164062 10.898438 6.054688 11.054688 C 6.046875 10.847656 6.101562 10.664062 6.210938 10.507812 Z M 6.210938 10.507812 "/>
    </g>
    <mask id="mask19">
      <g filter="url(#alpha)">
        <rect x="0" y="0" width="25" height="25" style="fill:rgb(0%,0%,0%);fill-opacity:0.490196;stroke:none;"/>
      </g>
    </mask>
    <clipPath id="clip20">
      <rect x="0" y="0" width="25" height="25"/>
    </clipPath>
    <g id="surface62" clip-path="url(#clip20)">
      <path style=" stroke:none;fill-rule:evenodd;fill:rgb(54.117647%,40.784314%,54.117647%);fill-opacity:1;" d="M 15.664062 10.976562 C 15.878906 11.113281 16.035156 11.292969 16.132812 11.523438 C 15.917969 11.386719 15.761719 11.207031 15.664062 10.976562 Z M 15.664062 10.976562 "/>
    </g>
    <mask id="mask20">
      <g filter="url(#alpha)">
        <rect x="0" y="0" width="25" height="25" style="fill:rgb(0%,0%,0%);fill-opacity:0.168627;stroke:none;"/>
      </g>
    </mask>
    <clipPath id="clip21">
      <rect x="0" y="0" width="25" height="25"/>
    </clipPath>
    <g id="surface65" clip-path="url(#clip21)">
      <path style=" stroke:none;fill-rule:evenodd;fill:rgb(50.588235%,40.784314%,58.431373%);fill-opacity:1;" d="M 16.132812 11.523438 C 16.296875 11.609375 16.398438 11.738281 16.445312 11.914062 C 16.28125 11.828125 16.179688 11.699219 16.132812 11.523438 Z M 16.132812 11.523438 "/>
    </g>
    <mask id="mask21">
      <g filter="url(#alpha)">
        <rect x="0" y="0" width="25" height="25" style="fill:rgb(0%,0%,0%);fill-opacity:0.447059;stroke:none;"/>
      </g>
    </mask>
    <clipPath id="clip22">
      <rect x="0" y="0" width="25" height="25"/>
    </clipPath>
    <g id="surface68" clip-path="url(#clip22)">
      <path style=" stroke:none;fill-rule:evenodd;fill:rgb(51.372549%,41.568627%,56.078431%);fill-opacity:1;" d="M 16.445312 11.914062 C 16.582031 11.972656 16.660156 12.078125 16.679688 12.226562 C 16.542969 12.167969 16.464844 12.0625 16.445312 11.914062 Z M 16.445312 11.914062 "/>
    </g>
    <mask id="mask22">
      <g filter="url(#alpha)">
        <rect x="0" y="0" width="25" height="25" style="fill:rgb(0%,0%,0%);fill-opacity:0.345098;stroke:none;"/>
      </g>
    </mask>
    <clipPath id="clip23">
      <rect x="0" y="0" width="25" height="25"/>
    </clipPath>
    <g id="surface71" clip-path="url(#clip23)">
      <path style=" stroke:none;fill-rule:evenodd;fill:rgb(50.196078%,41.176471%,58.039216%);fill-opacity:1;" d="M 16.679688 12.226562 C 16.789062 12.261719 16.839844 12.339844 16.835938 12.460938 C 16.726562 12.425781 16.675781 12.347656 16.679688 12.226562 Z M 16.679688 12.226562 "/>
    </g>
    <mask id="mask23">
      <g filter="url(#alpha)">
        <rect x="0" y="0" width="25" height="25" style="fill:rgb(0%,0%,0%);fill-opacity:0.160784;stroke:none;"/>
      </g>
    </mask>
    <clipPath id="clip24">
      <rect x="0" y="0" width="25" height="25"/>
    </clipPath>
    <g id="surface74" clip-path="url(#clip24)">
      <path style=" stroke:none;fill-rule:evenodd;fill:rgb(51.372549%,40.784314%,57.647059%);fill-opacity:1;" d="M 16.835938 12.460938 C 17.121094 12.71875 17.328125 13.03125 17.460938 13.398438 C 17.355469 13.292969 17.253906 13.191406 17.148438 13.085938 C 17.042969 12.878906 16.941406 12.667969 16.835938 12.460938 Z M 16.835938 12.460938 "/>
    </g>
    <mask id="mask24">
      <g filter="url(#alpha)">
        <rect x="0" y="0" width="25" height="25" style="fill:rgb(0%,0%,0%);fill-opacity:0.329412;stroke:none;"/>
      </g>
    </mask>
    <clipPath id="clip25">
      <rect x="0" y="0" width="25" height="25"/>
    </clipPath>
    <g id="surface77" clip-path="url(#clip25)">
      <path style=" stroke:none;fill-rule:evenodd;fill:rgb(50.980392%,41.176471%,56.862745%);fill-opacity:1;" d="M 17.539062 13.554688 C 17.648438 13.589844 17.699219 13.667969 17.695312 13.789062 C 17.585938 13.753906 17.535156 13.675781 17.539062 13.554688 Z M 17.539062 13.554688 "/>
    </g>
    <mask id="mask25">
      <g filter="url(#alpha)">
        <rect x="0" y="0" width="25" height="25" style="fill:rgb(0%,0%,0%);fill-opacity:0.027451;stroke:none;"/>
      </g>
    </mask>
    <clipPath id="clip26">
      <rect x="0" y="0" width="25" height="25"/>
    </clipPath>
    <g id="surface80" clip-path="url(#clip26)">
      <path style=" stroke:none;fill-rule:evenodd;fill:rgb(42.352941%,42.745098%,59.215686%);fill-opacity:1;" d="M 6.054688 14.023438 C 6.179688 14.316406 6.257812 14.628906 6.289062 14.960938 C 6.140625 14.675781 6.0625 14.363281 6.054688 14.023438 Z M 6.054688 14.023438 "/>
    </g>
    <mask id="mask26">
      <g filter="url(#alpha)">
        <rect x="0" y="0" width="25" height="25" style="fill:rgb(0%,0%,0%);fill-opacity:0.101961;stroke:none;"/>
      </g>
    </mask>
    <clipPath id="clip27">
      <rect x="0" y="0" width="25" height="25"/>
    </clipPath>
    <g id="surface83" clip-path="url(#clip27)">
      <path style=" stroke:none;fill-rule:evenodd;fill:rgb(51.764706%,41.176471%,56.862745%);fill-opacity:1;" d="M 17.929688 14.257812 C 18.054688 14.320312 18.105469 14.421875 18.085938 14.570312 C 17.996094 14.492188 17.941406 14.386719 17.929688 14.257812 Z M 17.929688 14.257812 "/>
    </g>
    <mask id="mask27">
      <g filter="url(#alpha)">
        <rect x="0" y="0" width="25" height="25" style="fill:rgb(0%,0%,0%);fill-opacity:0.0784314;stroke:none;"/>
      </g>
    </mask>
    <clipPath id="clip28">
      <rect x="0" y="0" width="25" height="25"/>
    </clipPath>
    <g id="surface86" clip-path="url(#clip28)">
      <path style=" stroke:none;fill-rule:evenodd;fill:rgb(49.803922%,40.784314%,59.607843%);fill-opacity:1;" d="M 18.242188 14.882812 C 18.355469 14.984375 18.40625 15.113281 18.398438 15.273438 C 18.285156 15.171875 18.234375 15.042969 18.242188 14.882812 Z M 18.242188 14.882812 "/>
    </g>
    <mask id="mask28">
      <g filter="url(#alpha)">
        <rect x="0" y="0" width="25" height="25" style="fill:rgb(0%,0%,0%);fill-opacity:0.231373;stroke:none;"/>
      </g>
    </mask>
    <clipPath id="clip29">
      <rect x="0" y="0" width="25" height="25"/>
    </clipPath>
    <g id="surface89" clip-path="url(#clip29)">
      <path style=" stroke:none;fill-rule:evenodd;fill:rgb(42.745098%,41.568627%,59.215686%);fill-opacity:1;" d="M 6.289062 14.960938 C 6.402344 15.0625 6.453125 15.191406 6.445312 15.351562 C 6.332031 15.25 6.28125 15.121094 6.289062 14.960938 Z M 6.289062 14.960938 "/>
    </g>
    <mask id="mask29">
      <g filter="url(#alpha)">
        <rect x="0" y="0" width="25" height="25" style="fill:rgb(0%,0%,0%);fill-opacity:0.65098;stroke:none;"/>
      </g>
    </mask>
    <clipPath id="clip30">
      <rect x="0" y="0" width="25" height="25"/>
    </clipPath>
    <g id="surface92" clip-path="url(#clip30)">
      <path style=" stroke:none;fill-rule:evenodd;fill:rgb(57.647059%,41.960784%,51.372549%);fill-opacity:1;" d="M 18.398438 15.273438 C 18.554688 15.53125 18.632812 15.816406 18.632812 16.132812 C 18.511719 15.867188 18.433594 15.582031 18.398438 15.273438 Z M 18.398438 15.273438 "/>
    </g>
    <mask id="mask30">
      <g filter="url(#alpha)">
        <rect x="0" y="0" width="25" height="25" style="fill:rgb(0%,0%,0%);fill-opacity:0.705882;stroke:none;"/>
      </g>
    </mask>
    <clipPath id="clip31">
      <rect x="0" y="0" width="25" height="25"/>
    </clipPath>
    <g id="surface95" clip-path="url(#clip31)">
      <path style=" stroke:none;fill-rule:evenodd;fill:rgb(35.686275%,46.27451%,51.372549%);fill-opacity:1;" d="M 6.757812 16.054688 C 6.9375 16.152344 7.042969 16.308594 7.070312 16.523438 C 6.929688 16.398438 6.824219 16.242188 6.757812 16.054688 Z M 6.757812 16.054688 "/>
    </g>
    <mask id="mask31">
      <g filter="url(#alpha)">
        <rect x="0" y="0" width="25" height="25" style="fill:rgb(0%,0%,0%);fill-opacity:0.65098;stroke:none;"/>
      </g>
    </mask>
    <clipPath id="clip32">
      <rect x="0" y="0" width="25" height="25"/>
    </clipPath>
    <g id="surface98" clip-path="url(#clip32)">
      <path style=" stroke:none;fill-rule:evenodd;fill:rgb(57.647059%,43.137255%,48.627451%);fill-opacity:1;" d="M 18.632812 16.132812 C 18.722656 16.535156 18.734375 16.953125 18.671875 17.382812 C 18.648438 17.453125 18.609375 17.507812 18.554688 17.539062 C 18.621094 17.074219 18.648438 16.605469 18.632812 16.132812 Z M 18.632812 16.132812 "/>
    </g>
    <mask id="mask32">
      <g filter="url(#alpha)">
        <rect x="0" y="0" width="25" height="25" style="fill:rgb(0%,0%,0%);fill-opacity:0.0745098;stroke:none;"/>
      </g>
    </mask>
    <clipPath id="clip33">
      <rect x="0" y="0" width="25" height="25"/>
    </clipPath>
    <g id="surface101" clip-path="url(#clip33)">
      <path style=" stroke:none;fill-rule:evenodd;fill:rgb(42.352941%,41.568627%,58.823529%);fill-opacity:1;" d="M 7.460938 17.070312 C 7.570312 17.105469 7.621094 17.183594 7.617188 17.304688 C 7.507812 17.269531 7.457031 17.191406 7.460938 17.070312 Z M 7.460938 17.070312 "/>
    </g>
    <mask id="mask33">
      <g filter="url(#alpha)">
        <rect x="0" y="0" width="25" height="25" style="fill:rgb(0%,0%,0%);fill-opacity:0.0823529;stroke:none;"/>
      </g>
    </mask>
    <clipPath id="clip34">
      <rect x="0" y="0" width="25" height="25"/>
    </clipPath>
    <g id="surface104" clip-path="url(#clip34)">
      <path style=" stroke:none;fill-rule:evenodd;fill:rgb(52.156863%,41.176471%,57.647059%);fill-opacity:1;" d="M 18.554688 17.539062 C 18.558594 17.660156 18.507812 17.738281 18.398438 17.773438 C 18.394531 17.652344 18.445312 17.574219 18.554688 17.539062 Z M 18.554688 17.539062 "/>
    </g>
    <mask id="mask34">
      <g filter="url(#alpha)">
        <rect x="0" y="0" width="25" height="25" style="fill:rgb(0%,0%,0%);fill-opacity:0.647059;stroke:none;"/>
      </g>
    </mask>
    <clipPath id="clip35">
      <rect x="0" y="0" width="25" height="25"/>
    </clipPath>
    <g id="surface107" clip-path="url(#clip35)">
      <path style=" stroke:none;fill-rule:evenodd;fill:rgb(34.117647%,45.098039%,49.803922%);fill-opacity:1;" d="M 8.242188 17.929688 C 8.417969 17.976562 8.546875 18.078125 8.632812 18.242188 C 8.457031 18.195312 8.328125 18.09375 8.242188 17.929688 Z M 8.242188 17.929688 "/>
    </g>
    <mask id="mask35">
      <g filter="url(#alpha)">
        <rect x="0" y="0" width="25" height="25" style="fill:rgb(0%,0%,0%);fill-opacity:0.345098;stroke:none;"/>
      </g>
    </mask>
    <clipPath id="clip36">
      <rect x="0" y="0" width="25" height="25"/>
    </clipPath>
    <g id="surface110" clip-path="url(#clip36)">
      <path style=" stroke:none;fill-rule:evenodd;fill:rgb(38.823529%,42.352941%,55.686275%);fill-opacity:1;" d="M 8.789062 18.398438 C 8.910156 18.394531 8.988281 18.445312 9.023438 18.554688 C 8.902344 18.558594 8.824219 18.507812 8.789062 18.398438 Z M 8.789062 18.398438 "/>
    </g>
    <mask id="mask36">
      <g filter="url(#alpha)">
        <rect x="0" y="0" width="25" height="25" style="fill:rgb(0%,0%,0%);fill-opacity:0.0392157;stroke:none;"/>
      </g>
    </mask>
    <clipPath id="clip37">
      <rect x="0" y="0" width="25" height="25"/>
    </clipPath>
    <g id="surface113" clip-path="url(#clip37)">
      <path style=" stroke:none;fill-rule:evenodd;fill:rgb(45.882353%,40.392157%,62.352941%);fill-opacity:1;" d="M 17.695312 18.398438 C 17.660156 18.507812 17.582031 18.558594 17.460938 18.554688 C 17.496094 18.445312 17.574219 18.394531 17.695312 18.398438 Z M 17.695312 18.398438 "/>
    </g>
    <mask id="mask37">
      <g filter="url(#alpha)">
        <rect x="0" y="0" width="25" height="25" style="fill:rgb(0%,0%,0%);fill-opacity:0.992157;stroke:none;"/>
      </g>
    </mask>
    <clipPath id="clip38">
      <rect x="0" y="0" width="25" height="25"/>
    </clipPath>
    <g id="surface116" clip-path="url(#clip38)">
      <path style=" stroke:none;fill-rule:evenodd;fill:rgb(14.117647%,49.803922%,30.588235%);fill-opacity:1;" d="M 8.632812 18.242188 C 9.921875 18.5625 11.222656 18.835938 12.539062 19.0625 C 13.679688 19.222656 14.824219 19.285156 15.976562 19.257812 C 15.925781 19.308594 15.871094 19.363281 15.820312 19.414062 C 14.503906 19.898438 13.148438 20 11.757812 19.726562 C 11.574219 19.605469 11.367188 19.554688 11.132812 19.570312 C 10.757812 19.515625 10.421875 19.386719 10.117188 19.179688 C 10.039062 19.089844 9.933594 19.035156 9.804688 19.023438 C 9.675781 19.011719 9.570312 18.957031 9.492188 18.867188 C 9.457031 18.757812 9.378906 18.707031 9.257812 18.710938 C 9.222656 18.601562 9.144531 18.550781 9.023438 18.554688 C 8.988281 18.445312 8.910156 18.394531 8.789062 18.398438 C 8.710938 18.371094 8.660156 18.320312 8.632812 18.242188 Z M 8.632812 18.242188 "/>
    </g>
    <mask id="mask38">
      <g filter="url(#alpha)">
        <rect x="0" y="0" width="25" height="25" style="fill:rgb(0%,0%,0%);fill-opacity:0.34902;stroke:none;"/>
      </g>
    </mask>
    <clipPath id="clip39">
      <rect x="0" y="0" width="25" height="25"/>
    </clipPath>
    <g id="surface119" clip-path="url(#clip39)">
      <path style=" stroke:none;fill-rule:evenodd;fill:rgb(38.431373%,42.745098%,54.901961%);fill-opacity:1;" d="M 9.023438 18.554688 C 9.144531 18.550781 9.222656 18.601562 9.257812 18.710938 C 9.136719 18.714844 9.058594 18.664062 9.023438 18.554688 Z M 9.023438 18.554688 "/>
    </g>
    <mask id="mask39">
      <g filter="url(#alpha)">
        <rect x="0" y="0" width="25" height="25" style="fill:rgb(0%,0%,0%);fill-opacity:0.0509804;stroke:none;"/>
      </g>
    </mask>
    <clipPath id="clip40">
      <rect x="0" y="0" width="25" height="25"/>
    </clipPath>
    <g id="surface122" clip-path="url(#clip40)">
      <path style=" stroke:none;fill-rule:evenodd;fill:rgb(45.098039%,40.784314%,61.176471%);fill-opacity:1;" d="M 17.460938 18.554688 C 17.425781 18.664062 17.347656 18.714844 17.226562 18.710938 C 17.261719 18.601562 17.339844 18.550781 17.460938 18.554688 Z M 17.460938 18.554688 "/>
    </g>
    <mask id="mask40">
      <g filter="url(#alpha)">
        <rect x="0" y="0" width="25" height="25" style="fill:rgb(0%,0%,0%);fill-opacity:0.290196;stroke:none;"/>
      </g>
    </mask>
    <clipPath id="clip41">
      <rect x="0" y="0" width="25" height="25"/>
    </clipPath>
    <g id="surface125" clip-path="url(#clip41)">
      <path style=" stroke:none;fill-rule:evenodd;fill:rgb(40.784314%,41.960784%,57.254902%);fill-opacity:1;" d="M 9.257812 18.710938 C 9.378906 18.707031 9.457031 18.757812 9.492188 18.867188 C 9.371094 18.871094 9.292969 18.820312 9.257812 18.710938 Z M 9.257812 18.710938 "/>
    </g>
    <mask id="mask41">
      <g filter="url(#alpha)">
        <rect x="0" y="0" width="25" height="25" style="fill:rgb(0%,0%,0%);fill-opacity:0.0784314;stroke:none;"/>
      </g>
    </mask>
    <clipPath id="clip42">
      <rect x="0" y="0" width="25" height="25"/>
    </clipPath>
    <g id="surface128" clip-path="url(#clip42)">
      <path style=" stroke:none;fill-rule:evenodd;fill:rgb(41.568627%,41.960784%,57.647059%);fill-opacity:1;" d="M 9.804688 19.023438 C 9.933594 19.035156 10.039062 19.089844 10.117188 19.179688 C 9.96875 19.199219 9.867188 19.148438 9.804688 19.023438 Z M 9.804688 19.023438 "/>
    </g>
    <mask id="mask42">
      <g filter="url(#alpha)">
        <rect x="0" y="0" width="25" height="25" style="fill:rgb(0%,0%,0%);fill-opacity:0.0666667;stroke:none;"/>
      </g>
    </mask>
    <clipPath id="clip43">
      <rect x="0" y="0" width="25" height="25"/>
    </clipPath>
    <g id="surface131" clip-path="url(#clip43)">
      <path style=" stroke:none;fill-rule:evenodd;fill:rgb(43.529412%,41.176471%,60%);fill-opacity:1;" d="M 15.976562 19.257812 C 16.054688 19.257812 16.132812 19.257812 16.210938 19.257812 C 16.109375 19.371094 15.980469 19.421875 15.820312 19.414062 C 15.871094 19.363281 15.925781 19.308594 15.976562 19.257812 Z M 15.976562 19.257812 "/>
    </g>
    <mask id="mask43">
      <g filter="url(#alpha)">
        <rect x="0" y="0" width="25" height="25" style="fill:rgb(0%,0%,0%);fill-opacity:0.376471;stroke:none;"/>
      </g>
    </mask>
    <clipPath id="clip44">
      <rect x="0" y="0" width="25" height="25"/>
    </clipPath>
    <g id="surface134" clip-path="url(#clip44)">
      <path style=" stroke:none;fill-rule:evenodd;fill:rgb(36.078431%,43.921569%,52.156863%);fill-opacity:1;" d="M 11.132812 19.570312 C 11.367188 19.554688 11.574219 19.605469 11.757812 19.726562 C 11.527344 19.722656 11.320312 19.667969 11.132812 19.570312 Z M 11.132812 19.570312 "/>
    </g>
  </defs>
  <g id="surface1">
    <path style=" stroke:none;fill-rule:evenodd;fill:rgb(18.823529%,83.921569%,50.980392%);fill-opacity:1;" d="M 14.960938 5.429688 C 15.117188 5.539062 15.300781 5.59375 15.507812 5.585938 C 16.539062 5.867188 17.425781 6.386719 18.164062 7.148438 C 18.191406 7.226562 18.242188 7.277344 18.320312 7.304688 C 18.242188 7.578125 18.085938 7.796875 17.851562 7.96875 C 16.097656 9.097656 14.378906 9.046875 12.695312 7.8125 C 12.003906 7.140625 11.796875 6.347656 12.070312 5.429688 C 12.238281 5.378906 12.394531 5.324219 12.539062 5.273438 C 13.363281 5.167969 14.167969 5.21875 14.960938 5.429688 Z M 14.960938 5.429688 "/>
    <use xlink:href="#surface5" mask="url(#mask0)"/>
    <use xlink:href="#surface8" mask="url(#mask1)"/>
    <use xlink:href="#surface11" mask="url(#mask2)"/>
    <use xlink:href="#surface14" mask="url(#mask3)"/>
    <use xlink:href="#surface17" mask="url(#mask4)"/>
    <path style=" stroke:none;fill-rule:evenodd;fill:rgb(14.509804%,76.078431%,45.098039%);fill-opacity:1;" d="M 9.257812 6.445312 C 9.339844 7.199219 9.613281 7.878906 10.078125 8.476562 C 11.484375 10.03125 13.242188 10.8125 15.351562 10.820312 C 14.980469 11.214844 14.566406 11.554688 14.101562 11.835938 C 11.601562 11.570312 9.660156 10.398438 8.28125 8.320312 C 8.15625 8.0625 8.039062 7.800781 7.929688 7.539062 C 8.164062 7.355469 8.371094 7.148438 8.554688 6.914062 C 8.613281 6.777344 8.71875 6.699219 8.867188 6.679688 C 9.015625 6.632812 9.148438 6.554688 9.257812 6.445312 Z M 9.257812 6.445312 "/>
    <use xlink:href="#surface20" mask="url(#mask5)"/>
    <use xlink:href="#surface23" mask="url(#mask6)"/>
    <use xlink:href="#surface26" mask="url(#mask7)"/>
    <use xlink:href="#surface29" mask="url(#mask8)"/>
    <path style=" stroke:none;fill-rule:evenodd;fill:rgb(14.117647%,72.156863%,42.745098%);fill-opacity:1;" d="M 7.851562 7.539062 C 7.878906 7.539062 7.902344 7.539062 7.929688 7.539062 C 8.039062 7.800781 8.15625 8.0625 8.28125 8.320312 C 9.660156 10.398438 11.601562 11.570312 14.101562 11.835938 C 13.605469 12.28125 13.085938 12.695312 12.539062 13.085938 C 10.175781 12.511719 8.261719 11.261719 6.796875 9.335938 C 6.757812 9.261719 6.746094 9.183594 6.757812 9.101562 C 6.746094 9.023438 6.769531 8.972656 6.835938 8.945312 C 6.945312 8.910156 6.996094 8.832031 6.992188 8.710938 C 7.039062 8.558594 7.117188 8.429688 7.226562 8.320312 C 7.363281 8.261719 7.441406 8.15625 7.460938 8.007812 C 7.554688 7.820312 7.683594 7.664062 7.851562 7.539062 Z M 7.851562 7.539062 "/>
    <use xlink:href="#surface32" mask="url(#mask9)"/>
    <use xlink:href="#surface35" mask="url(#mask10)"/>
    <use xlink:href="#surface38" mask="url(#mask11)"/>
    <use xlink:href="#surface41" mask="url(#mask12)"/>
    <use xlink:href="#surface44" mask="url(#mask13)"/>
    <use xlink:href="#surface47" mask="url(#mask14)"/>
    <use xlink:href="#surface50" mask="url(#mask15)"/>
    <use xlink:href="#surface53" mask="url(#mask16)"/>
    <use xlink:href="#surface56" mask="url(#mask17)"/>
    <use xlink:href="#surface59" mask="url(#mask18)"/>
    <use xlink:href="#surface62" mask="url(#mask19)"/>
    <use xlink:href="#surface65" mask="url(#mask20)"/>
    <use xlink:href="#surface68" mask="url(#mask21)"/>
    <path style=" stroke:none;fill-rule:evenodd;fill:rgb(95.686275%,27.843137%,19.607843%);fill-opacity:1;" d="M 15.351562 10.820312 C 15.402344 10.820312 15.457031 10.820312 15.507812 10.820312 C 15.535156 10.898438 15.585938 10.949219 15.664062 10.976562 C 15.761719 11.207031 15.917969 11.386719 16.132812 11.523438 C 16.179688 11.699219 16.28125 11.828125 16.445312 11.914062 C 16.464844 12.0625 16.542969 12.167969 16.679688 12.226562 C 16.675781 12.347656 16.726562 12.425781 16.835938 12.460938 C 16.941406 12.667969 17.042969 12.878906 17.148438 13.085938 C 15.628906 13.925781 14.066406 14.679688 12.460938 15.351562 C 12.09375 15.003906 11.714844 14.664062 11.328125 14.335938 C 11.289062 14.261719 11.277344 14.183594 11.289062 14.101562 C 11.707031 13.761719 12.121094 13.425781 12.539062 13.085938 C 13.085938 12.695312 13.605469 12.28125 14.101562 11.835938 C 14.566406 11.554688 14.980469 11.214844 15.351562 10.820312 Z M 15.351562 10.820312 "/>
    <path style=" stroke:none;fill-rule:evenodd;fill:rgb(12.156863%,62.745098%,36.470588%);fill-opacity:1;" d="M 6.054688 11.132812 C 7.484375 12.597656 9.1875 13.640625 11.171875 14.257812 C 11.195312 14.1875 11.234375 14.132812 11.289062 14.101562 C 11.277344 14.183594 11.289062 14.261719 11.328125 14.335938 C 11.714844 14.664062 12.09375 15.003906 12.460938 15.351562 C 12.746094 15.613281 13.035156 15.871094 13.320312 16.132812 C 11.199219 15.933594 9.191406 15.296875 7.304688 14.21875 C 6.871094 13.925781 6.425781 13.652344 5.976562 13.398438 C 5.925781 13.125 5.898438 12.839844 5.898438 12.539062 C 5.890625 12.050781 5.941406 11.582031 6.054688 11.132812 Z M 6.054688 11.132812 "/>
    <use xlink:href="#surface71" mask="url(#mask22)"/>
    <use xlink:href="#surface74" mask="url(#mask23)"/>
    <use xlink:href="#surface77" mask="url(#mask24)"/>
    <path style=" stroke:none;fill-rule:evenodd;fill:rgb(96.078431%,32.54902%,24.705882%);fill-opacity:1;" d="M 17.148438 13.085938 C 17.253906 13.191406 17.355469 13.292969 17.460938 13.398438 C 17.527344 13.425781 17.550781 13.476562 17.539062 13.554688 C 17.535156 13.675781 17.585938 13.753906 17.695312 13.789062 C 17.8125 13.921875 17.890625 14.078125 17.929688 14.257812 C 17.941406 14.386719 17.996094 14.492188 18.085938 14.570312 C 18.152344 14.597656 18.175781 14.648438 18.164062 14.726562 C 18.164062 14.804688 18.164062 14.882812 18.164062 14.960938 C 16.863281 15.558594 15.558594 16.160156 14.257812 16.757812 C 13.925781 16.582031 13.613281 16.371094 13.320312 16.132812 C 13.035156 15.871094 12.746094 15.613281 12.460938 15.351562 C 14.066406 14.679688 15.628906 13.925781 17.148438 13.085938 Z M 17.148438 13.085938 "/>
    <use xlink:href="#surface80" mask="url(#mask25)"/>
    <use xlink:href="#surface83" mask="url(#mask26)"/>
    <path style=" stroke:none;fill-rule:evenodd;fill:rgb(10.196078%,58.039216%,32.941176%);fill-opacity:1;" d="M 5.976562 13.398438 C 6.425781 13.652344 6.871094 13.925781 7.304688 14.21875 C 9.191406 15.296875 11.199219 15.933594 13.320312 16.132812 C 13.613281 16.371094 13.925781 16.582031 14.257812 16.757812 C 14.886719 17.203125 15.5625 17.566406 16.289062 17.851562 C 12.882812 18.015625 9.652344 17.3125 6.601562 15.742188 C 6.527344 15.621094 6.476562 15.492188 6.445312 15.351562 C 6.453125 15.191406 6.402344 15.0625 6.289062 14.960938 C 6.257812 14.628906 6.179688 14.316406 6.054688 14.023438 C 5.980469 13.832031 5.953125 13.625 5.976562 13.398438 Z M 5.976562 13.398438 "/>
    <use xlink:href="#surface86" mask="url(#mask27)"/>
    <use xlink:href="#surface89" mask="url(#mask28)"/>
    <use xlink:href="#surface92" mask="url(#mask29)"/>
    <path style=" stroke:none;fill-rule:evenodd;fill:rgb(97.254902%,37.647059%,30.588235%);fill-opacity:1;" d="M 18.164062 14.726562 C 18.230469 14.753906 18.253906 14.804688 18.242188 14.882812 C 18.234375 15.042969 18.285156 15.171875 18.398438 15.273438 C 18.433594 15.582031 18.511719 15.867188 18.632812 16.132812 C 18.648438 16.605469 18.621094 17.074219 18.554688 17.539062 C 18.445312 17.574219 18.394531 17.652344 18.398438 17.773438 C 18.398438 17.824219 18.371094 17.851562 18.320312 17.851562 C 17.644531 18.160156 16.96875 18.160156 16.289062 17.851562 C 15.5625 17.566406 14.886719 17.203125 14.257812 16.757812 C 15.558594 16.160156 16.863281 15.558594 18.164062 14.960938 C 18.164062 14.882812 18.164062 14.804688 18.164062 14.726562 Z M 18.164062 14.726562 "/>
    <path style=" stroke:none;fill-rule:evenodd;fill:rgb(10.196078%,54.117647%,30.588235%);fill-opacity:1;" d="M 6.601562 15.742188 C 9.652344 17.3125 12.882812 18.015625 16.289062 17.851562 C 16.96875 18.160156 17.644531 18.160156 18.320312 17.851562 C 18.113281 18.03125 17.90625 18.214844 17.695312 18.398438 C 17.574219 18.394531 17.496094 18.445312 17.460938 18.554688 C 17.339844 18.550781 17.261719 18.601562 17.226562 18.710938 C 16.925781 18.953125 16.585938 19.136719 16.210938 19.257812 C 16.132812 19.257812 16.054688 19.257812 15.976562 19.257812 C 14.824219 19.285156 13.679688 19.222656 12.539062 19.0625 C 11.222656 18.835938 9.921875 18.5625 8.632812 18.242188 C 8.546875 18.078125 8.417969 17.976562 8.242188 17.929688 C 8.007812 17.746094 7.800781 17.539062 7.617188 17.304688 C 7.621094 17.183594 7.570312 17.105469 7.460938 17.070312 C 7.273438 16.929688 7.144531 16.746094 7.070312 16.523438 C 7.042969 16.308594 6.9375 16.152344 6.757812 16.054688 C 6.667969 15.976562 6.613281 15.871094 6.601562 15.742188 Z M 6.601562 15.742188 "/>
    <use xlink:href="#surface95" mask="url(#mask30)"/>
    <use xlink:href="#surface98" mask="url(#mask31)"/>
    <use xlink:href="#surface101" mask="url(#mask32)"/>
    <use xlink:href="#surface104" mask="url(#mask33)"/>
    <use xlink:href="#surface107" mask="url(#mask34)"/>
    <use xlink:href="#surface110" mask="url(#mask35)"/>
    <use xlink:href="#surface113" mask="url(#mask36)"/>
    <use xlink:href="#surface116" mask="url(#mask37)"/>
    <use xlink:href="#surface119" mask="url(#mask38)"/>
    <use xlink:href="#surface122" mask="url(#mask39)"/>
    <use xlink:href="#surface125" mask="url(#mask40)"/>
    <use xlink:href="#surface128" mask="url(#mask41)"/>
    <use xlink:href="#surface131" mask="url(#mask42)"/>
    <use xlink:href="#surface134" mask="url(#mask43)"/>
  </g>
</svg>
