<?xml version="1.0" encoding="UTF-8"?>
<svg xmlns="http://www.w3.org/2000/svg" xmlns:xlink="http://www.w3.org/1999/xlink" width="50px" height="50px" viewBox="0 0 50 50" version="1.1">
<defs>
<filter id="alpha" filterUnits="objectBoundingBox" x="0%" y="0%" width="100%" height="100%">
  <feColorMatrix type="matrix" in="SourceGraphic" values="0 0 0 0 1 0 0 0 0 1 0 0 0 0 1 0 0 0 1 0"/>
</filter>
<mask id="mask0">
  <g filter="url(#alpha)">
<rect x="0" y="0" width="50" height="50" style="fill:rgb(0%,0%,0%);fill-opacity:0.576471;stroke:none;"/>
  </g>
</mask>
<clipPath id="clip1">
  <rect x="0" y="0" width="50" height="50"/>
</clipPath>
<g id="surface5" clip-path="url(#clip1)">
<path style=" stroke:none;fill-rule:evenodd;fill:rgb(38.431373%,55.294118%,58.823529%);fill-opacity:1;" d="M 23.671875 10.703125 C 23.296875 10.902344 22.878906 11.003906 22.421875 11.015625 C 22.789062 10.773438 23.203125 10.671875 23.671875 10.703125 Z M 23.671875 10.703125 "/>
</g>
<mask id="mask1">
  <g filter="url(#alpha)">
<rect x="0" y="0" width="50" height="50" style="fill:rgb(0%,0%,0%);fill-opacity:0.0627451;stroke:none;"/>
  </g>
</mask>
<clipPath id="clip2">
  <rect x="0" y="0" width="50" height="50"/>
</clipPath>
<g id="surface8" clip-path="url(#clip2)">
<path style=" stroke:none;fill-rule:evenodd;fill:rgb(43.921569%,48.235294%,61.568627%);fill-opacity:1;" d="M 29.921875 10.859375 C 30.335938 10.84375 30.699219 10.949219 31.015625 11.171875 C 30.601562 11.1875 30.238281 11.082031 29.921875 10.859375 Z M 29.921875 10.859375 "/>
</g>
<mask id="mask2">
  <g filter="url(#alpha)">
<rect x="0" y="0" width="50" height="50" style="fill:rgb(0%,0%,0%);fill-opacity:0.996078;stroke:none;"/>
  </g>
</mask>
<clipPath id="clip3">
  <rect x="0" y="0" width="50" height="50"/>
</clipPath>
<g id="surface11" clip-path="url(#clip3)">
<path style=" stroke:none;fill-rule:evenodd;fill:rgb(17.254902%,80.392157%,48.235294%);fill-opacity:1;" d="M 25.078125 10.546875 C 24.785156 10.652344 24.472656 10.753906 24.140625 10.859375 C 23.589844 12.695312 24.007812 14.28125 25.390625 15.625 C 28.757812 18.089844 32.195312 18.195312 35.703125 15.9375 C 36.175781 15.597656 36.488281 15.15625 36.640625 14.609375 C 36.691406 14.609375 36.746094 14.609375 36.796875 14.609375 C 36.835938 14.90625 36.992188 15.117188 37.265625 15.234375 C 37.359375 15.722656 37.203125 16.089844 36.796875 16.328125 C 36.523438 16.445312 36.367188 16.65625 36.328125 16.953125 C 36.066406 17.316406 35.753906 17.628906 35.390625 17.890625 C 35.09375 17.929688 34.882812 18.085938 34.765625 18.359375 C 34.453125 18.777344 34.089844 19.140625 33.671875 19.453125 C 33.433594 19.441406 33.277344 19.546875 33.203125 19.765625 C 33.046875 20.027344 32.839844 20.234375 32.578125 20.390625 C 32.339844 20.378906 32.183594 20.484375 32.109375 20.703125 C 32.003906 20.910156 31.847656 21.066406 31.640625 21.171875 C 31.34375 21.210938 31.132812 21.367188 31.015625 21.640625 C 30.910156 21.640625 30.808594 21.640625 30.703125 21.640625 C 26.484375 21.625 22.96875 20.0625 20.15625 16.953125 C 19.226562 15.753906 18.679688 14.402344 18.515625 12.890625 C 18.515625 12.839844 18.515625 12.785156 18.515625 12.734375 C 18.570312 12.601562 18.671875 12.550781 18.828125 12.578125 C 19.066406 12.589844 19.222656 12.484375 19.296875 12.265625 C 19.804688 11.882812 20.378906 11.621094 21.015625 11.484375 C 21.539062 11.453125 22.007812 11.296875 22.421875 11.015625 C 22.878906 11.003906 23.296875 10.902344 23.671875 10.703125 C 24.125 10.5625 24.59375 10.511719 25.078125 10.546875 Z M 25.078125 10.546875 "/>
</g>
<mask id="mask3">
  <g filter="url(#alpha)">
<rect x="0" y="0" width="50" height="50" style="fill:rgb(0%,0%,0%);fill-opacity:0.568627;stroke:none;"/>
  </g>
</mask>
<clipPath id="clip4">
  <rect x="0" y="0" width="50" height="50"/>
</clipPath>
<g id="surface14" clip-path="url(#clip4)">
<path style=" stroke:none;fill-rule:evenodd;fill:rgb(38.431373%,57.254902%,58.039216%);fill-opacity:1;" d="M 22.421875 11.015625 C 22.007812 11.296875 21.539062 11.453125 21.015625 11.484375 C 21.417969 11.175781 21.886719 11.019531 22.421875 11.015625 Z M 22.421875 11.015625 "/>
</g>
<mask id="mask4">
  <g filter="url(#alpha)">
<rect x="0" y="0" width="50" height="50" style="fill:rgb(0%,0%,0%);fill-opacity:0.533333;stroke:none;"/>
  </g>
</mask>
<clipPath id="clip5">
  <rect x="0" y="0" width="50" height="50"/>
</clipPath>
<g id="surface17" clip-path="url(#clip5)">
<path style=" stroke:none;fill-rule:evenodd;fill:rgb(39.607843%,52.54902%,58.823529%);fill-opacity:1;" d="M 19.296875 12.265625 C 19.222656 12.484375 19.066406 12.589844 18.828125 12.578125 C 18.902344 12.359375 19.058594 12.253906 19.296875 12.265625 Z M 19.296875 12.265625 "/>
</g>
<mask id="mask5">
  <g filter="url(#alpha)">
<rect x="0" y="0" width="50" height="50" style="fill:rgb(0%,0%,0%);fill-opacity:0.729412;stroke:none;"/>
  </g>
</mask>
<clipPath id="clip6">
  <rect x="0" y="0" width="50" height="50"/>
</clipPath>
<g id="surface20" clip-path="url(#clip6)">
<path style=" stroke:none;fill-rule:evenodd;fill:rgb(34.901961%,60.784314%,54.901961%);fill-opacity:1;" d="M 18.515625 12.734375 C 18.515625 12.785156 18.515625 12.839844 18.515625 12.890625 C 18.292969 13.113281 18.03125 13.269531 17.734375 13.359375 C 17.902344 13.035156 18.164062 12.824219 18.515625 12.734375 Z M 18.515625 12.734375 "/>
</g>
<mask id="mask6">
  <g filter="url(#alpha)">
<rect x="0" y="0" width="50" height="50" style="fill:rgb(0%,0%,0%);fill-opacity:0.0941176;stroke:none;"/>
  </g>
</mask>
<clipPath id="clip7">
  <rect x="0" y="0" width="50" height="50"/>
</clipPath>
<g id="surface23" clip-path="url(#clip7)">
<path style=" stroke:none;fill-rule:evenodd;fill:rgb(43.529412%,47.843137%,61.568627%);fill-opacity:1;" d="M 36.328125 14.296875 C 36.566406 14.285156 36.722656 14.390625 36.796875 14.609375 C 36.746094 14.609375 36.691406 14.609375 36.640625 14.609375 C 36.484375 14.558594 36.378906 14.453125 36.328125 14.296875 Z M 36.328125 14.296875 "/>
</g>
<mask id="mask7">
  <g filter="url(#alpha)">
<rect x="0" y="0" width="50" height="50" style="fill:rgb(0%,0%,0%);fill-opacity:0.666667;stroke:none;"/>
  </g>
</mask>
<clipPath id="clip8">
  <rect x="0" y="0" width="50" height="50"/>
</clipPath>
<g id="surface26" clip-path="url(#clip8)">
<path style=" stroke:none;fill-rule:evenodd;fill:rgb(34.901961%,58.823529%,54.117647%);fill-opacity:1;" d="M 17.109375 13.828125 C 16.746094 14.296875 16.328125 14.714844 15.859375 15.078125 C 15.808594 15.078125 15.753906 15.078125 15.703125 15.078125 C 16.078125 14.546875 16.546875 14.128906 17.109375 13.828125 Z M 17.109375 13.828125 "/>
</g>
<mask id="mask8">
  <g filter="url(#alpha)">
<rect x="0" y="0" width="50" height="50" style="fill:rgb(0%,0%,0%);fill-opacity:0.568627;stroke:none;"/>
  </g>
</mask>
<clipPath id="clip9">
  <rect x="0" y="0" width="50" height="50"/>
</clipPath>
<g id="surface29" clip-path="url(#clip9)">
<path style=" stroke:none;fill-rule:evenodd;fill:rgb(40.392157%,53.72549%,59.215686%);fill-opacity:1;" d="M 36.796875 14.609375 C 37.070312 14.726562 37.226562 14.9375 37.265625 15.234375 C 36.992188 15.117188 36.835938 14.90625 36.796875 14.609375 Z M 36.796875 14.609375 "/>
</g>
<mask id="mask9">
  <g filter="url(#alpha)">
<rect x="0" y="0" width="50" height="50" style="fill:rgb(0%,0%,0%);fill-opacity:0.462745;stroke:none;"/>
  </g>
</mask>
<clipPath id="clip10">
  <rect x="0" y="0" width="50" height="50"/>
</clipPath>
<g id="surface32" clip-path="url(#clip10)">
<path style=" stroke:none;fill-rule:evenodd;fill:rgb(40%,49.803922%,58.431373%);fill-opacity:1;" d="M 14.921875 16.015625 C 14.882812 16.3125 14.726562 16.523438 14.453125 16.640625 C 14.492188 16.34375 14.648438 16.132812 14.921875 16.015625 Z M 14.921875 16.015625 "/>
</g>
<mask id="mask10">
  <g filter="url(#alpha)">
<rect x="0" y="0" width="50" height="50" style="fill:rgb(0%,0%,0%);fill-opacity:0.113725;stroke:none;"/>
  </g>
</mask>
<clipPath id="clip11">
  <rect x="0" y="0" width="50" height="50"/>
</clipPath>
<g id="surface35" clip-path="url(#clip11)">
<path style=" stroke:none;fill-rule:evenodd;fill:rgb(44.705882%,44.705882%,62.352941%);fill-opacity:1;" d="M 36.796875 16.328125 C 36.757812 16.625 36.601562 16.835938 36.328125 16.953125 C 36.367188 16.65625 36.523438 16.445312 36.796875 16.328125 Z M 36.796875 16.328125 "/>
</g>
<mask id="mask11">
  <g filter="url(#alpha)">
<rect x="0" y="0" width="50" height="50" style="fill:rgb(0%,0%,0%);fill-opacity:0.329412;stroke:none;"/>
  </g>
</mask>
<clipPath id="clip12">
  <rect x="0" y="0" width="50" height="50"/>
</clipPath>
<g id="surface38" clip-path="url(#clip12)">
<path style=" stroke:none;fill-rule:evenodd;fill:rgb(39.607843%,48.235294%,57.647059%);fill-opacity:1;" d="M 13.984375 17.421875 C 13.996094 17.660156 13.890625 17.816406 13.671875 17.890625 C 13.660156 17.652344 13.765625 17.496094 13.984375 17.421875 Z M 13.984375 17.421875 "/>
</g>
<mask id="mask12">
  <g filter="url(#alpha)">
<rect x="0" y="0" width="50" height="50" style="fill:rgb(0%,0%,0%);fill-opacity:0.117647;stroke:none;"/>
  </g>
</mask>
<clipPath id="clip13">
  <rect x="0" y="0" width="50" height="50"/>
</clipPath>
<g id="surface41" clip-path="url(#clip13)">
<path style=" stroke:none;fill-rule:evenodd;fill:rgb(44.313725%,45.490196%,61.960784%);fill-opacity:1;" d="M 35.390625 17.890625 C 35.273438 18.164062 35.0625 18.320312 34.765625 18.359375 C 34.882812 18.085938 35.09375 17.929688 35.390625 17.890625 Z M 35.390625 17.890625 "/>
</g>
<mask id="mask13">
  <g filter="url(#alpha)">
<rect x="0" y="0" width="50" height="50" style="fill:rgb(0%,0%,0%);fill-opacity:0.0705882;stroke:none;"/>
  </g>
</mask>
<clipPath id="clip14">
  <rect x="0" y="0" width="50" height="50"/>
</clipPath>
<g id="surface44" clip-path="url(#clip14)">
<path style=" stroke:none;fill-rule:evenodd;fill:rgb(45.098039%,43.921569%,61.960784%);fill-opacity:1;" d="M 33.671875 19.453125 C 33.597656 19.671875 33.441406 19.777344 33.203125 19.765625 C 33.277344 19.546875 33.433594 19.441406 33.671875 19.453125 Z M 33.671875 19.453125 "/>
</g>
<mask id="mask14">
  <g filter="url(#alpha)">
<rect x="0" y="0" width="50" height="50" style="fill:rgb(0%,0%,0%);fill-opacity:0.639216;stroke:none;"/>
  </g>
</mask>
<clipPath id="clip15">
  <rect x="0" y="0" width="50" height="50"/>
</clipPath>
<g id="surface47" clip-path="url(#clip15)">
<path style=" stroke:none;fill-rule:evenodd;fill:rgb(35.294118%,51.764706%,53.333333%);fill-opacity:1;" d="M 12.734375 19.921875 C 12.75 20.335938 12.644531 20.699219 12.421875 21.015625 C 12.40625 20.601562 12.511719 20.238281 12.734375 19.921875 Z M 12.734375 19.921875 "/>
</g>
<mask id="mask15">
  <g filter="url(#alpha)">
<rect x="0" y="0" width="50" height="50" style="fill:rgb(0%,0%,0%);fill-opacity:0.996078;stroke:none;"/>
  </g>
</mask>
<clipPath id="clip16">
  <rect x="0" y="0" width="50" height="50"/>
</clipPath>
<g id="surface50" clip-path="url(#clip16)">
<path style=" stroke:none;fill-rule:evenodd;fill:rgb(12.54902%,68.235294%,39.607843%);fill-opacity:1;" d="M 13.515625 18.203125 C 13.492188 18.367188 13.519531 18.523438 13.59375 18.671875 C 16.523438 22.523438 20.351562 25.023438 25.078125 26.171875 C 24.246094 26.847656 23.410156 27.527344 22.578125 28.203125 C 22.464844 28.269531 22.386719 28.371094 22.34375 28.515625 C 18.378906 27.277344 14.964844 25.195312 12.109375 22.265625 C 12.109375 22.214844 12.109375 22.160156 12.109375 22.109375 C 12.332031 21.792969 12.4375 21.429688 12.421875 21.015625 C 12.644531 20.699219 12.75 20.335938 12.734375 19.921875 C 12.90625 19.296875 13.167969 18.722656 13.515625 18.203125 Z M 13.515625 18.203125 "/>
</g>
<mask id="mask16">
  <g filter="url(#alpha)">
<rect x="0" y="0" width="50" height="50" style="fill:rgb(0%,0%,0%);fill-opacity:0.0705882;stroke:none;"/>
  </g>
</mask>
<clipPath id="clip17">
  <rect x="0" y="0" width="50" height="50"/>
</clipPath>
<g id="surface53" clip-path="url(#clip17)">
<path style=" stroke:none;fill-rule:evenodd;fill:rgb(45.098039%,43.921569%,61.960784%);fill-opacity:1;" d="M 32.578125 20.390625 C 32.503906 20.609375 32.347656 20.714844 32.109375 20.703125 C 32.183594 20.484375 32.339844 20.378906 32.578125 20.390625 Z M 32.578125 20.390625 "/>
</g>
<mask id="mask17">
  <g filter="url(#alpha)">
<rect x="0" y="0" width="50" height="50" style="fill:rgb(0%,0%,0%);fill-opacity:0.121569;stroke:none;"/>
  </g>
</mask>
<clipPath id="clip18">
  <rect x="0" y="0" width="50" height="50"/>
</clipPath>
<g id="surface56" clip-path="url(#clip18)">
<path style=" stroke:none;fill-rule:evenodd;fill:rgb(46.27451%,43.137255%,60.784314%);fill-opacity:1;" d="M 31.640625 21.171875 C 31.414062 21.378906 31.3125 21.636719 31.328125 21.953125 C 31.171875 21.902344 31.066406 21.796875 31.015625 21.640625 C 31.132812 21.367188 31.34375 21.210938 31.640625 21.171875 Z M 31.640625 21.171875 "/>
</g>
<mask id="mask18">
  <g filter="url(#alpha)">
<rect x="0" y="0" width="50" height="50" style="fill:rgb(0%,0%,0%);fill-opacity:0.317647;stroke:none;"/>
  </g>
</mask>
<clipPath id="clip19">
  <rect x="0" y="0" width="50" height="50"/>
</clipPath>
<g id="surface59" clip-path="url(#clip19)">
<path style=" stroke:none;fill-rule:evenodd;fill:rgb(36.470588%,49.411765%,54.509804%);fill-opacity:1;" d="M 12.421875 21.015625 C 12.4375 21.429688 12.332031 21.792969 12.109375 22.109375 C 12.09375 21.695312 12.199219 21.332031 12.421875 21.015625 Z M 12.421875 21.015625 "/>
</g>
<mask id="mask19">
  <g filter="url(#alpha)">
<rect x="0" y="0" width="50" height="50" style="fill:rgb(0%,0%,0%);fill-opacity:0.490196;stroke:none;"/>
  </g>
</mask>
<clipPath id="clip20">
  <rect x="0" y="0" width="50" height="50"/>
</clipPath>
<g id="surface62" clip-path="url(#clip20)">
<path style=" stroke:none;fill-rule:evenodd;fill:rgb(54.117647%,40.784314%,54.117647%);fill-opacity:1;" d="M 31.328125 21.953125 C 31.757812 22.226562 32.070312 22.589844 32.265625 23.046875 C 31.835938 22.773438 31.523438 22.410156 31.328125 21.953125 Z M 31.328125 21.953125 "/>
</g>
<mask id="mask20">
  <g filter="url(#alpha)">
<rect x="0" y="0" width="50" height="50" style="fill:rgb(0%,0%,0%);fill-opacity:0.168627;stroke:none;"/>
  </g>
</mask>
<clipPath id="clip21">
  <rect x="0" y="0" width="50" height="50"/>
</clipPath>
<g id="surface65" clip-path="url(#clip21)">
<path style=" stroke:none;fill-rule:evenodd;fill:rgb(50.588235%,40.784314%,58.431373%);fill-opacity:1;" d="M 32.265625 23.046875 C 32.589844 23.214844 32.800781 23.476562 32.890625 23.828125 C 32.566406 23.660156 32.355469 23.398438 32.265625 23.046875 Z M 32.265625 23.046875 "/>
</g>
<mask id="mask21">
  <g filter="url(#alpha)">
<rect x="0" y="0" width="50" height="50" style="fill:rgb(0%,0%,0%);fill-opacity:0.447059;stroke:none;"/>
  </g>
</mask>
<clipPath id="clip22">
  <rect x="0" y="0" width="50" height="50"/>
</clipPath>
<g id="surface68" clip-path="url(#clip22)">
<path style=" stroke:none;fill-rule:evenodd;fill:rgb(51.372549%,41.568627%,56.078431%);fill-opacity:1;" d="M 32.890625 23.828125 C 33.164062 23.945312 33.320312 24.15625 33.359375 24.453125 C 33.085938 24.335938 32.929688 24.125 32.890625 23.828125 Z M 32.890625 23.828125 "/>
</g>
<mask id="mask22">
  <g filter="url(#alpha)">
<rect x="0" y="0" width="50" height="50" style="fill:rgb(0%,0%,0%);fill-opacity:0.345098;stroke:none;"/>
  </g>
</mask>
<clipPath id="clip23">
  <rect x="0" y="0" width="50" height="50"/>
</clipPath>
<g id="surface71" clip-path="url(#clip23)">
<path style=" stroke:none;fill-rule:evenodd;fill:rgb(50.196078%,41.176471%,58.039216%);fill-opacity:1;" d="M 33.359375 24.453125 C 33.578125 24.527344 33.683594 24.683594 33.671875 24.921875 C 33.453125 24.847656 33.347656 24.691406 33.359375 24.453125 Z M 33.359375 24.453125 "/>
</g>
<mask id="mask23">
  <g filter="url(#alpha)">
<rect x="0" y="0" width="50" height="50" style="fill:rgb(0%,0%,0%);fill-opacity:0.160784;stroke:none;"/>
  </g>
</mask>
<clipPath id="clip24">
  <rect x="0" y="0" width="50" height="50"/>
</clipPath>
<g id="surface74" clip-path="url(#clip24)">
<path style=" stroke:none;fill-rule:evenodd;fill:rgb(51.372549%,40.784314%,57.647059%);fill-opacity:1;" d="M 33.671875 24.921875 C 34.242188 25.4375 34.660156 26.0625 34.921875 26.796875 C 34.714844 26.589844 34.503906 26.378906 34.296875 26.171875 C 34.089844 25.753906 33.878906 25.339844 33.671875 24.921875 Z M 33.671875 24.921875 "/>
</g>
<mask id="mask24">
  <g filter="url(#alpha)">
<rect x="0" y="0" width="50" height="50" style="fill:rgb(0%,0%,0%);fill-opacity:0.329412;stroke:none;"/>
  </g>
</mask>
<clipPath id="clip25">
  <rect x="0" y="0" width="50" height="50"/>
</clipPath>
<g id="surface77" clip-path="url(#clip25)">
<path style=" stroke:none;fill-rule:evenodd;fill:rgb(50.980392%,41.176471%,56.862745%);fill-opacity:1;" d="M 35.078125 27.109375 C 35.296875 27.183594 35.402344 27.339844 35.390625 27.578125 C 35.171875 27.503906 35.066406 27.347656 35.078125 27.109375 Z M 35.078125 27.109375 "/>
</g>
<mask id="mask25">
  <g filter="url(#alpha)">
<rect x="0" y="0" width="50" height="50" style="fill:rgb(0%,0%,0%);fill-opacity:0.027451;stroke:none;"/>
  </g>
</mask>
<clipPath id="clip26">
  <rect x="0" y="0" width="50" height="50"/>
</clipPath>
<g id="surface80" clip-path="url(#clip26)">
<path style=" stroke:none;fill-rule:evenodd;fill:rgb(42.352941%,42.745098%,59.215686%);fill-opacity:1;" d="M 12.109375 28.046875 C 12.359375 28.632812 12.515625 29.257812 12.578125 29.921875 C 12.277344 29.347656 12.121094 28.722656 12.109375 28.046875 Z M 12.109375 28.046875 "/>
</g>
<mask id="mask26">
  <g filter="url(#alpha)">
<rect x="0" y="0" width="50" height="50" style="fill:rgb(0%,0%,0%);fill-opacity:0.101961;stroke:none;"/>
  </g>
</mask>
<clipPath id="clip27">
  <rect x="0" y="0" width="50" height="50"/>
</clipPath>
<g id="surface83" clip-path="url(#clip27)">
<path style=" stroke:none;fill-rule:evenodd;fill:rgb(51.764706%,41.176471%,56.862745%);fill-opacity:1;" d="M 35.859375 28.515625 C 36.109375 28.636719 36.214844 28.847656 36.171875 29.140625 C 35.988281 28.980469 35.882812 28.773438 35.859375 28.515625 Z M 35.859375 28.515625 "/>
</g>
<mask id="mask27">
  <g filter="url(#alpha)">
<rect x="0" y="0" width="50" height="50" style="fill:rgb(0%,0%,0%);fill-opacity:0.0784314;stroke:none;"/>
  </g>
</mask>
<clipPath id="clip28">
  <rect x="0" y="0" width="50" height="50"/>
</clipPath>
<g id="surface86" clip-path="url(#clip28)">
<path style=" stroke:none;fill-rule:evenodd;fill:rgb(49.803922%,40.784314%,59.607843%);fill-opacity:1;" d="M 36.484375 29.765625 C 36.707031 29.964844 36.8125 30.226562 36.796875 30.546875 C 36.574219 30.347656 36.46875 30.085938 36.484375 29.765625 Z M 36.484375 29.765625 "/>
</g>
<mask id="mask28">
  <g filter="url(#alpha)">
<rect x="0" y="0" width="50" height="50" style="fill:rgb(0%,0%,0%);fill-opacity:0.231373;stroke:none;"/>
  </g>
</mask>
<clipPath id="clip29">
  <rect x="0" y="0" width="50" height="50"/>
</clipPath>
<g id="surface89" clip-path="url(#clip29)">
<path style=" stroke:none;fill-rule:evenodd;fill:rgb(42.745098%,41.568627%,59.215686%);fill-opacity:1;" d="M 12.578125 29.921875 C 12.800781 30.121094 12.90625 30.382812 12.890625 30.703125 C 12.667969 30.503906 12.5625 30.242188 12.578125 29.921875 Z M 12.578125 29.921875 "/>
</g>
<mask id="mask29">
  <g filter="url(#alpha)">
<rect x="0" y="0" width="50" height="50" style="fill:rgb(0%,0%,0%);fill-opacity:0.65098;stroke:none;"/>
  </g>
</mask>
<clipPath id="clip30">
  <rect x="0" y="0" width="50" height="50"/>
</clipPath>
<g id="surface92" clip-path="url(#clip30)">
<path style=" stroke:none;fill-rule:evenodd;fill:rgb(57.647059%,41.960784%,51.372549%);fill-opacity:1;" d="M 36.796875 30.546875 C 37.105469 31.0625 37.261719 31.636719 37.265625 32.265625 C 37.019531 31.734375 36.863281 31.160156 36.796875 30.546875 Z M 36.796875 30.546875 "/>
</g>
<mask id="mask30">
  <g filter="url(#alpha)">
<rect x="0" y="0" width="50" height="50" style="fill:rgb(0%,0%,0%);fill-opacity:0.705882;stroke:none;"/>
  </g>
</mask>
<clipPath id="clip31">
  <rect x="0" y="0" width="50" height="50"/>
</clipPath>
<g id="surface95" clip-path="url(#clip31)">
<path style=" stroke:none;fill-rule:evenodd;fill:rgb(35.686275%,46.27451%,51.372549%);fill-opacity:1;" d="M 13.515625 32.109375 C 13.875 32.300781 14.082031 32.613281 14.140625 33.046875 C 13.855469 32.792969 13.648438 32.480469 13.515625 32.109375 Z M 13.515625 32.109375 "/>
</g>
<mask id="mask31">
  <g filter="url(#alpha)">
<rect x="0" y="0" width="50" height="50" style="fill:rgb(0%,0%,0%);fill-opacity:0.65098;stroke:none;"/>
  </g>
</mask>
<clipPath id="clip32">
  <rect x="0" y="0" width="50" height="50"/>
</clipPath>
<g id="surface98" clip-path="url(#clip32)">
<path style=" stroke:none;fill-rule:evenodd;fill:rgb(57.647059%,43.137255%,48.627451%);fill-opacity:1;" d="M 37.265625 32.265625 C 37.445312 33.070312 37.472656 33.902344 37.34375 34.765625 C 37.300781 34.910156 37.222656 35.011719 37.109375 35.078125 C 37.246094 34.148438 37.296875 33.210938 37.265625 32.265625 Z M 37.265625 32.265625 "/>
</g>
<mask id="mask32">
  <g filter="url(#alpha)">
<rect x="0" y="0" width="50" height="50" style="fill:rgb(0%,0%,0%);fill-opacity:0.0745098;stroke:none;"/>
  </g>
</mask>
<clipPath id="clip33">
  <rect x="0" y="0" width="50" height="50"/>
</clipPath>
<g id="surface101" clip-path="url(#clip33)">
<path style=" stroke:none;fill-rule:evenodd;fill:rgb(42.352941%,41.568627%,58.823529%);fill-opacity:1;" d="M 14.921875 34.140625 C 15.140625 34.214844 15.246094 34.371094 15.234375 34.609375 C 15.015625 34.535156 14.910156 34.378906 14.921875 34.140625 Z M 14.921875 34.140625 "/>
</g>
<mask id="mask33">
  <g filter="url(#alpha)">
<rect x="0" y="0" width="50" height="50" style="fill:rgb(0%,0%,0%);fill-opacity:0.0823529;stroke:none;"/>
  </g>
</mask>
<clipPath id="clip34">
  <rect x="0" y="0" width="50" height="50"/>
</clipPath>
<g id="surface104" clip-path="url(#clip34)">
<path style=" stroke:none;fill-rule:evenodd;fill:rgb(52.156863%,41.176471%,57.647059%);fill-opacity:1;" d="M 37.109375 35.078125 C 37.121094 35.316406 37.015625 35.472656 36.796875 35.546875 C 36.785156 35.308594 36.890625 35.152344 37.109375 35.078125 Z M 37.109375 35.078125 "/>
</g>
<mask id="mask34">
  <g filter="url(#alpha)">
<rect x="0" y="0" width="50" height="50" style="fill:rgb(0%,0%,0%);fill-opacity:0.647059;stroke:none;"/>
  </g>
</mask>
<clipPath id="clip35">
  <rect x="0" y="0" width="50" height="50"/>
</clipPath>
<g id="surface107" clip-path="url(#clip35)">
<path style=" stroke:none;fill-rule:evenodd;fill:rgb(34.117647%,45.098039%,49.803922%);fill-opacity:1;" d="M 16.484375 35.859375 C 16.835938 35.949219 17.097656 36.160156 17.265625 36.484375 C 16.914062 36.394531 16.652344 36.183594 16.484375 35.859375 Z M 16.484375 35.859375 "/>
</g>
<mask id="mask35">
  <g filter="url(#alpha)">
<rect x="0" y="0" width="50" height="50" style="fill:rgb(0%,0%,0%);fill-opacity:0.345098;stroke:none;"/>
  </g>
</mask>
<clipPath id="clip36">
  <rect x="0" y="0" width="50" height="50"/>
</clipPath>
<g id="surface110" clip-path="url(#clip36)">
<path style=" stroke:none;fill-rule:evenodd;fill:rgb(38.823529%,42.352941%,55.686275%);fill-opacity:1;" d="M 17.578125 36.796875 C 17.816406 36.785156 17.972656 36.890625 18.046875 37.109375 C 17.808594 37.121094 17.652344 37.015625 17.578125 36.796875 Z M 17.578125 36.796875 "/>
</g>
<mask id="mask36">
  <g filter="url(#alpha)">
<rect x="0" y="0" width="50" height="50" style="fill:rgb(0%,0%,0%);fill-opacity:0.0392157;stroke:none;"/>
  </g>
</mask>
<clipPath id="clip37">
  <rect x="0" y="0" width="50" height="50"/>
</clipPath>
<g id="surface113" clip-path="url(#clip37)">
<path style=" stroke:none;fill-rule:evenodd;fill:rgb(45.882353%,40.392157%,62.352941%);fill-opacity:1;" d="M 35.390625 36.796875 C 35.316406 37.015625 35.160156 37.121094 34.921875 37.109375 C 34.996094 36.890625 35.152344 36.785156 35.390625 36.796875 Z M 35.390625 36.796875 "/>
</g>
<mask id="mask37">
  <g filter="url(#alpha)">
<rect x="0" y="0" width="50" height="50" style="fill:rgb(0%,0%,0%);fill-opacity:0.992157;stroke:none;"/>
  </g>
</mask>
<clipPath id="clip38">
  <rect x="0" y="0" width="50" height="50"/>
</clipPath>
<g id="surface116" clip-path="url(#clip38)">
<path style=" stroke:none;fill-rule:evenodd;fill:rgb(14.117647%,49.803922%,30.588235%);fill-opacity:1;" d="M 17.265625 36.484375 C 19.84375 37.128906 22.449219 37.675781 25.078125 38.125 C 27.359375 38.441406 29.652344 38.574219 31.953125 38.515625 C 31.847656 38.621094 31.746094 38.722656 31.640625 38.828125 C 29.003906 39.792969 26.296875 40.003906 23.515625 39.453125 C 23.148438 39.210938 22.734375 39.109375 22.265625 39.140625 C 21.515625 39.03125 20.839844 38.769531 20.234375 38.359375 C 20.074219 38.175781 19.867188 38.070312 19.609375 38.046875 C 19.351562 38.023438 19.144531 37.917969 18.984375 37.734375 C 18.910156 37.515625 18.753906 37.410156 18.515625 37.421875 C 18.441406 37.203125 18.285156 37.097656 18.046875 37.109375 C 17.972656 36.890625 17.816406 36.785156 17.578125 36.796875 C 17.421875 36.746094 17.316406 36.640625 17.265625 36.484375 Z M 17.265625 36.484375 "/>
</g>
<mask id="mask38">
  <g filter="url(#alpha)">
<rect x="0" y="0" width="50" height="50" style="fill:rgb(0%,0%,0%);fill-opacity:0.34902;stroke:none;"/>
  </g>
</mask>
<clipPath id="clip39">
  <rect x="0" y="0" width="50" height="50"/>
</clipPath>
<g id="surface119" clip-path="url(#clip39)">
<path style=" stroke:none;fill-rule:evenodd;fill:rgb(38.431373%,42.745098%,54.901961%);fill-opacity:1;" d="M 18.046875 37.109375 C 18.285156 37.097656 18.441406 37.203125 18.515625 37.421875 C 18.277344 37.433594 18.121094 37.328125 18.046875 37.109375 Z M 18.046875 37.109375 "/>
</g>
<mask id="mask39">
  <g filter="url(#alpha)">
<rect x="0" y="0" width="50" height="50" style="fill:rgb(0%,0%,0%);fill-opacity:0.0509804;stroke:none;"/>
  </g>
</mask>
<clipPath id="clip40">
  <rect x="0" y="0" width="50" height="50"/>
</clipPath>
<g id="surface122" clip-path="url(#clip40)">
<path style=" stroke:none;fill-rule:evenodd;fill:rgb(45.098039%,40.784314%,61.176471%);fill-opacity:1;" d="M 34.921875 37.109375 C 34.847656 37.328125 34.691406 37.433594 34.453125 37.421875 C 34.527344 37.203125 34.683594 37.097656 34.921875 37.109375 Z M 34.921875 37.109375 "/>
</g>
<mask id="mask40">
  <g filter="url(#alpha)">
<rect x="0" y="0" width="50" height="50" style="fill:rgb(0%,0%,0%);fill-opacity:0.290196;stroke:none;"/>
  </g>
</mask>
<clipPath id="clip41">
  <rect x="0" y="0" width="50" height="50"/>
</clipPath>
<g id="surface125" clip-path="url(#clip41)">
<path style=" stroke:none;fill-rule:evenodd;fill:rgb(40.784314%,41.960784%,57.254902%);fill-opacity:1;" d="M 18.515625 37.421875 C 18.753906 37.410156 18.910156 37.515625 18.984375 37.734375 C 18.746094 37.746094 18.589844 37.640625 18.515625 37.421875 Z M 18.515625 37.421875 "/>
</g>
<mask id="mask41">
  <g filter="url(#alpha)">
<rect x="0" y="0" width="50" height="50" style="fill:rgb(0%,0%,0%);fill-opacity:0.0784314;stroke:none;"/>
  </g>
</mask>
<clipPath id="clip42">
  <rect x="0" y="0" width="50" height="50"/>
</clipPath>
<g id="surface128" clip-path="url(#clip42)">
<path style=" stroke:none;fill-rule:evenodd;fill:rgb(41.568627%,41.960784%,57.647059%);fill-opacity:1;" d="M 19.609375 38.046875 C 19.867188 38.070312 20.074219 38.175781 20.234375 38.359375 C 19.941406 38.402344 19.730469 38.296875 19.609375 38.046875 Z M 19.609375 38.046875 "/>
</g>
<mask id="mask42">
  <g filter="url(#alpha)">
<rect x="0" y="0" width="50" height="50" style="fill:rgb(0%,0%,0%);fill-opacity:0.0666667;stroke:none;"/>
  </g>
</mask>
<clipPath id="clip43">
  <rect x="0" y="0" width="50" height="50"/>
</clipPath>
<g id="surface131" clip-path="url(#clip43)">
<path style=" stroke:none;fill-rule:evenodd;fill:rgb(43.529412%,41.176471%,60%);fill-opacity:1;" d="M 31.953125 38.515625 C 32.109375 38.515625 32.265625 38.515625 32.421875 38.515625 C 32.222656 38.738281 31.960938 38.84375 31.640625 38.828125 C 31.746094 38.722656 31.847656 38.621094 31.953125 38.515625 Z M 31.953125 38.515625 "/>
</g>
<mask id="mask43">
  <g filter="url(#alpha)">
<rect x="0" y="0" width="50" height="50" style="fill:rgb(0%,0%,0%);fill-opacity:0.376471;stroke:none;"/>
  </g>
</mask>
<clipPath id="clip44">
  <rect x="0" y="0" width="50" height="50"/>
</clipPath>
<g id="surface134" clip-path="url(#clip44)">
<path style=" stroke:none;fill-rule:evenodd;fill:rgb(36.078431%,43.921569%,52.156863%);fill-opacity:1;" d="M 22.265625 39.140625 C 22.734375 39.109375 23.148438 39.210938 23.515625 39.453125 C 23.058594 39.441406 22.640625 39.339844 22.265625 39.140625 Z M 22.265625 39.140625 "/>
</g>
</defs>
<g id="surface1">
<path style=" stroke:none;fill-rule:evenodd;fill:rgb(18.823529%,83.921569%,50.980392%);fill-opacity:1;" d="M 29.921875 10.859375 C 30.238281 11.082031 30.601562 11.1875 31.015625 11.171875 C 33.078125 11.734375 34.851562 12.777344 36.328125 14.296875 C 36.378906 14.453125 36.484375 14.558594 36.640625 14.609375 C 36.488281 15.15625 36.175781 15.597656 35.703125 15.9375 C 32.195312 18.195312 28.757812 18.089844 25.390625 15.625 C 24.007812 14.28125 23.589844 12.695312 24.140625 10.859375 C 24.472656 10.753906 24.785156 10.652344 25.078125 10.546875 C 26.722656 10.332031 28.339844 10.4375 29.921875 10.859375 Z M 29.921875 10.859375 "/>
<use xlink:href="#surface5" mask="url(#mask0)"/>
<use xlink:href="#surface8" mask="url(#mask1)"/>
<use xlink:href="#surface11" mask="url(#mask2)"/>
<use xlink:href="#surface14" mask="url(#mask3)"/>
<use xlink:href="#surface17" mask="url(#mask4)"/>
<path style=" stroke:none;fill-rule:evenodd;fill:rgb(14.509804%,76.078431%,45.098039%);fill-opacity:1;" d="M 18.515625 12.890625 C 18.679688 14.402344 19.226562 15.753906 20.15625 16.953125 C 22.96875 20.0625 26.484375 21.625 30.703125 21.640625 C 29.964844 22.429688 29.132812 23.109375 28.203125 23.671875 C 23.199219 23.136719 19.320312 20.792969 16.5625 16.640625 C 16.3125 16.121094 16.078125 15.601562 15.859375 15.078125 C 16.328125 14.714844 16.746094 14.296875 17.109375 13.828125 C 17.226562 13.554688 17.4375 13.398438 17.734375 13.359375 C 18.03125 13.269531 18.292969 13.113281 18.515625 12.890625 Z M 18.515625 12.890625 "/>
<use xlink:href="#surface20" mask="url(#mask5)"/>
<use xlink:href="#surface23" mask="url(#mask6)"/>
<use xlink:href="#surface26" mask="url(#mask7)"/>
<use xlink:href="#surface29" mask="url(#mask8)"/>
<path style=" stroke:none;fill-rule:evenodd;fill:rgb(14.117647%,72.156863%,42.745098%);fill-opacity:1;" d="M 15.703125 15.078125 C 15.753906 15.078125 15.808594 15.078125 15.859375 15.078125 C 16.078125 15.601562 16.3125 16.121094 16.5625 16.640625 C 19.320312 20.792969 23.199219 23.136719 28.203125 23.671875 C 27.210938 24.558594 26.167969 25.394531 25.078125 26.171875 C 20.351562 25.023438 16.523438 22.523438 13.59375 18.671875 C 13.519531 18.523438 13.492188 18.367188 13.515625 18.203125 C 13.488281 18.046875 13.539062 17.945312 13.671875 17.890625 C 13.890625 17.816406 13.996094 17.660156 13.984375 17.421875 C 14.078125 17.121094 14.234375 16.859375 14.453125 16.640625 C 14.726562 16.523438 14.882812 16.3125 14.921875 16.015625 C 15.109375 15.640625 15.371094 15.328125 15.703125 15.078125 Z M 15.703125 15.078125 "/>
<use xlink:href="#surface32" mask="url(#mask9)"/>
<use xlink:href="#surface35" mask="url(#mask10)"/>
<use xlink:href="#surface38" mask="url(#mask11)"/>
<use xlink:href="#surface41" mask="url(#mask12)"/>
<use xlink:href="#surface44" mask="url(#mask13)"/>
<use xlink:href="#surface47" mask="url(#mask14)"/>
<use xlink:href="#surface50" mask="url(#mask15)"/>
<use xlink:href="#surface53" mask="url(#mask16)"/>
<use xlink:href="#surface56" mask="url(#mask17)"/>
<use xlink:href="#surface59" mask="url(#mask18)"/>
<use xlink:href="#surface62" mask="url(#mask19)"/>
<use xlink:href="#surface65" mask="url(#mask20)"/>
<use xlink:href="#surface68" mask="url(#mask21)"/>
<path style=" stroke:none;fill-rule:evenodd;fill:rgb(95.686275%,27.843137%,19.607843%);fill-opacity:1;" d="M 30.703125 21.640625 C 30.808594 21.640625 30.910156 21.640625 31.015625 21.640625 C 31.066406 21.796875 31.171875 21.902344 31.328125 21.953125 C 31.523438 22.410156 31.835938 22.773438 32.265625 23.046875 C 32.355469 23.398438 32.566406 23.660156 32.890625 23.828125 C 32.929688 24.125 33.085938 24.335938 33.359375 24.453125 C 33.347656 24.691406 33.453125 24.847656 33.671875 24.921875 C 33.878906 25.339844 34.089844 25.753906 34.296875 26.171875 C 31.257812 27.847656 28.132812 29.359375 24.921875 30.703125 C 24.1875 30.007812 23.429688 29.332031 22.65625 28.671875 C 22.582031 28.523438 22.554688 28.367188 22.578125 28.203125 C 23.410156 27.527344 24.246094 26.847656 25.078125 26.171875 C 26.167969 25.394531 27.210938 24.558594 28.203125 23.671875 C 29.132812 23.109375 29.964844 22.429688 30.703125 21.640625 Z M 30.703125 21.640625 "/>
<path style=" stroke:none;fill-rule:evenodd;fill:rgb(12.156863%,62.745098%,36.470588%);fill-opacity:1;" d="M 12.109375 22.265625 C 14.964844 25.195312 18.378906 27.277344 22.34375 28.515625 C 22.386719 28.371094 22.464844 28.269531 22.578125 28.203125 C 22.554688 28.367188 22.582031 28.523438 22.65625 28.671875 C 23.429688 29.332031 24.1875 30.007812 24.921875 30.703125 C 25.496094 31.222656 26.066406 31.746094 26.640625 32.265625 C 22.394531 31.867188 18.382812 30.589844 14.609375 28.4375 C 13.738281 27.851562 12.855469 27.304688 11.953125 26.796875 C 11.847656 26.253906 11.796875 25.679688 11.796875 25.078125 C 11.777344 24.105469 11.882812 23.167969 12.109375 22.265625 Z M 12.109375 22.265625 "/>
<use xlink:href="#surface71" mask="url(#mask22)"/>
<use xlink:href="#surface74" mask="url(#mask23)"/>
<use xlink:href="#surface77" mask="url(#mask24)"/>
<path style=" stroke:none;fill-rule:evenodd;fill:rgb(96.078431%,32.54902%,24.705882%);fill-opacity:1;" d="M 34.296875 26.171875 C 34.503906 26.378906 34.714844 26.589844 34.921875 26.796875 C 35.054688 26.851562 35.105469 26.953125 35.078125 27.109375 C 35.066406 27.347656 35.171875 27.503906 35.390625 27.578125 C 35.625 27.839844 35.78125 28.152344 35.859375 28.515625 C 35.882812 28.773438 35.988281 28.980469 36.171875 29.140625 C 36.304688 29.195312 36.355469 29.296875 36.328125 29.453125 C 36.328125 29.609375 36.328125 29.765625 36.328125 29.921875 C 33.722656 31.121094 31.121094 32.316406 28.515625 33.515625 C 27.847656 33.160156 27.222656 32.742188 26.640625 32.265625 C 26.066406 31.746094 25.496094 31.222656 24.921875 30.703125 C 28.132812 29.359375 31.257812 27.847656 34.296875 26.171875 Z M 34.296875 26.171875 "/>
<use xlink:href="#surface80" mask="url(#mask25)"/>
<use xlink:href="#surface83" mask="url(#mask26)"/>
<path style=" stroke:none;fill-rule:evenodd;fill:rgb(10.196078%,58.039216%,32.941176%);fill-opacity:1;" d="M 11.953125 26.796875 C 12.855469 27.304688 13.738281 27.851562 14.609375 28.4375 C 18.382812 30.589844 22.394531 31.867188 26.640625 32.265625 C 27.222656 32.742188 27.847656 33.160156 28.515625 33.515625 C 29.773438 34.40625 31.128906 35.132812 32.578125 35.703125 C 25.765625 36.03125 19.304688 34.625 13.203125 31.484375 C 13.054688 31.242188 12.953125 30.980469 12.890625 30.703125 C 12.90625 30.382812 12.800781 30.121094 12.578125 29.921875 C 12.515625 29.257812 12.359375 28.632812 12.109375 28.046875 C 11.957031 27.664062 11.90625 27.246094 11.953125 26.796875 Z M 11.953125 26.796875 "/>
<use xlink:href="#surface86" mask="url(#mask27)"/>
<use xlink:href="#surface89" mask="url(#mask28)"/>
<use xlink:href="#surface92" mask="url(#mask29)"/>
<path style=" stroke:none;fill-rule:evenodd;fill:rgb(97.254902%,37.647059%,30.588235%);fill-opacity:1;" d="M 36.328125 29.453125 C 36.460938 29.507812 36.511719 29.609375 36.484375 29.765625 C 36.46875 30.085938 36.574219 30.347656 36.796875 30.546875 C 36.863281 31.160156 37.019531 31.734375 37.265625 32.265625 C 37.296875 33.210938 37.246094 34.148438 37.109375 35.078125 C 36.890625 35.152344 36.785156 35.308594 36.796875 35.546875 C 36.796875 35.652344 36.746094 35.703125 36.640625 35.703125 C 35.289062 36.320312 33.933594 36.320312 32.578125 35.703125 C 31.128906 35.132812 29.773438 34.40625 28.515625 33.515625 C 31.121094 32.316406 33.722656 31.121094 36.328125 29.921875 C 36.328125 29.765625 36.328125 29.609375 36.328125 29.453125 Z M 36.328125 29.453125 "/>
<path style=" stroke:none;fill-rule:evenodd;fill:rgb(10.196078%,54.117647%,30.588235%);fill-opacity:1;" d="M 13.203125 31.484375 C 19.304688 34.625 25.765625 36.03125 32.578125 35.703125 C 33.933594 36.320312 35.289062 36.320312 36.640625 35.703125 C 36.226562 36.0625 35.8125 36.429688 35.390625 36.796875 C 35.152344 36.785156 34.996094 36.890625 34.921875 37.109375 C 34.683594 37.097656 34.527344 37.203125 34.453125 37.421875 C 33.851562 37.90625 33.175781 38.269531 32.421875 38.515625 C 32.265625 38.515625 32.109375 38.515625 31.953125 38.515625 C 29.652344 38.574219 27.359375 38.441406 25.078125 38.125 C 22.449219 37.675781 19.84375 37.128906 17.265625 36.484375 C 17.097656 36.160156 16.835938 35.949219 16.484375 35.859375 C 16.015625 35.496094 15.597656 35.078125 15.234375 34.609375 C 15.246094 34.371094 15.140625 34.214844 14.921875 34.140625 C 14.546875 33.859375 14.285156 33.496094 14.140625 33.046875 C 14.082031 32.613281 13.875 32.300781 13.515625 32.109375 C 13.332031 31.949219 13.226562 31.742188 13.203125 31.484375 Z M 13.203125 31.484375 "/>
<use xlink:href="#surface95" mask="url(#mask30)"/>
<use xlink:href="#surface98" mask="url(#mask31)"/>
<use xlink:href="#surface101" mask="url(#mask32)"/>
<use xlink:href="#surface104" mask="url(#mask33)"/>
<use xlink:href="#surface107" mask="url(#mask34)"/>
<use xlink:href="#surface110" mask="url(#mask35)"/>
<use xlink:href="#surface113" mask="url(#mask36)"/>
<use xlink:href="#surface116" mask="url(#mask37)"/>
<use xlink:href="#surface119" mask="url(#mask38)"/>
<use xlink:href="#surface122" mask="url(#mask39)"/>
<use xlink:href="#surface125" mask="url(#mask40)"/>
<use xlink:href="#surface128" mask="url(#mask41)"/>
<use xlink:href="#surface131" mask="url(#mask42)"/>
<use xlink:href="#surface134" mask="url(#mask43)"/>
</g>
</svg>
