<svg width="500" height="550" viewBox="0 0 500 550" fill="none" xmlns="http://www.w3.org/2000/svg">
<rect width="500" height="550" fill="white"/>
<!-- <rect width="500" height="550" fill="#7E92FF"/> -->
<rect width="500" height="550" fill="#72e8ad"/>
<rect width="500" height="50" fill="black"/>
<rect x="50" y="75" width="25" height="25" fill="#c1f5db"/>
<rect x="250" y="75" width="25" height="25" fill="#c1f5db"/>
<rect x="400" y="75" width="25" height="25" fill="#c1f5db"/>
<rect x="150" y="75" width="25" height="25" fill="#c1f5db"/>
<rect x="350" y="75" width="25" height="25" fill="#c1f5db"/>
<rect y="75" width="25" height="25" fill="#c1f5db"/>
<rect x="200" y="75" width="25" height="25" fill="#c1f5db"/>
<rect x="100" y="75" width="25" height="25" fill="#c1f5db"/>
<rect x="300" y="75" width="25" height="25" fill="#c1f5db"/>
<rect x="450" y="75" width="25" height="25" fill="#c1f5db"/>
<rect x="50" y="325" width="25" height="25" fill="#c1f5db"/>
<rect x="250" y="325" width="25" height="25" fill="#c1f5db"/>
<rect x="400" y="325" width="25" height="25" fill="#c1f5db"/>
<rect x="150" y="325" width="25" height="25" fill="#c1f5db"/>
<rect x="350" y="325" width="25" height="25" fill="#c1f5db"/>
<rect y="325" width="25" height="25" fill="#c1f5db"/>
<rect x="200" y="325" width="25" height="25" fill="#c1f5db"/>
<rect x="100" y="325" width="25" height="25" fill="#c1f5db"/>
<rect x="300" y="325" width="25" height="25" fill="#c1f5db"/>
<rect x="450" y="325" width="25" height="25" fill="#c1f5db"/>
<rect x="50" y="175" width="25" height="25" fill="#c1f5db"/>
<rect x="250" y="175" width="25" height="25" fill="#c1f5db"/>
<rect x="400" y="175" width="25" height="25" fill="#c1f5db"/>
<rect x="150" y="175" width="25" height="25" fill="#c1f5db"/>
<rect x="350" y="175" width="25" height="25" fill="#c1f5db"/>
<rect y="175" width="25" height="25" fill="#c1f5db"/>
<rect x="200" y="175" width="25" height="25" fill="#c1f5db"/>
<rect x="100" y="175" width="25" height="25" fill="#c1f5db"/>
<rect x="300" y="175" width="25" height="25" fill="#c1f5db"/>
<rect x="450" y="175" width="25" height="25" fill="#c1f5db"/>
<rect x="50" y="275" width="25" height="25" fill="#c1f5db"/>
<rect x="250" y="275" width="25" height="25" fill="#c1f5db"/>
<rect x="400" y="275" width="25" height="25" fill="#c1f5db"/>
<rect x="150" y="275" width="25" height="25" fill="#c1f5db"/>
<rect x="350" y="275" width="25" height="25" fill="#c1f5db"/>
<rect y="275" width="25" height="25" fill="#c1f5db"/>
<rect x="200" y="275" width="25" height="25" fill="#c1f5db"/>
<rect x="100" y="275" width="25" height="25" fill="#c1f5db"/>
<rect x="300" y="275" width="25" height="25" fill="#c1f5db"/>
<rect x="450" y="275" width="25" height="25" fill="#c1f5db"/>
<rect x="50" y="425" width="25" height="25" fill="#c1f5db"/>
<rect x="250" y="425" width="25" height="25" fill="#c1f5db"/>
<rect x="400" y="425" width="25" height="25" fill="#c1f5db"/>
<rect x="150" y="425" width="25" height="25" fill="#c1f5db"/>
<rect x="350" y="425" width="25" height="25" fill="#c1f5db"/>
<rect y="425" width="25" height="25" fill="#c1f5db"/>
<rect x="200" y="425" width="25" height="25" fill="#c1f5db"/>
<rect x="100" y="425" width="25" height="25" fill="#c1f5db"/>
<rect x="300" y="425" width="25" height="25" fill="#c1f5db"/>
<rect x="450" y="425" width="25" height="25" fill="#c1f5db"/>
<rect x="50" y="125" width="25" height="25" fill="#c1f5db"/>
<rect x="250" y="125" width="25" height="25" fill="#c1f5db"/>
<rect x="400" y="125" width="25" height="25" fill="#c1f5db"/>
<rect x="150" y="125" width="25" height="25" fill="#c1f5db"/>
<rect x="350" y="125" width="25" height="25" fill="#c1f5db"/>
<rect y="125" width="25" height="25" fill="#c1f5db"/>
<rect x="200" y="125" width="25" height="25" fill="#c1f5db"/>
<rect x="100" y="125" width="25" height="25" fill="#c1f5db"/>
<rect x="300" y="125" width="25" height="25" fill="#c1f5db"/>
<rect x="450" y="125" width="25" height="25" fill="#c1f5db"/>
<rect x="50" y="375" width="25" height="25" fill="#c1f5db"/>
<rect x="250" y="375" width="25" height="25" fill="#c1f5db"/>
<rect x="400" y="375" width="25" height="25" fill="#c1f5db"/>
<rect x="150" y="375" width="25" height="25" fill="#c1f5db"/>
<rect x="350" y="375" width="25" height="25" fill="#c1f5db"/>
<rect y="375" width="25" height="25" fill="#c1f5db"/>
<rect x="200" y="375" width="25" height="25" fill="#c1f5db"/>
<rect x="100" y="375" width="25" height="25" fill="#c1f5db"/>
<rect x="300" y="375" width="25" height="25" fill="#c1f5db"/>
<rect x="450" y="375" width="25" height="25" fill="#c1f5db"/>
<rect x="50" y="225" width="25" height="25" fill="#c1f5db"/>
<rect x="250" y="225" width="25" height="25" fill="#c1f5db"/>
<rect x="400" y="225" width="25" height="25" fill="#c1f5db"/>
<rect x="150" y="225" width="25" height="25" fill="#c1f5db"/>
<rect x="350" y="225" width="25" height="25" fill="#c1f5db"/>
<rect y="225" width="25" height="25" fill="#c1f5db"/>
<rect x="200" y="225" width="25" height="25" fill="#c1f5db"/>
<rect x="100" y="225" width="25" height="25" fill="#c1f5db"/>
<rect x="300" y="225" width="25" height="25" fill="#c1f5db"/>
<rect x="450" y="225" width="25" height="25" fill="#c1f5db"/>
<rect x="50" y="475" width="25" height="25" fill="#c1f5db"/>
<rect x="250" y="475" width="25" height="25" fill="#c1f5db"/>
<rect x="400" y="475" width="25" height="25" fill="#c1f5db"/>
<rect x="150" y="475" width="25" height="25" fill="#c1f5db"/>
<rect x="350" y="475" width="25" height="25" fill="#c1f5db"/>
<rect y="475" width="25" height="25" fill="#c1f5db"/>
<rect x="200" y="475" width="25" height="25" fill="#c1f5db"/>
<rect x="100" y="475" width="25" height="25" fill="#c1f5db"/>
<rect x="300" y="475" width="25" height="25" fill="#c1f5db"/>
<rect x="450" y="475" width="25" height="25" fill="#c1f5db"/>
<rect x="50" y="525" width="25" height="25" fill="#c1f5db"/>
<rect x="250" y="525" width="25" height="25" fill="#c1f5db"/>
<rect x="400" y="525" width="25" height="25" fill="#c1f5db"/>
<rect x="150" y="525" width="25" height="25" fill="#c1f5db"/>
<rect x="350" y="525" width="25" height="25" fill="#c1f5db"/>
<rect y="525" width="25" height="25" fill="#c1f5db"/>
<rect x="200" y="525" width="25" height="25" fill="#c1f5db"/>
<rect x="100" y="525" width="25" height="25" fill="#c1f5db"/>
<rect x="300" y="525" width="25" height="25" fill="#c1f5db"/>
<rect x="450" y="525" width="25" height="25" fill="#c1f5db"/>
<rect x="75" y="50" width="25" height="25" fill="#c1f5db"/>
<rect x="275" y="50" width="25" height="25" fill="#c1f5db"/>
<rect x="425" y="50" width="25" height="25" fill="#c1f5db"/>
<rect x="175" y="50" width="25" height="25" fill="#c1f5db"/>
<rect x="375" y="50" width="25" height="25" fill="#c1f5db"/>
<rect x="25" y="50" width="25" height="25" fill="#c1f5db"/>
<rect x="225" y="50" width="25" height="25" fill="#c1f5db"/>
<rect x="125" y="50" width="25" height="25" fill="#c1f5db"/>
<rect x="325" y="50" width="25" height="25" fill="#c1f5db"/>
<rect x="475" y="50" width="25" height="25" fill="#c1f5db"/>
<rect x="75" y="300" width="25" height="25" fill="#c1f5db"/>
<rect x="275" y="300" width="25" height="25" fill="#c1f5db"/>
<rect x="425" y="300" width="25" height="25" fill="#c1f5db"/>
<rect x="175" y="300" width="25" height="25" fill="#c1f5db"/>
<rect x="375" y="300" width="25" height="25" fill="#c1f5db"/>
<rect x="25" y="300" width="25" height="25" fill="#c1f5db"/>
<rect x="225" y="300" width="25" height="25" fill="#c1f5db"/>
<rect x="125" y="300" width="25" height="25" fill="#c1f5db"/>
<rect x="325" y="300" width="25" height="25" fill="#c1f5db"/>
<rect x="475" y="300" width="25" height="25" fill="#c1f5db"/>
<rect x="75" y="150" width="25" height="25" fill="#c1f5db"/>
<rect x="275" y="150" width="25" height="25" fill="#c1f5db"/>
<rect x="425" y="150" width="25" height="25" fill="#c1f5db"/>
<rect x="175" y="150" width="25" height="25" fill="#c1f5db"/>
<rect x="375" y="150" width="25" height="25" fill="#c1f5db"/>
<rect x="25" y="150" width="25" height="25" fill="#c1f5db"/>
<rect x="225" y="150" width="25" height="25" fill="#c1f5db"/>
<rect x="125" y="150" width="25" height="25" fill="#c1f5db"/>
<rect x="325" y="150" width="25" height="25" fill="#c1f5db"/>
<rect x="475" y="150" width="25" height="25" fill="#c1f5db"/>
<rect x="75" y="250" width="25" height="25" fill="#c1f5db"/>
<rect x="275" y="250" width="25" height="25" fill="#c1f5db"/>
<rect x="425" y="250" width="25" height="25" fill="#c1f5db"/>
<rect x="175" y="250" width="25" height="25" fill="#c1f5db"/>
<rect x="375" y="250" width="25" height="25" fill="#c1f5db"/>
<rect x="25" y="250" width="25" height="25" fill="#c1f5db"/>
<rect x="225" y="250" width="25" height="25" fill="#c1f5db"/>
<rect x="125" y="250" width="25" height="25" fill="#c1f5db"/>
<rect x="325" y="250" width="25" height="25" fill="#c1f5db"/>
<rect x="475" y="250" width="25" height="25" fill="#c1f5db"/>
<rect x="75" y="400" width="25" height="25" fill="#c1f5db"/>
<rect x="275" y="400" width="25" height="25" fill="#c1f5db"/>
<rect x="425" y="400" width="25" height="25" fill="#c1f5db"/>
<rect x="175" y="400" width="25" height="25" fill="#c1f5db"/>
<rect x="375" y="400" width="25" height="25" fill="#c1f5db"/>
<rect x="25" y="400" width="25" height="25" fill="#c1f5db"/>
<rect x="225" y="400" width="25" height="25" fill="#c1f5db"/>
<rect x="125" y="400" width="25" height="25" fill="#c1f5db"/>
<rect x="325" y="400" width="25" height="25" fill="#c1f5db"/>
<rect x="475" y="400" width="25" height="25" fill="#c1f5db"/>
<rect x="75" y="100" width="25" height="25" fill="#c1f5db"/>
<rect x="275" y="100" width="25" height="25" fill="#c1f5db"/>
<rect x="425" y="100" width="25" height="25" fill="#c1f5db"/>
<rect x="175" y="100" width="25" height="25" fill="#c1f5db"/>
<rect x="375" y="100" width="25" height="25" fill="#c1f5db"/>
<rect x="25" y="100" width="25" height="25" fill="#c1f5db"/>
<rect x="225" y="100" width="25" height="25" fill="#c1f5db"/>
<rect x="125" y="100" width="25" height="25" fill="#c1f5db"/>
<rect x="325" y="100" width="25" height="25" fill="#c1f5db"/>
<rect x="475" y="100" width="25" height="25" fill="#c1f5db"/>
<rect x="75" y="350" width="25" height="25" fill="#c1f5db"/>
<rect x="275" y="350" width="25" height="25" fill="#c1f5db"/>
<rect x="425" y="350" width="25" height="25" fill="#c1f5db"/>
<rect x="175" y="350" width="25" height="25" fill="#c1f5db"/>
<rect x="375" y="350" width="25" height="25" fill="#c1f5db"/>
<rect x="25" y="350" width="25" height="25" fill="#c1f5db"/>
<rect x="225" y="350" width="25" height="25" fill="#c1f5db"/>
<rect x="125" y="350" width="25" height="25" fill="#c1f5db"/>
<rect x="325" y="350" width="25" height="25" fill="#c1f5db"/>
<rect x="475" y="350" width="25" height="25" fill="#c1f5db"/>
<rect x="75" y="200" width="25" height="25" fill="#c1f5db"/>
<rect x="275" y="200" width="25" height="25" fill="#c1f5db"/>
<rect x="425" y="200" width="25" height="25" fill="#c1f5db"/>
<rect x="175" y="200" width="25" height="25" fill="#c1f5db"/>
<rect x="375" y="200" width="25" height="25" fill="#c1f5db"/>
<rect x="25" y="200" width="25" height="25" fill="#c1f5db"/>
<rect x="225" y="200" width="25" height="25" fill="#c1f5db"/>
<rect x="125" y="200" width="25" height="25" fill="#c1f5db"/>
<rect x="325" y="200" width="25" height="25" fill="#c1f5db"/>
<rect x="475" y="200" width="25" height="25" fill="#c1f5db"/>
<rect x="75" y="450" width="25" height="25" fill="#c1f5db"/>
<rect x="275" y="450" width="25" height="25" fill="#c1f5db"/>
<rect x="425" y="450" width="25" height="25" fill="#c1f5db"/>
<rect x="175" y="450" width="25" height="25" fill="#c1f5db"/>
<rect x="375" y="450" width="25" height="25" fill="#c1f5db"/>
<rect x="25" y="450" width="25" height="25" fill="#c1f5db"/>
<rect x="225" y="450" width="25" height="25" fill="#c1f5db"/>
<rect x="125" y="450" width="25" height="25" fill="#c1f5db"/>
<rect x="325" y="450" width="25" height="25" fill="#c1f5db"/>
<rect x="475" y="450" width="25" height="25" fill="#c1f5db"/>
<rect x="75" y="500" width="25" height="25" fill="#c1f5db"/>
<rect x="275" y="500" width="25" height="25" fill="#c1f5db"/>
<rect x="425" y="500" width="25" height="25" fill="#c1f5db"/>
<rect x="175" y="500" width="25" height="25" fill="#c1f5db"/>
<rect x="375" y="500" width="25" height="25" fill="#c1f5db"/>
<rect x="25" y="500" width="25" height="25" fill="#c1f5db"/>
<rect x="225" y="500" width="25" height="25" fill="#c1f5db"/>
<rect x="125" y="500" width="25" height="25" fill="#c1f5db"/>
<rect x="325" y="500" width="25" height="25" fill="#c1f5db"/>
<rect x="475" y="500" width="25" height="25" fill="#c1f5db"/>
</svg>
